G04*
G04 #@! TF.GenerationSoftware,Altium Limited,Altium Designer,21.6.1 (37)*
G04*
G04 Layer_Color=16777215*
%FSLAX44Y44*%
%MOMM*%
G71*
G04*
G04 #@! TF.SameCoordinates,45D27BC1-988F-4E8A-9F01-A3EFFFD16F67*
G04*
G04*
G04 #@! TF.FilePolarity,Positive*
G04*
G01*
G75*
%ADD10C,0.1270*%
%ADD13C,0.2000*%
%ADD14C,0.1000*%
G36*
X491490Y201888D02*
Y186930D01*
Y178059D01*
X427990D01*
Y186930D01*
Y201888D01*
Y209280D01*
X491490D01*
Y201888D01*
D02*
G37*
%LPC*%
G36*
X448978Y200410D02*
X447480D01*
Y198732D01*
X448978D01*
Y200410D01*
D02*
G37*
G36*
X461695Y197650D02*
X459976D01*
Y194793D01*
X454609D01*
Y197650D01*
X452875D01*
Y190258D01*
X454609D01*
Y193448D01*
X459976D01*
Y190258D01*
X461695D01*
Y197650D01*
D02*
G37*
G36*
X443625D02*
X442460D01*
X437259Y193281D01*
X437245Y193267D01*
X437218Y193240D01*
X437162Y193212D01*
X437107Y193157D01*
X436954Y193018D01*
X436802Y192879D01*
X436788Y192865D01*
X436760Y192852D01*
X436732Y192810D01*
X436677Y192754D01*
X436552Y192630D01*
X436413Y192477D01*
Y192491D01*
Y192505D01*
Y192574D01*
X436427Y192685D01*
X436441Y192824D01*
X436455Y193115D01*
X436469Y193254D01*
Y193365D01*
Y193379D01*
Y193406D01*
Y193462D01*
Y193517D01*
X436483Y193642D01*
Y193767D01*
Y197650D01*
X434943D01*
Y190258D01*
X436122D01*
X441545Y194821D01*
X441558Y194835D01*
X441572Y194848D01*
X441656Y194918D01*
X441767Y195015D01*
X441891Y195126D01*
Y195140D01*
X441919Y195154D01*
X441975Y195223D01*
X442072Y195320D01*
X442169Y195417D01*
Y195403D01*
X442155Y195362D01*
Y195292D01*
X442141Y195209D01*
Y195112D01*
X442127Y195001D01*
X442113Y194765D01*
Y194751D01*
Y194710D01*
X442099Y194654D01*
Y194585D01*
X442085Y194419D01*
Y194238D01*
Y190258D01*
X443625D01*
Y197650D01*
D02*
G37*
G36*
X469961D02*
X468311D01*
X464067Y190258D01*
X466008D01*
X466896Y191881D01*
X471570D01*
X472430Y190258D01*
X474135D01*
X469961Y197650D01*
D02*
G37*
G36*
X449103D02*
X447383D01*
Y190258D01*
X449103D01*
Y197650D01*
D02*
G37*
G36*
X482609D02*
X478046D01*
X477963Y197636D01*
X477866D01*
X477644Y197608D01*
X477408Y197567D01*
X477173Y197497D01*
X476951Y197414D01*
X476867Y197359D01*
X476784Y197289D01*
X476770Y197276D01*
X476715Y197220D01*
X476659Y197123D01*
X476576Y196998D01*
X476507Y196818D01*
X476438Y196610D01*
X476396Y196346D01*
X476382Y196027D01*
Y195875D01*
X477894Y195528D01*
Y196360D01*
X482734D01*
Y194765D01*
X477949D01*
X477866Y194751D01*
X477769D01*
X477547Y194724D01*
X477297Y194668D01*
X477062Y194613D01*
X476840Y194516D01*
X476757Y194460D01*
X476673Y194391D01*
X476659Y194377D01*
X476618Y194321D01*
X476549Y194224D01*
X476479Y194086D01*
X476410Y193892D01*
X476340Y193656D01*
X476327Y193517D01*
X476299Y193365D01*
X476285Y193198D01*
Y191839D01*
X476299Y191756D01*
Y191673D01*
X476327Y191451D01*
X476382Y191229D01*
X476451Y190993D01*
X476549Y190785D01*
X476604Y190702D01*
X476673Y190619D01*
X476687Y190605D01*
X476743Y190563D01*
X476854Y190508D01*
X476992Y190438D01*
X477186Y190369D01*
X477311Y190341D01*
X477450Y190314D01*
X477589Y190286D01*
X477755Y190272D01*
X477935Y190258D01*
X480071D01*
Y189606D01*
X479821D01*
X479669Y189592D01*
X479489Y189565D01*
X479294Y189523D01*
X479086Y189468D01*
X478892Y189398D01*
X478726Y189287D01*
X478712Y189273D01*
X478657Y189232D01*
X478587Y189149D01*
X478518Y189038D01*
X478435Y188885D01*
X478379Y188719D01*
X478324Y188511D01*
X478310Y188261D01*
Y188233D01*
Y188150D01*
X478338Y188039D01*
X478365Y187901D01*
X478421Y187734D01*
X478504Y187582D01*
X478615Y187415D01*
X478767Y187276D01*
X478795Y187262D01*
X478851Y187221D01*
X478962Y187165D01*
X479100Y187110D01*
X479281Y187041D01*
X479502Y186985D01*
X479766Y186943D01*
X480057Y186930D01*
X480210D01*
X480307Y186943D01*
X480446D01*
X480584Y186971D01*
X480751Y186985D01*
X480931Y187013D01*
X480959D01*
X481014Y187027D01*
X481111Y187041D01*
X481236Y187068D01*
X481389Y187110D01*
X481569Y187138D01*
X481763Y187179D01*
X481957Y187235D01*
Y188067D01*
X481929D01*
X481860Y188039D01*
X481749Y188011D01*
X481610Y187984D01*
X481458Y187942D01*
X481292Y187914D01*
X480945Y187845D01*
X480931D01*
X480862Y187831D01*
X480778Y187817D01*
X480681Y187803D01*
X480556Y187789D01*
X480432Y187776D01*
X480307Y187762D01*
X480126D01*
X480057Y187776D01*
X479974D01*
X479780Y187817D01*
X479697Y187859D01*
X479613Y187901D01*
X479599D01*
X479586Y187928D01*
X479516Y187997D01*
X479447Y188122D01*
X479433Y188206D01*
X479419Y188289D01*
Y188303D01*
Y188330D01*
X479433Y188386D01*
X479447Y188455D01*
X479475Y188524D01*
X479516Y188594D01*
X479572Y188663D01*
X479655Y188719D01*
X479669D01*
X479697Y188733D01*
X479752Y188760D01*
X479835Y188788D01*
X479946Y188802D01*
X480071Y188830D01*
X480238Y188843D01*
X480612D01*
X480653Y188830D01*
X480695D01*
Y190258D01*
X482873D01*
X482956Y190272D01*
X483053D01*
X483288Y190300D01*
X483538Y190341D01*
X483774Y190411D01*
X483996Y190494D01*
X484079Y190549D01*
X484162Y190619D01*
X484176Y190632D01*
X484218Y190688D01*
X484287Y190785D01*
X484342Y190938D01*
X484412Y191118D01*
X484481Y191368D01*
X484495Y191506D01*
X484523Y191659D01*
X484537Y191825D01*
Y192200D01*
X483025Y192533D01*
Y191645D01*
X477797D01*
Y193337D01*
X482581D01*
X482678Y193351D01*
X482775D01*
X482997Y193379D01*
X483233Y193420D01*
X483469Y193489D01*
X483691Y193573D01*
X483774Y193628D01*
X483857Y193697D01*
X483871Y193711D01*
X483913Y193767D01*
X483982Y193864D01*
X484037Y194016D01*
X484107Y194197D01*
X484176Y194446D01*
X484190Y194585D01*
X484218Y194738D01*
X484232Y194904D01*
Y195084D01*
Y195903D01*
Y195916D01*
Y195944D01*
Y196000D01*
Y196069D01*
X484218Y196152D01*
Y196235D01*
X484190Y196443D01*
X484134Y196679D01*
X484079Y196901D01*
X483982Y197109D01*
X483927Y197192D01*
X483857Y197276D01*
X483843Y197289D01*
X483788Y197331D01*
X483677Y197400D01*
X483538Y197470D01*
X483344Y197525D01*
X483219Y197567D01*
X483094Y197595D01*
X482942Y197622D01*
X482789Y197636D01*
X482609Y197650D01*
D02*
G37*
%LPD*%
G36*
X470835Y193212D02*
X467603D01*
X469198Y196208D01*
X470835Y193212D01*
D02*
G37*
D10*
X155020Y223800D02*
X165020D01*
X155020Y233400D02*
X165020D01*
X241380Y223800D02*
X251380D01*
X241380Y233400D02*
X251380D01*
X409020Y224308D02*
X419020D01*
X409020Y233908D02*
X419020D01*
X327740Y223800D02*
X337740D01*
X327740Y233400D02*
X337740D01*
D13*
X574244Y197958D02*
Y189960D01*
Y197958D02*
X570816D01*
X569673Y197577D01*
X569292Y197197D01*
X568912Y196435D01*
Y195673D01*
X569292Y194911D01*
X569673Y194530D01*
X570816Y194150D01*
X574244D02*
X570816D01*
X569673Y193769D01*
X569292Y193388D01*
X568912Y192626D01*
Y191483D01*
X569292Y190722D01*
X569673Y190341D01*
X570816Y189960D01*
X574244D01*
X567122Y197958D02*
Y192245D01*
X566741Y191103D01*
X565979Y190341D01*
X564836Y189960D01*
X564075D01*
X562932Y190341D01*
X562170Y191103D01*
X561789Y192245D01*
Y197958D01*
X559580D02*
Y189960D01*
Y197958D02*
X556152D01*
X555010Y197577D01*
X554629Y197197D01*
X554248Y196435D01*
Y195673D01*
X554629Y194911D01*
X555010Y194530D01*
X556152Y194150D01*
X559580D01*
X556914D02*
X554248Y189960D01*
X546364D02*
X549411Y197958D01*
X552458Y189960D01*
X551315Y192626D02*
X547507D01*
X544498Y197958D02*
Y189960D01*
X539165Y197958D02*
X544498Y192626D01*
X542593Y194530D02*
X539165Y189960D01*
X531091Y197958D02*
Y189960D01*
X525759Y197958D02*
X531091Y192626D01*
X529187Y194530D02*
X525759Y189960D01*
X517875D02*
X520922Y197958D01*
X523969Y189960D01*
X522826Y192626D02*
X519017D01*
X509915Y189960D02*
X512962Y197958D01*
X516009Y189960D01*
X514866Y192626D02*
X511057D01*
X508048Y197958D02*
Y189960D01*
Y197958D02*
X502716Y189960D01*
Y197958D02*
Y189960D01*
X569728Y251492D02*
Y261489D01*
X564730D01*
X563064Y259823D01*
Y256491D01*
X564730Y254825D01*
X569728D01*
X566396D02*
X563064Y251492D01*
X553067Y259823D02*
X554733Y261489D01*
X558065D01*
X559732Y259823D01*
Y253158D01*
X558065Y251492D01*
X554733D01*
X553067Y253158D01*
X543070Y261489D02*
X549735D01*
Y256491D01*
X546403Y258157D01*
X544737D01*
X543070Y256491D01*
Y253158D01*
X544737Y251492D01*
X548069D01*
X549735Y253158D01*
X533074Y251492D02*
X539738D01*
X533074Y258157D01*
Y259823D01*
X534740Y261489D01*
X538072D01*
X539738Y259823D01*
X523077Y251492D02*
X529741D01*
X523077Y258157D01*
Y259823D01*
X524743Y261489D01*
X528075D01*
X529741Y259823D01*
X503083D02*
X504749Y261489D01*
X508082D01*
X509748Y259823D01*
Y258157D01*
X508082Y256491D01*
X504749D01*
X503083Y254825D01*
Y253158D01*
X504749Y251492D01*
X508082D01*
X509748Y253158D01*
X499751Y261489D02*
Y251492D01*
Y256491D01*
X498085Y258157D01*
X494753D01*
X493086Y256491D01*
Y251492D01*
X489754D02*
X486422D01*
X488088D01*
Y258157D01*
X489754D01*
X476425Y251492D02*
X479757D01*
X481423Y253158D01*
Y256491D01*
X479757Y258157D01*
X476425D01*
X474759Y256491D01*
Y254825D01*
X481423D01*
X471427Y251492D02*
X468094D01*
X469761D01*
Y261489D01*
X471427D01*
X456432D02*
Y251492D01*
X461430D01*
X463096Y253158D01*
Y256491D01*
X461430Y258157D01*
X456432D01*
X523077Y234696D02*
Y243027D01*
Y239694D01*
X524743D01*
X521411D01*
X523077D01*
Y243027D01*
X521411Y244693D01*
X514746Y234696D02*
X511414D01*
X509748Y236362D01*
Y239694D01*
X511414Y241361D01*
X514746D01*
X516412Y239694D01*
Y236362D01*
X514746Y234696D01*
X506415Y241361D02*
Y234696D01*
Y238028D01*
X504749Y239694D01*
X503083Y241361D01*
X501417D01*
X563897Y226231D02*
X565563Y227897D01*
X568895D01*
X570561Y226231D01*
Y224564D01*
X568895Y222898D01*
X565563D01*
X563897Y221232D01*
Y219566D01*
X565563Y217900D01*
X568895D01*
X570561Y219566D01*
X560565Y227897D02*
X553900D01*
X557232D01*
Y217900D01*
X550568D02*
Y227897D01*
X547236Y224564D01*
X543903Y227897D01*
Y217900D01*
X540571Y226231D02*
X538905Y227897D01*
X535573D01*
X533907Y226231D01*
Y224564D01*
X535573Y222898D01*
X537239D01*
X535573D01*
X533907Y221232D01*
Y219566D01*
X535573Y217900D01*
X538905D01*
X540571Y219566D01*
X523910Y217900D02*
X530574D01*
X523910Y224564D01*
Y226231D01*
X525576Y227897D01*
X528908D01*
X530574Y226231D01*
X513913Y227897D02*
X520578D01*
Y222898D01*
X517245D01*
X520578D01*
Y217900D01*
X510581D02*
X507248D01*
X508915D01*
Y227897D01*
X510581Y226231D01*
X502250D02*
X500584Y227897D01*
X497252D01*
X495586Y226231D01*
Y219566D01*
X497252Y217900D01*
X500584D01*
X502250Y219566D01*
Y226231D01*
X492253D02*
X490587Y227897D01*
X487255D01*
X485589Y226231D01*
Y224564D01*
X487255Y222898D01*
X488921D01*
X487255D01*
X485589Y221232D01*
Y219566D01*
X487255Y217900D01*
X490587D01*
X492253Y219566D01*
X482257Y227897D02*
Y219566D01*
X480591Y217900D01*
X477258D01*
X475592Y219566D01*
Y227897D01*
X472260Y217900D02*
Y227897D01*
X465595Y217900D01*
Y227897D01*
X457265D02*
X460597D01*
X462263Y226231D01*
Y219566D01*
X460597Y217900D01*
X457265D01*
X455598Y219566D01*
Y226231D01*
X457265Y227897D01*
D14*
X412496Y241554D02*
X415544D01*
X412496Y252222D02*
X415544D01*
X562356Y112014D02*
X565404D01*
X562356Y101346D02*
X565404D01*
X511556Y112014D02*
X514604D01*
X511556Y101346D02*
X514604D01*
X460756Y112014D02*
X463804D01*
X460756Y101346D02*
X463804D01*
X376174Y237744D02*
Y240792D01*
X365506Y237744D02*
Y240792D01*
X331216Y241046D02*
X334264D01*
X331216Y251714D02*
X334264D01*
X294894Y237236D02*
Y240284D01*
X284226Y237236D02*
Y240284D01*
X244856Y241046D02*
X247904D01*
X244856Y251714D02*
X247904D01*
X208534Y237236D02*
Y240284D01*
X197866Y237236D02*
Y240284D01*
X158496Y241046D02*
X161544D01*
X158496Y251714D02*
X161544D01*
X122174Y237236D02*
Y240284D01*
X111506Y237236D02*
Y240284D01*
X262620Y220439D02*
X263619Y221439D01*
X265619D01*
X266618Y220439D01*
Y216441D01*
X265619Y215441D01*
X263619D01*
X262620Y216441D01*
X260620Y220439D02*
X259621Y221439D01*
X257621D01*
X256622Y220439D01*
Y219440D01*
X257621Y218440D01*
X256622Y217440D01*
Y216441D01*
X257621Y215441D01*
X259621D01*
X260620Y216441D01*
Y217440D01*
X259621Y218440D01*
X260620Y219440D01*
Y220439D01*
X259621Y218440D02*
X257621D01*
X348980Y220439D02*
X349979Y221439D01*
X351979D01*
X352978Y220439D01*
Y216441D01*
X351979Y215441D01*
X349979D01*
X348980Y216441D01*
X346980Y221439D02*
X342982D01*
Y220439D01*
X346980Y216441D01*
Y215441D01*
X173720Y220439D02*
X174719Y221439D01*
X176719D01*
X177718Y220439D01*
Y216441D01*
X176719Y215441D01*
X174719D01*
X173720Y216441D01*
X167722Y221439D02*
X169721Y220439D01*
X171720Y218440D01*
Y216441D01*
X170721Y215441D01*
X168721D01*
X167722Y216441D01*
Y217440D01*
X168721Y218440D01*
X171720D01*
X430260Y220439D02*
X431259Y221439D01*
X433259D01*
X434258Y220439D01*
Y216441D01*
X433259Y215441D01*
X431259D01*
X430260Y216441D01*
X424262Y221439D02*
X428260D01*
Y218440D01*
X426261Y219440D01*
X425261D01*
X424262Y218440D01*
Y216441D01*
X425261Y215441D01*
X427261D01*
X428260Y216441D01*
X252878Y256081D02*
Y262079D01*
X249879D01*
X248879Y261079D01*
Y259080D01*
X249879Y258080D01*
X252878D01*
X250879D02*
X248879Y256081D01*
X246880D02*
X244881D01*
X245880D01*
Y262079D01*
X246880Y261079D01*
X241882Y256081D02*
X239882D01*
X240882D01*
Y262079D01*
X241882Y261079D01*
X210697Y256081D02*
Y262079D01*
X207698D01*
X206699Y261079D01*
Y259080D01*
X207698Y258080D01*
X210697D01*
X208698D02*
X206699Y256081D01*
X204699D02*
X202700D01*
X203700D01*
Y262079D01*
X204699Y261079D01*
X199701D02*
X198701Y262079D01*
X196702D01*
X195702Y261079D01*
Y257081D01*
X196702Y256081D01*
X198701D01*
X199701Y257081D01*
Y261079D01*
X335198Y256081D02*
Y262079D01*
X332199D01*
X331200Y261079D01*
Y259080D01*
X332199Y258080D01*
X335198D01*
X333199D02*
X331200Y256081D01*
X329200Y257081D02*
X328201Y256081D01*
X326201D01*
X325202Y257081D01*
Y261079D01*
X326201Y262079D01*
X328201D01*
X329200Y261079D01*
Y260080D01*
X328201Y259080D01*
X325202D01*
X279859Y246298D02*
X273861D01*
Y243299D01*
X274861Y242300D01*
X276860D01*
X277860Y243299D01*
Y246298D01*
Y244299D02*
X279859Y242300D01*
X274861Y240300D02*
X273861Y239301D01*
Y237301D01*
X274861Y236302D01*
X275860D01*
X276860Y237301D01*
X277860Y236302D01*
X278859D01*
X279859Y237301D01*
Y239301D01*
X278859Y240300D01*
X277860D01*
X276860Y239301D01*
X275860Y240300D01*
X274861D01*
X276860Y239301D02*
Y237301D01*
X165018Y256081D02*
Y262079D01*
X162019D01*
X161020Y261079D01*
Y259080D01*
X162019Y258080D01*
X165018D01*
X163019D02*
X161020Y256081D01*
X159020Y262079D02*
X155022D01*
Y261079D01*
X159020Y257081D01*
Y256081D01*
X131998D02*
Y262079D01*
X128999D01*
X128000Y261079D01*
Y259080D01*
X128999Y258080D01*
X131998D01*
X129999D02*
X128000Y256081D01*
X122002Y262079D02*
X124001Y261079D01*
X126000Y259080D01*
Y257081D01*
X125001Y256081D01*
X123001D01*
X122002Y257081D01*
Y258080D01*
X123001Y259080D01*
X126000D01*
X413938Y258621D02*
Y264619D01*
X410939D01*
X409940Y263619D01*
Y261620D01*
X410939Y260620D01*
X413938D01*
X411939D02*
X409940Y258621D01*
X403942Y264619D02*
X407940D01*
Y261620D01*
X405941Y262620D01*
X404941D01*
X403942Y261620D01*
Y259621D01*
X404941Y258621D01*
X406941D01*
X407940Y259621D01*
X385998Y256081D02*
Y262079D01*
X382999D01*
X382000Y261079D01*
Y259080D01*
X382999Y258080D01*
X385998D01*
X383999D02*
X382000Y256081D01*
X377001D02*
Y262079D01*
X380000Y259080D01*
X376002D01*
X558718Y118921D02*
Y124919D01*
X555719D01*
X554720Y123919D01*
Y121920D01*
X555719Y120920D01*
X558718D01*
X556719D02*
X554720Y118921D01*
X552720Y123919D02*
X551721Y124919D01*
X549721D01*
X548722Y123919D01*
Y122920D01*
X549721Y121920D01*
X550721D01*
X549721D01*
X548722Y120920D01*
Y119921D01*
X549721Y118921D01*
X551721D01*
X552720Y119921D01*
X510458Y118921D02*
Y124919D01*
X507459D01*
X506460Y123919D01*
Y121920D01*
X507459Y120920D01*
X510458D01*
X508459D02*
X506460Y118921D01*
X500462D02*
X504460D01*
X500462Y122920D01*
Y123919D01*
X501461Y124919D01*
X503461D01*
X504460Y123919D01*
X458659Y118921D02*
Y124919D01*
X455660D01*
X454660Y123919D01*
Y121920D01*
X455660Y120920D01*
X458659D01*
X456659D02*
X454660Y118921D01*
X452661D02*
X450661D01*
X451661D01*
Y124919D01*
X452661Y123919D01*
M02*
