G04*
G04 #@! TF.GenerationSoftware,Altium Limited,Altium Designer,21.6.1 (37)*
G04*
G04 Layer_Color=16711935*
%FSLAX44Y44*%
%MOMM*%
G71*
G04*
G04 #@! TF.SameCoordinates,45D27BC1-988F-4E8A-9F01-A3EFFFD16F67*
G04*
G04*
G04 #@! TF.FilePolarity,Negative*
G04*
G01*
G75*
%ADD24C,1.7032*%
%ADD25C,2.5032*%
%ADD26C,1.6312*%
%ADD27O,1.7272X3.2512*%
%ADD28R,1.7032X1.7032*%
%ADD29C,0.8032*%
G04:AMPARAMS|DCode=40|XSize=0.88mm|YSize=0.98mm|CornerRadius=0.24mm|HoleSize=0mm|Usage=FLASHONLY|Rotation=180.000|XOffset=0mm|YOffset=0mm|HoleType=Round|Shape=RoundedRectangle|*
%AMROUNDEDRECTD40*
21,1,0.8800,0.5000,0,0,180.0*
21,1,0.4000,0.9800,0,0,180.0*
1,1,0.4800,-0.2000,0.2500*
1,1,0.4800,0.2000,0.2500*
1,1,0.4800,0.2000,-0.2500*
1,1,0.4800,-0.2000,-0.2500*
%
%ADD40ROUNDEDRECTD40*%
G04:AMPARAMS|DCode=41|XSize=0.8032mm|YSize=0.7432mm|CornerRadius=0.2447mm|HoleSize=0mm|Usage=FLASHONLY|Rotation=90.000|XOffset=0mm|YOffset=0mm|HoleType=Round|Shape=RoundedRectangle|*
%AMROUNDEDRECTD41*
21,1,0.8032,0.2538,0,0,90.0*
21,1,0.3138,0.7432,0,0,90.0*
1,1,0.4894,0.1269,0.1569*
1,1,0.4894,0.1269,-0.1569*
1,1,0.4894,-0.1269,-0.1569*
1,1,0.4894,-0.1269,0.1569*
%
%ADD41ROUNDEDRECTD41*%
G04:AMPARAMS|DCode=42|XSize=0.88mm|YSize=0.98mm|CornerRadius=0.24mm|HoleSize=0mm|Usage=FLASHONLY|Rotation=270.000|XOffset=0mm|YOffset=0mm|HoleType=Round|Shape=RoundedRectangle|*
%AMROUNDEDRECTD42*
21,1,0.8800,0.5000,0,0,270.0*
21,1,0.4000,0.9800,0,0,270.0*
1,1,0.4800,-0.2500,-0.2000*
1,1,0.4800,-0.2500,0.2000*
1,1,0.4800,0.2500,0.2000*
1,1,0.4800,0.2500,-0.2000*
%
%ADD42ROUNDEDRECTD42*%
D24*
X411480Y508000D02*
D03*
X436880D02*
D03*
X462280D02*
D03*
X487680D02*
D03*
X513080D02*
D03*
X538480D02*
D03*
X563880D02*
D03*
X589280D02*
D03*
X370840D02*
D03*
X345440D02*
D03*
X294640D02*
D03*
X269240D02*
D03*
X243840D02*
D03*
X218440D02*
D03*
X193040D02*
D03*
X167640D02*
D03*
X142240D02*
D03*
X320040D02*
D03*
X589280Y25400D02*
D03*
X563880D02*
D03*
X538480D02*
D03*
X513080D02*
D03*
X487680D02*
D03*
X462280D02*
D03*
X233680D02*
D03*
X259080D02*
D03*
X284480D02*
D03*
X309880D02*
D03*
X335280D02*
D03*
X360680D02*
D03*
X386080D02*
D03*
X411480D02*
D03*
X612140Y276860D02*
D03*
Y251460D02*
D03*
Y226060D02*
D03*
Y200660D02*
D03*
Y175260D02*
D03*
Y149860D02*
D03*
Y124460D02*
D03*
D25*
X106680Y328420D02*
D03*
Y448820D02*
D03*
D26*
X133780Y376120D02*
D03*
Y401120D02*
D03*
X153780D02*
D03*
Y376120D02*
D03*
D27*
X248666Y162052D02*
D03*
X203454D02*
D03*
X248666Y97028D02*
D03*
X203454D02*
D03*
X416306Y162560D02*
D03*
X371094D02*
D03*
X416306Y97536D02*
D03*
X371094D02*
D03*
X162306Y162052D02*
D03*
X117094D02*
D03*
X162306Y97028D02*
D03*
X117094D02*
D03*
X335026Y162052D02*
D03*
X289814D02*
D03*
X335026Y97028D02*
D03*
X289814D02*
D03*
D28*
X612140Y302260D02*
D03*
D29*
X271780Y287020D02*
D03*
X312420Y401320D02*
D03*
X302260Y388620D02*
D03*
X271780Y391160D02*
D03*
X251460Y381000D02*
D03*
X182880Y68580D02*
D03*
X439420Y147320D02*
D03*
X571500Y132200D02*
D03*
X520700D02*
D03*
X469900D02*
D03*
D40*
X421520Y246888D02*
D03*
X406520D02*
D03*
X556380Y106680D02*
D03*
X571380D02*
D03*
X505580D02*
D03*
X520580D02*
D03*
X454780D02*
D03*
X469780D02*
D03*
X340240Y246380D02*
D03*
X325240D02*
D03*
X253880D02*
D03*
X238880D02*
D03*
X167520D02*
D03*
X152520D02*
D03*
D41*
X155720Y228600D02*
D03*
X164320D02*
D03*
X242080D02*
D03*
X250680D02*
D03*
X409720Y229108D02*
D03*
X418320D02*
D03*
X328440Y228600D02*
D03*
X337040D02*
D03*
D42*
X370840Y246768D02*
D03*
Y231768D02*
D03*
X289560Y246260D02*
D03*
Y231260D02*
D03*
X203200Y246260D02*
D03*
Y231260D02*
D03*
X116840Y246260D02*
D03*
Y231260D02*
D03*
M02*
