G04*
G04 #@! TF.GenerationSoftware,Altium Limited,Altium Designer,21.6.1 (37)*
G04*
G04 Layer_Color=12632256*
%FSLAX44Y44*%
%MOMM*%
G71*
G04*
G04 #@! TF.SameCoordinates,45D27BC1-988F-4E8A-9F01-A3EFFFD16F67*
G04*
G04*
G04 #@! TF.FilePolarity,Positive*
G04*
G01*
G75*
%ADD31C,1.5000*%
%ADD32C,2.3000*%
%ADD33C,1.4280*%
%ADD34O,1.5240X3.0480*%
%ADD35R,1.5000X1.5000*%
D31*
X411480Y508000D02*
D03*
X436880D02*
D03*
X462280D02*
D03*
X487680D02*
D03*
X513080D02*
D03*
X538480D02*
D03*
X563880D02*
D03*
X589280D02*
D03*
X370840D02*
D03*
X345440D02*
D03*
X294640D02*
D03*
X269240D02*
D03*
X243840D02*
D03*
X218440D02*
D03*
X193040D02*
D03*
X167640D02*
D03*
X142240D02*
D03*
X320040D02*
D03*
X589280Y25400D02*
D03*
X563880D02*
D03*
X538480D02*
D03*
X513080D02*
D03*
X487680D02*
D03*
X462280D02*
D03*
X233680D02*
D03*
X259080D02*
D03*
X284480D02*
D03*
X309880D02*
D03*
X335280D02*
D03*
X360680D02*
D03*
X386080D02*
D03*
X411480D02*
D03*
X612140Y276860D02*
D03*
Y251460D02*
D03*
Y226060D02*
D03*
Y200660D02*
D03*
Y175260D02*
D03*
Y149860D02*
D03*
Y124460D02*
D03*
D32*
X106680Y328420D02*
D03*
Y448820D02*
D03*
D33*
X133780Y376120D02*
D03*
Y401120D02*
D03*
X153780D02*
D03*
Y376120D02*
D03*
D34*
X248666Y162052D02*
D03*
X203454D02*
D03*
X248666Y97028D02*
D03*
X203454D02*
D03*
X416306Y162560D02*
D03*
X371094D02*
D03*
X416306Y97536D02*
D03*
X371094D02*
D03*
X162306Y162052D02*
D03*
X117094D02*
D03*
X162306Y97028D02*
D03*
X117094D02*
D03*
X335026Y162052D02*
D03*
X289814D02*
D03*
X335026Y97028D02*
D03*
X289814D02*
D03*
D35*
X612140Y302260D02*
D03*
M02*
