G04*
G04 #@! TF.GenerationSoftware,Altium Limited,Altium Designer,21.6.1 (37)*
G04*
G04 Layer_Physical_Order=2*
G04 Layer_Color=152*
%FSLAX44Y44*%
%MOMM*%
G71*
G04*
G04 #@! TF.SameCoordinates,45D27BC1-988F-4E8A-9F01-A3EFFFD16F67*
G04*
G04*
G04 #@! TF.FilePolarity,Positive*
G04*
G01*
G75*
%ADD30C,0.2540*%
%ADD31C,1.5000*%
%ADD32C,2.3000*%
%ADD33C,1.4280*%
%ADD34O,1.5240X3.0480*%
%ADD35R,1.5000X1.5000*%
%ADD36C,0.6000*%
G04:AMPARAMS|DCode=37|XSize=0.8mm|YSize=0.9mm|CornerRadius=0.2mm|HoleSize=0mm|Usage=FLASHONLY|Rotation=180.000|XOffset=0mm|YOffset=0mm|HoleType=Round|Shape=RoundedRectangle|*
%AMROUNDEDRECTD37*
21,1,0.8000,0.5000,0,0,180.0*
21,1,0.4000,0.9000,0,0,180.0*
1,1,0.4000,-0.2000,0.2500*
1,1,0.4000,0.2000,0.2500*
1,1,0.4000,0.2000,-0.2500*
1,1,0.4000,-0.2000,-0.2500*
%
%ADD37ROUNDEDRECTD37*%
G04:AMPARAMS|DCode=38|XSize=0.6mm|YSize=0.54mm|CornerRadius=0.1431mm|HoleSize=0mm|Usage=FLASHONLY|Rotation=90.000|XOffset=0mm|YOffset=0mm|HoleType=Round|Shape=RoundedRectangle|*
%AMROUNDEDRECTD38*
21,1,0.6000,0.2538,0,0,90.0*
21,1,0.3138,0.5400,0,0,90.0*
1,1,0.2862,0.1269,0.1569*
1,1,0.2862,0.1269,-0.1569*
1,1,0.2862,-0.1269,-0.1569*
1,1,0.2862,-0.1269,0.1569*
%
%ADD38ROUNDEDRECTD38*%
G04:AMPARAMS|DCode=39|XSize=0.8mm|YSize=0.9mm|CornerRadius=0.2mm|HoleSize=0mm|Usage=FLASHONLY|Rotation=270.000|XOffset=0mm|YOffset=0mm|HoleType=Round|Shape=RoundedRectangle|*
%AMROUNDEDRECTD39*
21,1,0.8000,0.5000,0,0,270.0*
21,1,0.4000,0.9000,0,0,270.0*
1,1,0.4000,-0.2500,-0.2000*
1,1,0.4000,-0.2500,0.2000*
1,1,0.4000,0.2500,0.2000*
1,1,0.4000,0.2500,-0.2000*
%
%ADD39ROUNDEDRECTD39*%
G36*
X611831Y519520D02*
Y393700D01*
X611831Y393700D01*
X612048Y392610D01*
X612666Y391686D01*
X637231Y367120D01*
Y51980D01*
X612666Y27414D01*
X612048Y26490D01*
X611831Y25400D01*
X611831Y25400D01*
Y2849D01*
X82460D01*
X71429Y13880D01*
Y519520D01*
X82460Y530551D01*
X600800D01*
X611831Y519520D01*
D02*
G37*
%LPC*%
G36*
X108244Y525525D02*
X105116D01*
X104960Y525460D01*
X104795Y525493D01*
X101728Y524883D01*
X101587Y524789D01*
X101418D01*
X98529Y523592D01*
X98410Y523473D01*
X98244Y523440D01*
X95644Y521702D01*
X95550Y521562D01*
X95394Y521497D01*
X93183Y519286D01*
X93118Y519130D01*
X92978Y519036D01*
X91240Y516436D01*
X91207Y516270D01*
X91088Y516151D01*
X89891Y513262D01*
Y513093D01*
X89797Y512952D01*
X89187Y509885D01*
X89220Y509720D01*
X89155Y509563D01*
Y506436D01*
X89220Y506280D01*
X89187Y506115D01*
X89797Y503048D01*
X89891Y502907D01*
Y502738D01*
X91088Y499849D01*
X91207Y499730D01*
X91240Y499564D01*
X92978Y496964D01*
X93118Y496870D01*
X93183Y496714D01*
X95394Y494503D01*
X95550Y494438D01*
X95644Y494297D01*
X98244Y492560D01*
X98410Y492527D01*
X98529Y492408D01*
X101418Y491211D01*
X101587D01*
X101728Y491117D01*
X104795Y490507D01*
X104960Y490540D01*
X105116Y490475D01*
X108244D01*
X108400Y490540D01*
X108565Y490507D01*
X111632Y491117D01*
X111773Y491211D01*
X111942D01*
X114831Y492408D01*
X114950Y492527D01*
X115116Y492560D01*
X117716Y494297D01*
X117810Y494438D01*
X117966Y494503D01*
X120177Y496714D01*
X120242Y496870D01*
X120382Y496964D01*
X122120Y499564D01*
X122153Y499730D01*
X122272Y499849D01*
X123469Y502738D01*
Y502907D01*
X123563Y503048D01*
X124173Y506115D01*
X124140Y506280D01*
X124205Y506436D01*
Y509563D01*
X124140Y509720D01*
X124173Y509885D01*
X123563Y512952D01*
X123469Y513093D01*
Y513262D01*
X122272Y516151D01*
X122153Y516270D01*
X122120Y516436D01*
X120382Y519036D01*
X120242Y519130D01*
X120177Y519286D01*
X117966Y521497D01*
X117810Y521562D01*
X117716Y521702D01*
X115116Y523440D01*
X114950Y523473D01*
X114831Y523592D01*
X111942Y524789D01*
X111773D01*
X111632Y524883D01*
X108565Y525493D01*
X108400Y525460D01*
X108244Y525525D01*
D02*
G37*
G36*
X219762Y518040D02*
X219710D01*
Y509270D01*
X228480D01*
Y509322D01*
X227796Y511875D01*
X226474Y514165D01*
X224605Y516034D01*
X222315Y517356D01*
X219762Y518040D01*
D02*
G37*
G36*
X217170D02*
X217118D01*
X214565Y517356D01*
X212275Y516034D01*
X210406Y514165D01*
X209084Y511875D01*
X208400Y509322D01*
Y509270D01*
X217170D01*
Y518040D01*
D02*
G37*
G36*
X590468Y517024D02*
X588092D01*
X585797Y516409D01*
X583739Y515221D01*
X582059Y513541D01*
X580871Y511483D01*
X580256Y509188D01*
Y506812D01*
X580871Y504517D01*
X582059Y502459D01*
X583739Y500779D01*
X585797Y499591D01*
X588092Y498976D01*
X590468D01*
X592763Y499591D01*
X594821Y500779D01*
X596501Y502459D01*
X597689Y504517D01*
X598304Y506812D01*
Y509188D01*
X597689Y511483D01*
X596501Y513541D01*
X594821Y515221D01*
X592763Y516409D01*
X590468Y517024D01*
D02*
G37*
G36*
X565068D02*
X562692D01*
X560397Y516409D01*
X558339Y515221D01*
X556659Y513541D01*
X555471Y511483D01*
X554856Y509188D01*
Y506812D01*
X555471Y504517D01*
X556659Y502459D01*
X558339Y500779D01*
X560397Y499591D01*
X562692Y498976D01*
X565068D01*
X567363Y499591D01*
X569421Y500779D01*
X571101Y502459D01*
X572289Y504517D01*
X572904Y506812D01*
Y509188D01*
X572289Y511483D01*
X571101Y513541D01*
X569421Y515221D01*
X567363Y516409D01*
X565068Y517024D01*
D02*
G37*
G36*
X539668D02*
X537292D01*
X534997Y516409D01*
X532939Y515221D01*
X531259Y513541D01*
X530071Y511483D01*
X529456Y509188D01*
Y506812D01*
X530071Y504517D01*
X531259Y502459D01*
X532939Y500779D01*
X534997Y499591D01*
X537292Y498976D01*
X539668D01*
X541963Y499591D01*
X544021Y500779D01*
X545701Y502459D01*
X546889Y504517D01*
X547504Y506812D01*
Y509188D01*
X546889Y511483D01*
X545701Y513541D01*
X544021Y515221D01*
X541963Y516409D01*
X539668Y517024D01*
D02*
G37*
G36*
X514268D02*
X511892D01*
X509597Y516409D01*
X507539Y515221D01*
X505859Y513541D01*
X504671Y511483D01*
X504056Y509188D01*
Y506812D01*
X504671Y504517D01*
X505859Y502459D01*
X507539Y500779D01*
X509597Y499591D01*
X511892Y498976D01*
X514268D01*
X516563Y499591D01*
X518621Y500779D01*
X520301Y502459D01*
X521489Y504517D01*
X522104Y506812D01*
Y509188D01*
X521489Y511483D01*
X520301Y513541D01*
X518621Y515221D01*
X516563Y516409D01*
X514268Y517024D01*
D02*
G37*
G36*
X488868D02*
X486492D01*
X484197Y516409D01*
X482139Y515221D01*
X480459Y513541D01*
X479271Y511483D01*
X478656Y509188D01*
Y506812D01*
X479271Y504517D01*
X480459Y502459D01*
X482139Y500779D01*
X484197Y499591D01*
X486492Y498976D01*
X488868D01*
X491163Y499591D01*
X493221Y500779D01*
X494901Y502459D01*
X496089Y504517D01*
X496704Y506812D01*
Y509188D01*
X496089Y511483D01*
X494901Y513541D01*
X493221Y515221D01*
X491163Y516409D01*
X488868Y517024D01*
D02*
G37*
G36*
X463468D02*
X461092D01*
X458797Y516409D01*
X456739Y515221D01*
X455059Y513541D01*
X453871Y511483D01*
X453256Y509188D01*
Y506812D01*
X453871Y504517D01*
X455059Y502459D01*
X456739Y500779D01*
X458797Y499591D01*
X461092Y498976D01*
X463468D01*
X465763Y499591D01*
X467821Y500779D01*
X469501Y502459D01*
X470689Y504517D01*
X471304Y506812D01*
Y509188D01*
X470689Y511483D01*
X469501Y513541D01*
X467821Y515221D01*
X465763Y516409D01*
X463468Y517024D01*
D02*
G37*
G36*
X438068D02*
X435692D01*
X433397Y516409D01*
X431339Y515221D01*
X429659Y513541D01*
X428471Y511483D01*
X427856Y509188D01*
Y506812D01*
X428471Y504517D01*
X429659Y502459D01*
X431339Y500779D01*
X433397Y499591D01*
X435692Y498976D01*
X438068D01*
X440363Y499591D01*
X442421Y500779D01*
X444101Y502459D01*
X445289Y504517D01*
X445904Y506812D01*
Y509188D01*
X445289Y511483D01*
X444101Y513541D01*
X442421Y515221D01*
X440363Y516409D01*
X438068Y517024D01*
D02*
G37*
G36*
X372028D02*
X369652D01*
X367357Y516409D01*
X365299Y515221D01*
X363619Y513541D01*
X362431Y511483D01*
X361816Y509188D01*
Y506812D01*
X362431Y504517D01*
X363619Y502459D01*
X365299Y500779D01*
X367357Y499591D01*
X369652Y498976D01*
X372028D01*
X374323Y499591D01*
X376381Y500779D01*
X378061Y502459D01*
X379249Y504517D01*
X379864Y506812D01*
Y509188D01*
X379249Y511483D01*
X378061Y513541D01*
X376381Y515221D01*
X374323Y516409D01*
X372028Y517024D01*
D02*
G37*
G36*
X295828D02*
X293452D01*
X291157Y516409D01*
X289099Y515221D01*
X287419Y513541D01*
X286231Y511483D01*
X285616Y509188D01*
Y506812D01*
X286231Y504517D01*
X287419Y502459D01*
X289099Y500779D01*
X291157Y499591D01*
X293452Y498976D01*
X295828D01*
X298123Y499591D01*
X300181Y500779D01*
X301861Y502459D01*
X303049Y504517D01*
X303664Y506812D01*
Y509188D01*
X303049Y511483D01*
X301861Y513541D01*
X300181Y515221D01*
X298123Y516409D01*
X295828Y517024D01*
D02*
G37*
G36*
X194228D02*
X191852D01*
X189557Y516409D01*
X187499Y515221D01*
X185819Y513541D01*
X184631Y511483D01*
X184016Y509188D01*
Y506812D01*
X184631Y504517D01*
X185819Y502459D01*
X187499Y500779D01*
X189557Y499591D01*
X191852Y498976D01*
X194228D01*
X196523Y499591D01*
X198581Y500779D01*
X200261Y502459D01*
X201449Y504517D01*
X202064Y506812D01*
Y509188D01*
X201449Y511483D01*
X200261Y513541D01*
X198581Y515221D01*
X196523Y516409D01*
X194228Y517024D01*
D02*
G37*
G36*
X228480Y506730D02*
X219710D01*
Y497960D01*
X219762D01*
X222315Y498644D01*
X224605Y499966D01*
X226474Y501835D01*
X227796Y504125D01*
X228480Y506678D01*
Y506730D01*
D02*
G37*
G36*
X217170D02*
X208400D01*
Y506678D01*
X209084Y504125D01*
X210406Y501835D01*
X212275Y499966D01*
X214565Y498644D01*
X217118Y497960D01*
X217170D01*
Y506730D01*
D02*
G37*
G36*
X108395Y461844D02*
X104965D01*
X101653Y460956D01*
X98683Y459242D01*
X96258Y456817D01*
X94544Y453847D01*
X93656Y450535D01*
Y447105D01*
X94544Y443793D01*
X96258Y440823D01*
X98683Y438398D01*
X101653Y436684D01*
X104965Y435796D01*
X108395D01*
X111707Y436684D01*
X114677Y438398D01*
X117102Y440823D01*
X118816Y443793D01*
X119704Y447105D01*
Y450535D01*
X118816Y453847D01*
X117102Y456817D01*
X114677Y459242D01*
X111707Y460956D01*
X108395Y461844D01*
D02*
G37*
G36*
X175260Y419409D02*
X175260Y419409D01*
X136108D01*
X136108Y419409D01*
X135018Y419192D01*
X134094Y418574D01*
X134094Y418574D01*
X131766Y416246D01*
X131148Y415322D01*
X130931Y414232D01*
X130931Y414232D01*
Y409326D01*
X130436Y409193D01*
X128460Y408053D01*
X126847Y406440D01*
X125707Y404464D01*
X125116Y402261D01*
Y399979D01*
X125707Y397776D01*
X126847Y395800D01*
X128460Y394187D01*
X130436Y393046D01*
X132639Y392456D01*
X134921D01*
X137124Y393046D01*
X139100Y394187D01*
X140713Y395800D01*
X141854Y397776D01*
X142444Y399979D01*
Y402261D01*
X141854Y404464D01*
X140713Y406440D01*
X139100Y408053D01*
X137124Y409193D01*
X136629Y409326D01*
Y413052D01*
X137288Y413711D01*
X174080D01*
X182353Y405439D01*
X181826Y404169D01*
X161933D01*
X161854Y404464D01*
X160713Y406440D01*
X159100Y408053D01*
X157124Y409193D01*
X154921Y409784D01*
X152639D01*
X150436Y409193D01*
X148460Y408053D01*
X146847Y406440D01*
X145707Y404464D01*
X145116Y402261D01*
Y399979D01*
X145707Y397776D01*
X146847Y395800D01*
X148460Y394187D01*
X150436Y393046D01*
X152639Y392456D01*
X154921D01*
X157124Y393046D01*
X159100Y394187D01*
X160713Y395800D01*
X161854Y397776D01*
X162040Y398471D01*
X181700D01*
X206266Y373906D01*
X206266Y373906D01*
X207190Y373288D01*
X208280Y373071D01*
X208280Y373071D01*
X246380D01*
X246380Y373071D01*
X247470Y373288D01*
X248394Y373906D01*
X250965Y376476D01*
X252360D01*
X254023Y377165D01*
X255295Y378437D01*
X255984Y380100D01*
Y381900D01*
X255295Y383563D01*
X254023Y384835D01*
X252360Y385524D01*
X250560D01*
X248897Y384835D01*
X247625Y383563D01*
X246936Y381900D01*
Y380505D01*
X245200Y378769D01*
X209460D01*
X201187Y387041D01*
X201714Y388311D01*
X268231D01*
X269217Y387325D01*
X270880Y386636D01*
X272680D01*
X274343Y387325D01*
X275615Y388597D01*
X276304Y390260D01*
Y392060D01*
X275615Y393723D01*
X274343Y394995D01*
X272680Y395684D01*
X270880D01*
X269217Y394995D01*
X268231Y394009D01*
X201840D01*
X177274Y418574D01*
X176350Y419192D01*
X175260Y419409D01*
D02*
G37*
G36*
X270428Y517024D02*
X268052D01*
X265757Y516409D01*
X263699Y515221D01*
X262019Y513541D01*
X260831Y511483D01*
X260216Y509188D01*
Y506812D01*
X260831Y504517D01*
X262019Y502459D01*
X263699Y500779D01*
X265757Y499591D01*
X266391Y499421D01*
Y454660D01*
X266391Y454660D01*
X266608Y453570D01*
X267226Y452646D01*
X309571Y410300D01*
Y404869D01*
X308585Y403883D01*
X307896Y402220D01*
Y400420D01*
X308585Y398757D01*
X309857Y397485D01*
X311520Y396796D01*
X313320D01*
X314983Y397485D01*
X316255Y398757D01*
X316944Y400420D01*
Y402220D01*
X316255Y403883D01*
X315269Y404869D01*
Y411480D01*
X315269Y411480D01*
X315052Y412570D01*
X314434Y413494D01*
X272089Y455840D01*
Y499421D01*
X272723Y499591D01*
X274781Y500779D01*
X276461Y502459D01*
X277649Y504517D01*
X278264Y506812D01*
Y509188D01*
X277649Y511483D01*
X276461Y513541D01*
X274781Y515221D01*
X272723Y516409D01*
X270428Y517024D01*
D02*
G37*
G36*
X321228D02*
X318852D01*
X316557Y516409D01*
X314499Y515221D01*
X312819Y513541D01*
X311631Y511483D01*
X311016Y509188D01*
Y506812D01*
X311631Y504517D01*
X312819Y502459D01*
X314499Y500779D01*
X316557Y499591D01*
X318852Y498976D01*
X319731D01*
Y299848D01*
X304672Y284789D01*
X291048D01*
X289958Y284572D01*
X289034Y283954D01*
X289033Y283954D01*
X288599Y283520D01*
X287329Y284046D01*
Y418851D01*
X288502Y419337D01*
X299411Y408427D01*
Y392169D01*
X298425Y391183D01*
X297736Y389520D01*
Y387720D01*
X298425Y386057D01*
X299697Y384785D01*
X301360Y384096D01*
X303160D01*
X304823Y384785D01*
X306095Y386057D01*
X306784Y387720D01*
Y389520D01*
X306095Y391183D01*
X305109Y392169D01*
Y409607D01*
X304892Y410698D01*
X304274Y411622D01*
X304274Y411622D01*
X246689Y469207D01*
Y499421D01*
X247323Y499591D01*
X249381Y500779D01*
X251061Y502459D01*
X252249Y504517D01*
X252864Y506812D01*
Y509188D01*
X252249Y511483D01*
X251061Y513541D01*
X249381Y515221D01*
X247323Y516409D01*
X245028Y517024D01*
X242652D01*
X240357Y516409D01*
X238299Y515221D01*
X236619Y513541D01*
X235431Y511483D01*
X234816Y509188D01*
Y506812D01*
X235431Y504517D01*
X236619Y502459D01*
X238299Y500779D01*
X240357Y499591D01*
X240991Y499421D01*
Y468027D01*
X240991Y468027D01*
X241208Y466937D01*
X241826Y466013D01*
X277097Y430742D01*
X276611Y429569D01*
X170489D01*
Y499421D01*
X171123Y499591D01*
X173181Y500779D01*
X174861Y502459D01*
X176049Y504517D01*
X176664Y506812D01*
Y509188D01*
X176049Y511483D01*
X174861Y513541D01*
X173181Y515221D01*
X171123Y516409D01*
X168828Y517024D01*
X166452D01*
X164157Y516409D01*
X162099Y515221D01*
X160419Y513541D01*
X159231Y511483D01*
X158616Y509188D01*
Y506812D01*
X159231Y504517D01*
X160419Y502459D01*
X162099Y500779D01*
X164157Y499591D01*
X164791Y499421D01*
Y428208D01*
X164791Y428208D01*
X165008Y427118D01*
X165626Y426194D01*
X167113Y424706D01*
X167113Y424706D01*
X168038Y424088D01*
X169128Y423871D01*
X278220D01*
X281631Y420460D01*
Y274629D01*
X222468D01*
X221378Y274412D01*
X220453Y273794D01*
X220453Y273794D01*
X218966Y272306D01*
X218348Y271382D01*
X218131Y270292D01*
X218131Y270292D01*
Y249229D01*
X215900D01*
X215900Y249229D01*
X215297Y249109D01*
X209124D01*
X209020Y249635D01*
X208241Y250801D01*
X207075Y251579D01*
X205700Y251853D01*
X200700D01*
X199325Y251579D01*
X198159Y250801D01*
X197380Y249635D01*
X197107Y248260D01*
Y244260D01*
X197380Y242885D01*
X198159Y241719D01*
X199325Y240940D01*
X200700Y240667D01*
X205700D01*
X207075Y240940D01*
X208241Y241719D01*
X209020Y242885D01*
X209124Y243411D01*
X215780D01*
X215780Y243411D01*
X216383Y243531D01*
X219492D01*
X219492Y243531D01*
X220582Y243748D01*
X221507Y244366D01*
X222994Y245854D01*
X222994Y245854D01*
X223612Y246778D01*
X223829Y247868D01*
Y268931D01*
X282992D01*
X282992Y268931D01*
X284082Y269148D01*
X285007Y269766D01*
X285441Y270200D01*
X286711Y269674D01*
Y251784D01*
X285685Y251579D01*
X284519Y250801D01*
X283740Y249635D01*
X283467Y248260D01*
Y244260D01*
X283740Y242885D01*
X284519Y241719D01*
X285685Y240940D01*
X287060Y240667D01*
X292060D01*
X293435Y240940D01*
X294601Y241719D01*
X295380Y242885D01*
X295653Y244260D01*
Y248260D01*
X295380Y249635D01*
X294601Y250801D01*
X293435Y251579D01*
X292409Y251784D01*
Y279091D01*
X305852D01*
X305852Y279091D01*
X306942Y279308D01*
X307866Y279926D01*
X324594Y296653D01*
X324594Y296653D01*
X325212Y297578D01*
X325429Y298668D01*
Y500282D01*
X325356Y500649D01*
X325581Y500779D01*
X327261Y502459D01*
X328449Y504517D01*
X329064Y506812D01*
Y509188D01*
X328449Y511483D01*
X327261Y513541D01*
X325581Y515221D01*
X323523Y516409D01*
X321228Y517024D01*
D02*
G37*
G36*
X135054Y385800D02*
X135050D01*
Y377390D01*
X143460D01*
Y377394D01*
X142800Y379856D01*
X141526Y382064D01*
X139724Y383866D01*
X137516Y385140D01*
X135054Y385800D01*
D02*
G37*
G36*
X132510D02*
X132506D01*
X130044Y385140D01*
X127836Y383866D01*
X126034Y382064D01*
X124760Y379856D01*
X124100Y377394D01*
Y377390D01*
X132510D01*
Y385800D01*
D02*
G37*
G36*
X616244Y373125D02*
X613116D01*
X612960Y373060D01*
X612795Y373093D01*
X609728Y372483D01*
X609587Y372389D01*
X609418D01*
X606529Y371192D01*
X606410Y371073D01*
X606244Y371040D01*
X603644Y369302D01*
X603550Y369162D01*
X603394Y369097D01*
X601183Y366886D01*
X601118Y366730D01*
X600978Y366636D01*
X599240Y364036D01*
X599207Y363870D01*
X599088Y363751D01*
X597891Y360862D01*
Y360693D01*
X597797Y360552D01*
X597187Y357485D01*
X597220Y357320D01*
X597155Y357164D01*
Y354036D01*
X597220Y353880D01*
X597187Y353715D01*
X597797Y350648D01*
X597891Y350507D01*
Y350338D01*
X599088Y347449D01*
X599207Y347330D01*
X599240Y347164D01*
X600978Y344564D01*
X601118Y344470D01*
X601183Y344314D01*
X603394Y342103D01*
X603550Y342038D01*
X603644Y341898D01*
X606244Y340160D01*
X606410Y340127D01*
X606529Y340008D01*
X609418Y338811D01*
X609587D01*
X609728Y338717D01*
X612795Y338107D01*
X612960Y338140D01*
X613116Y338075D01*
X616244D01*
X616400Y338140D01*
X616565Y338107D01*
X619632Y338717D01*
X619773Y338811D01*
X619942D01*
X622831Y340008D01*
X622950Y340127D01*
X623116Y340160D01*
X625716Y341898D01*
X625810Y342038D01*
X625966Y342103D01*
X628177Y344314D01*
X628242Y344470D01*
X628382Y344564D01*
X630120Y347164D01*
X630153Y347330D01*
X630272Y347449D01*
X631469Y350338D01*
Y350507D01*
X631563Y350648D01*
X632173Y353715D01*
X632140Y353880D01*
X632205Y354036D01*
Y357164D01*
X632140Y357320D01*
X632173Y357485D01*
X631563Y360552D01*
X631469Y360693D01*
Y360862D01*
X630272Y363751D01*
X630153Y363870D01*
X630120Y364036D01*
X628382Y366636D01*
X628242Y366730D01*
X628177Y366886D01*
X625966Y369097D01*
X625810Y369162D01*
X625716Y369302D01*
X623116Y371040D01*
X622950Y371073D01*
X622831Y371192D01*
X619942Y372389D01*
X619773D01*
X619632Y372483D01*
X616565Y373093D01*
X616400Y373060D01*
X616244Y373125D01*
D02*
G37*
G36*
X154921Y384784D02*
X152639D01*
X150436Y384193D01*
X148460Y383053D01*
X146847Y381440D01*
X145707Y379464D01*
X145116Y377261D01*
Y374979D01*
X145707Y372776D01*
X146847Y370800D01*
X148460Y369187D01*
X150436Y368046D01*
X152639Y367456D01*
X154921D01*
X157124Y368046D01*
X159100Y369187D01*
X160713Y370800D01*
X161854Y372776D01*
X162444Y374979D01*
Y377261D01*
X161854Y379464D01*
X160713Y381440D01*
X159100Y383053D01*
X157124Y384193D01*
X154921Y384784D01*
D02*
G37*
G36*
X143460Y374850D02*
X135050D01*
Y366440D01*
X135054D01*
X137516Y367100D01*
X139724Y368374D01*
X141526Y370176D01*
X142800Y372384D01*
X143460Y374846D01*
Y374850D01*
D02*
G37*
G36*
X132510D02*
X124100D01*
Y374846D01*
X124760Y372384D01*
X126034Y370176D01*
X127836Y368374D01*
X130044Y367100D01*
X132506Y366440D01*
X132510D01*
Y374850D01*
D02*
G37*
G36*
X108395Y341444D02*
X104965D01*
X101653Y340556D01*
X98683Y338842D01*
X96258Y336417D01*
X94544Y333447D01*
X93656Y330135D01*
Y326705D01*
X94544Y323393D01*
X96258Y320423D01*
X98683Y317998D01*
X101653Y316283D01*
X104965Y315396D01*
X108395D01*
X111707Y316283D01*
X114677Y317998D01*
X117102Y320423D01*
X118816Y323393D01*
X119704Y326705D01*
Y330135D01*
X118816Y333447D01*
X117102Y336417D01*
X114677Y338842D01*
X111707Y340556D01*
X108395Y341444D01*
D02*
G37*
G36*
X621164Y311284D02*
X603116D01*
Y293236D01*
X621164D01*
Y311284D01*
D02*
G37*
G36*
X272680Y291544D02*
X270880D01*
X269217Y290855D01*
X268231Y289869D01*
X195580D01*
X195580Y289869D01*
X194490Y289652D01*
X193566Y289034D01*
X193566Y289034D01*
X180866Y276334D01*
X180248Y275410D01*
X180031Y274320D01*
X180031Y274320D01*
Y72129D01*
X179045Y71143D01*
X178356Y69480D01*
Y67680D01*
X179045Y66017D01*
X180317Y64745D01*
X181980Y64056D01*
X183780D01*
X185443Y64745D01*
X186715Y66017D01*
X187404Y67680D01*
Y69480D01*
X186715Y71143D01*
X185729Y72129D01*
Y273140D01*
X196760Y284171D01*
X268231D01*
X269217Y283185D01*
X270880Y282496D01*
X272680D01*
X274343Y283185D01*
X275615Y284457D01*
X276304Y286120D01*
Y287920D01*
X275615Y289583D01*
X274343Y290855D01*
X272680Y291544D01*
D02*
G37*
G36*
X613328Y285884D02*
X610952D01*
X608657Y285269D01*
X606599Y284081D01*
X604919Y282401D01*
X603731Y280343D01*
X603116Y278048D01*
Y275672D01*
X603731Y273377D01*
X604919Y271319D01*
X606599Y269639D01*
X608657Y268451D01*
X610952Y267836D01*
X613328D01*
X615623Y268451D01*
X617681Y269639D01*
X619361Y271319D01*
X620549Y273377D01*
X621164Y275672D01*
Y278048D01*
X620549Y280343D01*
X619361Y282401D01*
X617681Y284081D01*
X615623Y285269D01*
X613328Y285884D01*
D02*
G37*
G36*
X423520Y254017D02*
X422790D01*
Y248158D01*
X428149D01*
Y249388D01*
X427797Y251159D01*
X426793Y252661D01*
X425291Y253665D01*
X423520Y254017D01*
D02*
G37*
G36*
X420250D02*
X419520D01*
X417748Y253665D01*
X416247Y252661D01*
X415243Y251159D01*
X414891Y249388D01*
Y248158D01*
X420250D01*
Y254017D01*
D02*
G37*
G36*
X342240Y253509D02*
X341510D01*
Y247650D01*
X346869D01*
Y248880D01*
X346517Y250651D01*
X345513Y252153D01*
X344011Y253157D01*
X342240Y253509D01*
D02*
G37*
G36*
X255880D02*
X255150D01*
Y247650D01*
X260509D01*
Y248880D01*
X260157Y250651D01*
X259153Y252153D01*
X257651Y253157D01*
X255880Y253509D01*
D02*
G37*
G36*
X169520D02*
X168790D01*
Y247650D01*
X174149D01*
Y248880D01*
X173797Y250651D01*
X172793Y252153D01*
X171291Y253157D01*
X169520Y253509D01*
D02*
G37*
G36*
X338970D02*
X338240D01*
X336469Y253157D01*
X334967Y252153D01*
X333963Y250651D01*
X333611Y248880D01*
Y247650D01*
X338970D01*
Y253509D01*
D02*
G37*
G36*
X252610D02*
X251880D01*
X250109Y253157D01*
X248607Y252153D01*
X247603Y250651D01*
X247251Y248880D01*
Y247650D01*
X252610D01*
Y253509D01*
D02*
G37*
G36*
X166250D02*
X165520D01*
X163748Y253157D01*
X162247Y252153D01*
X161243Y250651D01*
X160891Y248880D01*
Y247650D01*
X166250D01*
Y253509D01*
D02*
G37*
G36*
X613328Y260484D02*
X610952D01*
X608657Y259869D01*
X606599Y258681D01*
X604919Y257001D01*
X603731Y254943D01*
X603116Y252648D01*
Y250272D01*
X603731Y247977D01*
X604919Y245919D01*
X606599Y244239D01*
X608657Y243051D01*
X610952Y242436D01*
X613328D01*
X615623Y243051D01*
X617681Y244239D01*
X619361Y245919D01*
X620549Y247977D01*
X621164Y250272D01*
Y252648D01*
X620549Y254943D01*
X619361Y257001D01*
X617681Y258681D01*
X615623Y259869D01*
X613328Y260484D01*
D02*
G37*
G36*
X346628Y517024D02*
X344252D01*
X341957Y516409D01*
X339899Y515221D01*
X338219Y513541D01*
X337031Y511483D01*
X336416Y509188D01*
Y506812D01*
X337031Y504517D01*
X338219Y502459D01*
X339899Y500779D01*
X341957Y499591D01*
X342591Y499421D01*
Y429260D01*
X342591Y429260D01*
X342808Y428170D01*
X343426Y427246D01*
X367991Y402680D01*
Y252292D01*
X366965Y252087D01*
X365799Y251309D01*
X365020Y250143D01*
X364747Y248768D01*
Y244768D01*
X365020Y243393D01*
X365799Y242227D01*
X366965Y241448D01*
X368340Y241175D01*
X373340D01*
X374715Y241448D01*
X375881Y242227D01*
X376660Y243393D01*
X376933Y244768D01*
Y248768D01*
X376660Y250143D01*
X375881Y251309D01*
X374715Y252087D01*
X373689Y252292D01*
Y403860D01*
X373689Y403860D01*
X373472Y404950D01*
X372854Y405874D01*
X372854Y405874D01*
X348289Y430440D01*
Y499421D01*
X348923Y499591D01*
X350981Y500779D01*
X352661Y502459D01*
X353849Y504517D01*
X354464Y506812D01*
Y509188D01*
X353849Y511483D01*
X352661Y513541D01*
X350981Y515221D01*
X348923Y516409D01*
X346628Y517024D01*
D02*
G37*
G36*
X143428D02*
X141052D01*
X138757Y516409D01*
X136699Y515221D01*
X135019Y513541D01*
X133831Y511483D01*
X133216Y509188D01*
Y506812D01*
X133831Y504517D01*
X135019Y502459D01*
X136699Y500779D01*
X138757Y499591D01*
X139391Y499421D01*
Y445680D01*
X112286Y418574D01*
X111668Y417650D01*
X111451Y416560D01*
X111451Y416560D01*
Y368300D01*
X111451Y368300D01*
X111668Y367210D01*
X112286Y366286D01*
X124151Y354420D01*
Y302177D01*
X114826Y292852D01*
X114208Y291927D01*
X113991Y290837D01*
X113991Y290837D01*
Y251784D01*
X112965Y251579D01*
X111799Y250801D01*
X111020Y249635D01*
X110747Y248260D01*
Y244260D01*
X111020Y242885D01*
X111799Y241719D01*
X112965Y240940D01*
X114340Y240667D01*
X119340D01*
X120715Y240940D01*
X121881Y241719D01*
X122660Y242885D01*
X122933Y244260D01*
Y248260D01*
X122660Y249635D01*
X121881Y250801D01*
X120715Y251579D01*
X119689Y251784D01*
Y289657D01*
X129014Y298983D01*
X129014Y298983D01*
X129632Y299907D01*
X129849Y300997D01*
Y355600D01*
X129849Y355600D01*
X129632Y356690D01*
X129014Y357614D01*
X129014Y357614D01*
X117149Y369480D01*
Y415380D01*
X144254Y442486D01*
X144872Y443410D01*
X145089Y444500D01*
X145089Y444500D01*
Y499421D01*
X145723Y499591D01*
X147781Y500779D01*
X149461Y502459D01*
X150649Y504517D01*
X151264Y506812D01*
Y509188D01*
X150649Y511483D01*
X149461Y513541D01*
X147781Y515221D01*
X145723Y516409D01*
X143428Y517024D01*
D02*
G37*
G36*
X428149Y245618D02*
X422790D01*
Y239759D01*
X423520D01*
X425291Y240111D01*
X426793Y241115D01*
X427797Y242617D01*
X428149Y244388D01*
Y245618D01*
D02*
G37*
G36*
X420250D02*
X414891D01*
Y244388D01*
X415243Y242617D01*
X416247Y241115D01*
X417748Y240111D01*
X419520Y239759D01*
X420250D01*
Y245618D01*
D02*
G37*
G36*
X346869Y245110D02*
X341510D01*
Y239251D01*
X342240D01*
X344011Y239603D01*
X345513Y240607D01*
X346517Y242109D01*
X346869Y243880D01*
Y245110D01*
D02*
G37*
G36*
X338970D02*
X333611D01*
Y243880D01*
X333963Y242109D01*
X334967Y240607D01*
X336469Y239603D01*
X338240Y239251D01*
X338970D01*
Y245110D01*
D02*
G37*
G36*
X260509D02*
X255150D01*
Y239251D01*
X255880D01*
X257651Y239603D01*
X259153Y240607D01*
X260157Y242109D01*
X260509Y243880D01*
Y245110D01*
D02*
G37*
G36*
X252610D02*
X247251D01*
Y243880D01*
X247603Y242109D01*
X248607Y240607D01*
X250109Y239603D01*
X251880Y239251D01*
X252610D01*
Y245110D01*
D02*
G37*
G36*
X174149D02*
X168790D01*
Y239251D01*
X169520D01*
X171291Y239603D01*
X172793Y240607D01*
X173797Y242109D01*
X174149Y243880D01*
Y245110D01*
D02*
G37*
G36*
X166250D02*
X160891D01*
Y243880D01*
X161243Y242109D01*
X162247Y240607D01*
X163748Y239603D01*
X165520Y239251D01*
X166250D01*
Y245110D01*
D02*
G37*
G36*
X154520Y252473D02*
X150520D01*
X149145Y252199D01*
X147979Y251421D01*
X147200Y250255D01*
X146927Y248880D01*
Y243880D01*
X147200Y242505D01*
X147979Y241339D01*
X149145Y240560D01*
X149671Y240456D01*
Y237696D01*
X149671Y237696D01*
X149888Y236606D01*
X150506Y235682D01*
X150906Y235282D01*
X150420Y234109D01*
X122764D01*
X122660Y234635D01*
X121881Y235801D01*
X120715Y236579D01*
X119340Y236853D01*
X114340D01*
X112965Y236579D01*
X111799Y235801D01*
X111020Y234635D01*
X110747Y233260D01*
Y229260D01*
X111020Y227885D01*
X111799Y226719D01*
X112965Y225940D01*
X114118Y225711D01*
Y178337D01*
X112483Y177659D01*
X110572Y176194D01*
X109107Y174283D01*
X108185Y172059D01*
X107871Y169672D01*
Y154432D01*
X108185Y152045D01*
X109107Y149821D01*
X110572Y147910D01*
X112483Y146445D01*
X114245Y145715D01*
Y113365D01*
X112483Y112635D01*
X110572Y111170D01*
X109107Y109259D01*
X108185Y107035D01*
X107871Y104648D01*
Y89408D01*
X108185Y87021D01*
X109107Y84797D01*
X110572Y82886D01*
X112483Y81421D01*
X114707Y80499D01*
X117094Y80185D01*
X119481Y80499D01*
X121705Y81421D01*
X123616Y82886D01*
X125081Y84797D01*
X126003Y87021D01*
X126317Y89408D01*
Y104648D01*
X126003Y107035D01*
X125081Y109259D01*
X123616Y111170D01*
X121705Y112635D01*
X119943Y113365D01*
Y145715D01*
X121705Y146445D01*
X123616Y147910D01*
X125081Y149821D01*
X126003Y152045D01*
X126317Y154432D01*
Y169672D01*
X126003Y172059D01*
X125081Y174283D01*
X123616Y176194D01*
X121705Y177659D01*
X119816Y178442D01*
Y225762D01*
X120715Y225940D01*
X121881Y226719D01*
X122660Y227885D01*
X122764Y228411D01*
X151438D01*
Y227031D01*
X151667Y225878D01*
X152320Y224901D01*
X153298Y224247D01*
X154451Y224018D01*
X156989D01*
X158142Y224247D01*
X159119Y224901D01*
X159194Y225013D01*
X160464Y224627D01*
Y178652D01*
X159919Y178581D01*
X157695Y177659D01*
X155784Y176194D01*
X154319Y174283D01*
X153397Y172059D01*
X153083Y169672D01*
Y154432D01*
X153397Y152045D01*
X154319Y149821D01*
X155784Y147910D01*
X157695Y146445D01*
X159919Y145523D01*
X162306Y145209D01*
X164693Y145523D01*
X166917Y146445D01*
X168828Y147910D01*
X170293Y149821D01*
X171215Y152045D01*
X171529Y154432D01*
Y169672D01*
X171215Y172059D01*
X170293Y174283D01*
X168828Y176194D01*
X166917Y177659D01*
X166162Y177972D01*
Y224132D01*
X166742Y224247D01*
X167719Y224901D01*
X168372Y225878D01*
X168602Y227031D01*
Y230169D01*
X168372Y231322D01*
X167719Y232299D01*
X166742Y232952D01*
X165589Y233182D01*
X163051D01*
X161898Y232952D01*
X160921Y232299D01*
X160844Y232185D01*
X159590Y232106D01*
X158569Y233080D01*
Y234496D01*
X158569Y234496D01*
X158352Y235586D01*
X157734Y236511D01*
X157734Y236511D01*
X155369Y238876D01*
Y240456D01*
X155895Y240560D01*
X157061Y241339D01*
X157839Y242505D01*
X158113Y243880D01*
Y248880D01*
X157839Y250255D01*
X157061Y251421D01*
X155895Y252199D01*
X154520Y252473D01*
D02*
G37*
G36*
X408520Y252981D02*
X404520D01*
X403145Y252708D01*
X401979Y251929D01*
X401200Y250763D01*
X400927Y249388D01*
Y244388D01*
X401200Y243013D01*
X401979Y241847D01*
X403145Y241068D01*
X403671Y240964D01*
Y238204D01*
X403671Y238204D01*
X403888Y237114D01*
X404506Y236190D01*
X406139Y234557D01*
X405613Y233287D01*
X376933D01*
Y233768D01*
X376660Y235143D01*
X375881Y236309D01*
X374715Y237087D01*
X373340Y237361D01*
X368340D01*
X366965Y237087D01*
X365799Y236309D01*
X365020Y235143D01*
X364747Y233768D01*
Y229768D01*
X365020Y228393D01*
X365799Y227227D01*
X366965Y226448D01*
X368118Y226219D01*
Y178845D01*
X366483Y178167D01*
X364572Y176702D01*
X363107Y174791D01*
X362185Y172567D01*
X361871Y170180D01*
Y154940D01*
X362185Y152553D01*
X363107Y150329D01*
X364572Y148418D01*
X366483Y146953D01*
X368245Y146223D01*
Y113873D01*
X366483Y113143D01*
X364572Y111678D01*
X363107Y109767D01*
X362185Y107543D01*
X361871Y105156D01*
Y89916D01*
X362185Y87529D01*
X363107Y85305D01*
X364572Y83394D01*
X366483Y81929D01*
X368707Y81007D01*
X371094Y80693D01*
X373481Y81007D01*
X375705Y81929D01*
X377616Y83394D01*
X379081Y85305D01*
X380003Y87529D01*
X380317Y89916D01*
Y105156D01*
X380003Y107543D01*
X379081Y109767D01*
X377616Y111678D01*
X375705Y113143D01*
X373943Y113873D01*
Y146223D01*
X375705Y146953D01*
X377616Y148418D01*
X379081Y150329D01*
X380003Y152553D01*
X380317Y154940D01*
Y170180D01*
X380003Y172567D01*
X379081Y174791D01*
X377616Y176702D01*
X375705Y178167D01*
X373816Y178950D01*
Y226270D01*
X374715Y226448D01*
X375881Y227227D01*
X376122Y227589D01*
X405438D01*
Y227539D01*
X405667Y226386D01*
X406320Y225409D01*
X407298Y224755D01*
X408451Y224526D01*
X410989D01*
X412142Y224755D01*
X413119Y225409D01*
X413194Y225520D01*
X414464Y225135D01*
Y179160D01*
X413919Y179089D01*
X411695Y178167D01*
X409784Y176702D01*
X408319Y174791D01*
X407397Y172567D01*
X407083Y170180D01*
Y154940D01*
X407397Y152553D01*
X408319Y150329D01*
X409784Y148418D01*
X411695Y146953D01*
X413457Y146223D01*
Y113873D01*
X411695Y113143D01*
X409784Y111678D01*
X408319Y109767D01*
X407397Y107543D01*
X407083Y105156D01*
Y89916D01*
X407397Y87529D01*
X408319Y85305D01*
X409784Y83394D01*
X411695Y81929D01*
X413711Y81093D01*
Y55137D01*
X337875D01*
Y80691D01*
X339637Y81421D01*
X341548Y82886D01*
X343013Y84797D01*
X343935Y87021D01*
X344249Y89408D01*
Y104648D01*
X343935Y107035D01*
X343013Y109259D01*
X341548Y111170D01*
X339637Y112635D01*
X337875Y113365D01*
Y145715D01*
X339637Y146445D01*
X341548Y147910D01*
X343013Y149821D01*
X343935Y152045D01*
X344249Y154432D01*
Y169672D01*
X343935Y172059D01*
X343013Y174283D01*
X341548Y176194D01*
X339637Y177659D01*
X338882Y177972D01*
Y224132D01*
X339462Y224247D01*
X340439Y224901D01*
X341092Y225878D01*
X341322Y227031D01*
Y230169D01*
X341092Y231322D01*
X340439Y232299D01*
X339462Y232952D01*
X338309Y233182D01*
X335771D01*
X334618Y232952D01*
X333641Y232299D01*
X333564Y232185D01*
X332310Y232106D01*
X331289Y233080D01*
Y234496D01*
X331289Y234496D01*
X331072Y235586D01*
X330454Y236511D01*
X330454Y236511D01*
X328089Y238876D01*
Y240456D01*
X328615Y240560D01*
X329781Y241339D01*
X330560Y242505D01*
X330833Y243880D01*
Y248880D01*
X330560Y250255D01*
X329781Y251421D01*
X328615Y252199D01*
X327240Y252473D01*
X323240D01*
X321865Y252199D01*
X320699Y251421D01*
X319920Y250255D01*
X319647Y248880D01*
Y243880D01*
X319920Y242505D01*
X320699Y241339D01*
X321865Y240560D01*
X322391Y240456D01*
Y237696D01*
X322391Y237696D01*
X322608Y236606D01*
X323226Y235682D01*
X323625Y235282D01*
X323139Y234109D01*
X295484D01*
X295380Y234635D01*
X294601Y235801D01*
X293435Y236579D01*
X292060Y236853D01*
X287060D01*
X285685Y236579D01*
X284519Y235801D01*
X283740Y234635D01*
X283467Y233260D01*
Y229260D01*
X283740Y227885D01*
X284519Y226719D01*
X285685Y225940D01*
X286838Y225711D01*
Y178337D01*
X285203Y177659D01*
X283292Y176194D01*
X281827Y174283D01*
X280905Y172059D01*
X280591Y169672D01*
Y154432D01*
X280905Y152045D01*
X281827Y149821D01*
X283292Y147910D01*
X285203Y146445D01*
X286965Y145715D01*
Y113365D01*
X285203Y112635D01*
X283292Y111170D01*
X281827Y109259D01*
X280905Y107035D01*
X280591Y104648D01*
Y89408D01*
X280905Y87021D01*
X281827Y84797D01*
X283292Y82886D01*
X285203Y81421D01*
X287427Y80499D01*
X289814Y80185D01*
X292201Y80499D01*
X294425Y81421D01*
X296336Y82886D01*
X297801Y84797D01*
X298723Y87021D01*
X299037Y89408D01*
Y104648D01*
X298723Y107035D01*
X297801Y109259D01*
X296336Y111170D01*
X294425Y112635D01*
X292663Y113365D01*
Y145715D01*
X294425Y146445D01*
X296336Y147910D01*
X297801Y149821D01*
X298723Y152045D01*
X299037Y154432D01*
Y169672D01*
X298723Y172059D01*
X297801Y174283D01*
X296336Y176194D01*
X294425Y177659D01*
X292536Y178442D01*
Y225762D01*
X293435Y225940D01*
X294601Y226719D01*
X295380Y227885D01*
X295484Y228411D01*
X324158D01*
Y227031D01*
X324387Y225878D01*
X325041Y224901D01*
X326018Y224247D01*
X327171Y224018D01*
X329709D01*
X330862Y224247D01*
X331839Y224901D01*
X331914Y225013D01*
X333184Y224627D01*
Y178652D01*
X332639Y178581D01*
X330415Y177659D01*
X328504Y176194D01*
X327039Y174283D01*
X326117Y172059D01*
X325803Y169672D01*
Y154432D01*
X326117Y152045D01*
X327039Y149821D01*
X328504Y147910D01*
X330415Y146445D01*
X332177Y145715D01*
Y113365D01*
X330415Y112635D01*
X328504Y111170D01*
X327039Y109259D01*
X326117Y107035D01*
X325803Y104648D01*
Y89408D01*
X326117Y87021D01*
X327039Y84797D01*
X328504Y82886D01*
X330415Y81421D01*
X332177Y80691D01*
Y53649D01*
X314960D01*
X314960Y53649D01*
X313870Y53432D01*
X312946Y52814D01*
X312946Y52814D01*
X309880Y49749D01*
X306814Y52814D01*
X305890Y53432D01*
X304800Y53649D01*
X304800Y53649D01*
X251515D01*
Y80691D01*
X253277Y81421D01*
X255188Y82886D01*
X256653Y84797D01*
X257575Y87021D01*
X257889Y89408D01*
Y104648D01*
X257575Y107035D01*
X256653Y109259D01*
X255188Y111170D01*
X253277Y112635D01*
X251515Y113365D01*
Y145715D01*
X253277Y146445D01*
X255188Y147910D01*
X256653Y149821D01*
X257575Y152045D01*
X257889Y154432D01*
Y169672D01*
X257575Y172059D01*
X256653Y174283D01*
X255188Y176194D01*
X253277Y177659D01*
X252522Y177972D01*
Y224132D01*
X253102Y224247D01*
X254079Y224901D01*
X254732Y225878D01*
X254962Y227031D01*
Y230169D01*
X254732Y231322D01*
X254079Y232299D01*
X253102Y232952D01*
X251949Y233182D01*
X249411D01*
X248258Y232952D01*
X247281Y232299D01*
X247204Y232185D01*
X245950Y232106D01*
X244929Y233080D01*
Y234496D01*
X244929Y234496D01*
X244712Y235586D01*
X244094Y236511D01*
X244094Y236511D01*
X241729Y238876D01*
Y240456D01*
X242255Y240560D01*
X243421Y241339D01*
X244200Y242505D01*
X244473Y243880D01*
Y248880D01*
X244200Y250255D01*
X243421Y251421D01*
X242255Y252199D01*
X240880Y252473D01*
X236880D01*
X235505Y252199D01*
X234339Y251421D01*
X233560Y250255D01*
X233287Y248880D01*
Y243880D01*
X233560Y242505D01*
X234339Y241339D01*
X235505Y240560D01*
X236031Y240456D01*
Y237696D01*
X236031Y237696D01*
X236248Y236606D01*
X236866Y235682D01*
X237265Y235282D01*
X236779Y234109D01*
X209124D01*
X209020Y234635D01*
X208241Y235801D01*
X207075Y236579D01*
X205700Y236853D01*
X200700D01*
X199325Y236579D01*
X198159Y235801D01*
X197380Y234635D01*
X197107Y233260D01*
Y229260D01*
X197380Y227885D01*
X198159Y226719D01*
X199325Y225940D01*
X200478Y225711D01*
Y178337D01*
X198843Y177659D01*
X196932Y176194D01*
X195467Y174283D01*
X194545Y172059D01*
X194231Y169672D01*
Y154432D01*
X194545Y152045D01*
X195467Y149821D01*
X196932Y147910D01*
X198843Y146445D01*
X200605Y145715D01*
Y113365D01*
X198843Y112635D01*
X196932Y111170D01*
X195467Y109259D01*
X194545Y107035D01*
X194231Y104648D01*
Y89408D01*
X194545Y87021D01*
X195467Y84797D01*
X196932Y82886D01*
X198843Y81421D01*
X201067Y80499D01*
X203454Y80185D01*
X205841Y80499D01*
X208065Y81421D01*
X209976Y82886D01*
X211441Y84797D01*
X212363Y87021D01*
X212677Y89408D01*
Y104648D01*
X212363Y107035D01*
X211441Y109259D01*
X209976Y111170D01*
X208065Y112635D01*
X206303Y113365D01*
Y145715D01*
X208065Y146445D01*
X209976Y147910D01*
X211441Y149821D01*
X212363Y152045D01*
X212677Y154432D01*
Y169672D01*
X212363Y172059D01*
X211441Y174283D01*
X209976Y176194D01*
X208065Y177659D01*
X206176Y178442D01*
Y225762D01*
X207075Y225940D01*
X208241Y226719D01*
X209020Y227885D01*
X209124Y228411D01*
X237798D01*
Y227031D01*
X238027Y225878D01*
X238680Y224901D01*
X239658Y224247D01*
X240811Y224018D01*
X243349D01*
X244502Y224247D01*
X245479Y224901D01*
X245554Y225013D01*
X246824Y224627D01*
Y178652D01*
X246279Y178581D01*
X244055Y177659D01*
X242144Y176194D01*
X240679Y174283D01*
X239757Y172059D01*
X239443Y169672D01*
Y154432D01*
X239757Y152045D01*
X240679Y149821D01*
X242144Y147910D01*
X244055Y146445D01*
X245817Y145715D01*
Y113365D01*
X244055Y112635D01*
X242144Y111170D01*
X240679Y109259D01*
X239757Y107035D01*
X239443Y104648D01*
Y89408D01*
X239757Y87021D01*
X240679Y84797D01*
X242144Y82886D01*
X244055Y81421D01*
X245817Y80691D01*
Y53649D01*
X165155D01*
Y80691D01*
X166917Y81421D01*
X168828Y82886D01*
X170293Y84797D01*
X171215Y87021D01*
X171529Y89408D01*
Y104648D01*
X171215Y107035D01*
X170293Y109259D01*
X168828Y111170D01*
X166917Y112635D01*
X164693Y113557D01*
X162306Y113871D01*
X159919Y113557D01*
X157695Y112635D01*
X155784Y111170D01*
X154319Y109259D01*
X153397Y107035D01*
X153083Y104648D01*
Y89408D01*
X153397Y87021D01*
X154319Y84797D01*
X155784Y82886D01*
X157695Y81421D01*
X159457Y80691D01*
Y52288D01*
X159457Y52288D01*
X159674Y51198D01*
X160292Y50273D01*
X161779Y48786D01*
X161779Y48786D01*
X162704Y48168D01*
X163794Y47951D01*
X248920D01*
X248920Y47951D01*
X248920Y47951D01*
X303620D01*
X307031Y44540D01*
Y33979D01*
X306397Y33809D01*
X304339Y32621D01*
X302659Y30941D01*
X301471Y28883D01*
X300856Y26588D01*
Y24212D01*
X301471Y21917D01*
X302659Y19859D01*
X304339Y18179D01*
X306397Y16991D01*
X308692Y16376D01*
X311068D01*
X313363Y16991D01*
X315421Y18179D01*
X317101Y19859D01*
X318289Y21917D01*
X318904Y24212D01*
Y26588D01*
X318289Y28883D01*
X317101Y30941D01*
X315421Y32621D01*
X313363Y33809D01*
X312729Y33979D01*
Y44540D01*
X316140Y47951D01*
X333538D01*
X333538Y47951D01*
X334628Y48168D01*
X335552Y48786D01*
X336206Y49439D01*
X415072D01*
X415072Y49439D01*
X415072Y49439D01*
X437932D01*
X437932Y49439D01*
X439022Y49656D01*
X439947Y50273D01*
X441434Y51761D01*
X441434Y51761D01*
X442052Y52686D01*
X442269Y53776D01*
Y143771D01*
X443255Y144757D01*
X443944Y146420D01*
Y148220D01*
X443255Y149883D01*
X441983Y151155D01*
X440320Y151844D01*
X438520D01*
X436857Y151155D01*
X435585Y149883D01*
X434896Y148220D01*
Y146420D01*
X435585Y144757D01*
X436571Y143771D01*
Y55137D01*
X419409D01*
Y81304D01*
X420917Y81929D01*
X422828Y83394D01*
X424293Y85305D01*
X425215Y87529D01*
X425529Y89916D01*
Y105156D01*
X425215Y107543D01*
X424293Y109767D01*
X422828Y111678D01*
X420917Y113143D01*
X419155Y113873D01*
Y146223D01*
X420917Y146953D01*
X422828Y148418D01*
X424293Y150329D01*
X425215Y152553D01*
X425529Y154940D01*
Y170180D01*
X425215Y172567D01*
X424293Y174791D01*
X422828Y176702D01*
X420917Y178167D01*
X420162Y178480D01*
Y224640D01*
X420742Y224755D01*
X421719Y225409D01*
X422373Y226386D01*
X422602Y227539D01*
Y230677D01*
X422373Y231830D01*
X421719Y232807D01*
X420742Y233461D01*
X419589Y233690D01*
X417051D01*
X415898Y233461D01*
X414921Y232807D01*
X414844Y232693D01*
X413590Y232614D01*
X412569Y233588D01*
Y235004D01*
X412569Y235004D01*
X412352Y236094D01*
X411734Y237019D01*
X411734Y237019D01*
X409369Y239384D01*
Y240964D01*
X409895Y241068D01*
X411061Y241847D01*
X411839Y243013D01*
X412113Y244388D01*
Y249388D01*
X411839Y250763D01*
X411061Y251929D01*
X409895Y252708D01*
X408520Y252981D01*
D02*
G37*
G36*
X412668Y517024D02*
X410292D01*
X407997Y516409D01*
X405939Y515221D01*
X404259Y513541D01*
X403071Y511483D01*
X402456Y509188D01*
Y506812D01*
X403071Y504517D01*
X404259Y502459D01*
X405939Y500779D01*
X407997Y499591D01*
X408631Y499421D01*
Y426720D01*
X408631Y426720D01*
X408848Y425630D01*
X409466Y424706D01*
X604059Y230112D01*
X603731Y229543D01*
X603116Y227248D01*
Y224872D01*
X603731Y222577D01*
X604919Y220519D01*
X606599Y218839D01*
X608657Y217651D01*
X610952Y217036D01*
X613328D01*
X615623Y217651D01*
X617681Y218839D01*
X619361Y220519D01*
X620549Y222577D01*
X621164Y224872D01*
Y227248D01*
X620549Y229543D01*
X619361Y231601D01*
X617681Y233281D01*
X615623Y234469D01*
X613328Y235084D01*
X610952D01*
X608657Y234469D01*
X608088Y234141D01*
X414329Y427900D01*
Y499421D01*
X414963Y499591D01*
X417021Y500779D01*
X418701Y502459D01*
X419889Y504517D01*
X420504Y506812D01*
Y509188D01*
X419889Y511483D01*
X418701Y513541D01*
X417021Y515221D01*
X414963Y516409D01*
X412668Y517024D01*
D02*
G37*
G36*
X613328Y209684D02*
X610952D01*
X608657Y209069D01*
X606599Y207881D01*
X604919Y206201D01*
X603731Y204143D01*
X603116Y201848D01*
Y199472D01*
X603731Y197177D01*
X604919Y195119D01*
X606599Y193439D01*
X608657Y192251D01*
X610952Y191636D01*
X613328D01*
X615623Y192251D01*
X617681Y193439D01*
X619361Y195119D01*
X620549Y197177D01*
X621164Y199472D01*
Y201848D01*
X620549Y204143D01*
X619361Y206201D01*
X617681Y207881D01*
X615623Y209069D01*
X613328Y209684D01*
D02*
G37*
G36*
X613462Y185300D02*
X613410D01*
Y176530D01*
X622180D01*
Y176582D01*
X621496Y179135D01*
X620174Y181425D01*
X618305Y183294D01*
X616015Y184616D01*
X613462Y185300D01*
D02*
G37*
G36*
X610870D02*
X610818D01*
X608265Y184616D01*
X605975Y183294D01*
X604106Y181425D01*
X602784Y179135D01*
X602100Y176582D01*
Y176530D01*
X610870D01*
Y185300D01*
D02*
G37*
G36*
X622180Y173990D02*
X613410D01*
Y165220D01*
X613462D01*
X616015Y165904D01*
X618305Y167226D01*
X620174Y169095D01*
X621496Y171385D01*
X622180Y173938D01*
Y173990D01*
D02*
G37*
G36*
X610870D02*
X602100D01*
Y173938D01*
X602784Y171385D01*
X604106Y169095D01*
X605975Y167226D01*
X608265Y165904D01*
X610818Y165220D01*
X610870D01*
Y173990D01*
D02*
G37*
G36*
X613328Y158884D02*
X610952D01*
X608657Y158269D01*
X606599Y157081D01*
X604919Y155401D01*
X603731Y153343D01*
X603116Y151048D01*
Y148672D01*
X603731Y146377D01*
X604919Y144319D01*
X606599Y142639D01*
X608657Y141451D01*
X610952Y140836D01*
X613328D01*
X615623Y141451D01*
X617681Y142639D01*
X619361Y144319D01*
X620549Y146377D01*
X621164Y148672D01*
Y151048D01*
X620549Y153343D01*
X619361Y155401D01*
X617681Y157081D01*
X615623Y158269D01*
X613328Y158884D01*
D02*
G37*
G36*
Y133484D02*
X610952D01*
X608657Y132869D01*
X606599Y131681D01*
X604919Y130001D01*
X603731Y127943D01*
X603116Y125648D01*
Y123272D01*
X603731Y120977D01*
X604919Y118919D01*
X606599Y117239D01*
X608657Y116051D01*
X610952Y115436D01*
X613328D01*
X615623Y116051D01*
X617681Y117239D01*
X619361Y118919D01*
X620549Y120977D01*
X621164Y123272D01*
Y125648D01*
X620549Y127943D01*
X619361Y130001D01*
X617681Y131681D01*
X615623Y132869D01*
X613328Y133484D01*
D02*
G37*
G36*
X572400Y136724D02*
X570600D01*
X568937Y136035D01*
X567665Y134763D01*
X566976Y133100D01*
Y131300D01*
X567665Y129637D01*
X568591Y128711D01*
Y112616D01*
X568005Y112500D01*
X566839Y111721D01*
X566060Y110555D01*
X565787Y109180D01*
Y104180D01*
X566060Y102805D01*
X566839Y101639D01*
X568005Y100861D01*
X569380Y100587D01*
X573380D01*
X574755Y100861D01*
X575921Y101639D01*
X576699Y102805D01*
X576973Y104180D01*
Y109180D01*
X576699Y110555D01*
X575921Y111721D01*
X574755Y112500D01*
X574289Y112592D01*
Y128591D01*
X575335Y129637D01*
X576024Y131300D01*
Y133100D01*
X575335Y134763D01*
X574063Y136035D01*
X572400Y136724D01*
D02*
G37*
G36*
X521600D02*
X519800D01*
X518137Y136035D01*
X516865Y134763D01*
X516176Y133100D01*
Y131300D01*
X516865Y129637D01*
X517791Y128711D01*
Y112616D01*
X517205Y112500D01*
X516039Y111721D01*
X515261Y110555D01*
X514987Y109180D01*
Y104180D01*
X515261Y102805D01*
X516039Y101639D01*
X517205Y100861D01*
X518580Y100587D01*
X522580D01*
X523955Y100861D01*
X525121Y101639D01*
X525900Y102805D01*
X526173Y104180D01*
Y109180D01*
X525900Y110555D01*
X525121Y111721D01*
X523955Y112500D01*
X523489Y112592D01*
Y128591D01*
X524535Y129637D01*
X525224Y131300D01*
Y133100D01*
X524535Y134763D01*
X523263Y136035D01*
X521600Y136724D01*
D02*
G37*
G36*
X470800D02*
X469000D01*
X467337Y136035D01*
X466065Y134763D01*
X465376Y133100D01*
Y131300D01*
X466065Y129637D01*
X466991Y128711D01*
Y112616D01*
X466405Y112500D01*
X465239Y111721D01*
X464460Y110555D01*
X464187Y109180D01*
Y104180D01*
X464460Y102805D01*
X465239Y101639D01*
X466405Y100861D01*
X467780Y100587D01*
X471780D01*
X473155Y100861D01*
X474321Y101639D01*
X475099Y102805D01*
X475373Y104180D01*
Y109180D01*
X475099Y110555D01*
X474321Y111721D01*
X473155Y112500D01*
X472689Y112592D01*
Y128591D01*
X473735Y129637D01*
X474424Y131300D01*
Y133100D01*
X473735Y134763D01*
X472463Y136035D01*
X470800Y136724D01*
D02*
G37*
G36*
X616244Y93725D02*
X613116D01*
X612960Y93660D01*
X612795Y93693D01*
X609728Y93083D01*
X609587Y92989D01*
X609418D01*
X606529Y91792D01*
X606410Y91673D01*
X606244Y91640D01*
X603644Y89902D01*
X603550Y89762D01*
X603394Y89697D01*
X601183Y87486D01*
X601118Y87330D01*
X600978Y87236D01*
X599240Y84636D01*
X599207Y84470D01*
X599088Y84351D01*
X597891Y81462D01*
Y81293D01*
X597797Y81152D01*
X597187Y78085D01*
X597220Y77920D01*
X597155Y77764D01*
Y74636D01*
X597220Y74480D01*
X597187Y74315D01*
X597797Y71248D01*
X597891Y71107D01*
Y70938D01*
X599088Y68049D01*
X599207Y67930D01*
X599240Y67764D01*
X600978Y65164D01*
X601118Y65070D01*
X601183Y64914D01*
X603394Y62703D01*
X603550Y62638D01*
X603644Y62498D01*
X606244Y60760D01*
X606410Y60727D01*
X606529Y60608D01*
X609418Y59411D01*
X609587D01*
X609728Y59317D01*
X612795Y58707D01*
X612960Y58740D01*
X613116Y58675D01*
X616244D01*
X616400Y58740D01*
X616565Y58707D01*
X619632Y59317D01*
X619773Y59411D01*
X619942D01*
X622831Y60608D01*
X622950Y60727D01*
X623116Y60760D01*
X625716Y62498D01*
X625810Y62638D01*
X625966Y62703D01*
X628177Y64914D01*
X628242Y65070D01*
X628382Y65164D01*
X630120Y67764D01*
X630153Y67930D01*
X630272Y68049D01*
X631469Y70938D01*
Y71107D01*
X631563Y71248D01*
X632173Y74315D01*
X632140Y74480D01*
X632205Y74636D01*
Y77764D01*
X632140Y77920D01*
X632173Y78085D01*
X631563Y81152D01*
X631469Y81293D01*
Y81462D01*
X630272Y84351D01*
X630153Y84470D01*
X630120Y84636D01*
X628382Y87236D01*
X628242Y87330D01*
X628177Y87486D01*
X625966Y89697D01*
X625810Y89762D01*
X625716Y89902D01*
X623116Y91640D01*
X622950Y91673D01*
X622831Y91792D01*
X619942Y92989D01*
X619773D01*
X619632Y93083D01*
X616565Y93693D01*
X616400Y93660D01*
X616244Y93725D01*
D02*
G37*
G36*
X558380Y112773D02*
X554380D01*
X553005Y112500D01*
X551839Y111721D01*
X551060Y110555D01*
X550787Y109180D01*
Y104180D01*
X551060Y102805D01*
X551839Y101639D01*
X553005Y100861D01*
X553411Y100780D01*
Y94289D01*
X532348D01*
X531258Y94072D01*
X530334Y93454D01*
X530334Y93454D01*
X528846Y91966D01*
X528228Y91042D01*
X528011Y89952D01*
X528011Y89952D01*
Y44360D01*
X517132Y33481D01*
X516563Y33809D01*
X514268Y34424D01*
X511892D01*
X509597Y33809D01*
X507539Y32621D01*
X505859Y30941D01*
X504671Y28883D01*
X504056Y26588D01*
Y24212D01*
X504671Y21917D01*
X505859Y19859D01*
X507539Y18179D01*
X509597Y16991D01*
X511892Y16376D01*
X514268D01*
X516563Y16991D01*
X518621Y18179D01*
X520301Y19859D01*
X521489Y21917D01*
X522104Y24212D01*
Y26588D01*
X521489Y28883D01*
X521161Y29452D01*
X532874Y41166D01*
X532874Y41166D01*
X533492Y42090D01*
X533709Y43180D01*
Y88591D01*
X554772D01*
X554772Y88591D01*
X555862Y88808D01*
X556786Y89426D01*
X558274Y90913D01*
X558274Y90913D01*
X558892Y91838D01*
X559109Y92928D01*
Y100732D01*
X559755Y100861D01*
X560921Y101639D01*
X561699Y102805D01*
X561973Y104180D01*
Y109180D01*
X561699Y110555D01*
X560921Y111721D01*
X559755Y112500D01*
X558380Y112773D01*
D02*
G37*
G36*
X95543Y42925D02*
X92416D01*
X92260Y42860D01*
X92095Y42893D01*
X89028Y42283D01*
X88887Y42189D01*
X88718D01*
X85829Y40992D01*
X85710Y40873D01*
X85544Y40840D01*
X82944Y39102D01*
X82850Y38962D01*
X82694Y38897D01*
X80483Y36686D01*
X80418Y36530D01*
X80278Y36436D01*
X78540Y33836D01*
X78507Y33670D01*
X78388Y33551D01*
X77191Y30662D01*
Y30493D01*
X77097Y30352D01*
X76487Y27285D01*
X76520Y27120D01*
X76455Y26964D01*
Y23836D01*
X76520Y23680D01*
X76487Y23515D01*
X77097Y20448D01*
X77191Y20307D01*
Y20138D01*
X78388Y17249D01*
X78507Y17130D01*
X78540Y16964D01*
X80278Y14364D01*
X80418Y14270D01*
X80483Y14114D01*
X82694Y11903D01*
X82850Y11838D01*
X82944Y11697D01*
X85544Y9960D01*
X85710Y9927D01*
X85829Y9808D01*
X88718Y8611D01*
X88887D01*
X89028Y8517D01*
X92095Y7907D01*
X92260Y7940D01*
X92416Y7875D01*
X95543D01*
X95700Y7940D01*
X95865Y7907D01*
X98932Y8517D01*
X99073Y8611D01*
X99242D01*
X102131Y9808D01*
X102250Y9927D01*
X102416Y9960D01*
X105016Y11697D01*
X105110Y11838D01*
X105266Y11903D01*
X107477Y14114D01*
X107542Y14270D01*
X107683Y14364D01*
X109420Y16964D01*
X109453Y17130D01*
X109572Y17249D01*
X110769Y20138D01*
Y20307D01*
X110863Y20448D01*
X111473Y23515D01*
X111440Y23680D01*
X111505Y23836D01*
Y26964D01*
X111440Y27120D01*
X111473Y27285D01*
X110863Y30352D01*
X110769Y30493D01*
Y30662D01*
X109572Y33551D01*
X109453Y33670D01*
X109420Y33836D01*
X107683Y36436D01*
X107542Y36530D01*
X107477Y36686D01*
X105266Y38897D01*
X105110Y38962D01*
X105016Y39102D01*
X102416Y40840D01*
X102250Y40873D01*
X102131Y40992D01*
X99242Y42189D01*
X99073D01*
X98932Y42283D01*
X95865Y42893D01*
X95700Y42860D01*
X95543Y42925D01*
D02*
G37*
G36*
X507580Y112773D02*
X503580D01*
X502205Y112500D01*
X501039Y111721D01*
X500261Y110555D01*
X499987Y109180D01*
Y104180D01*
X500261Y102805D01*
X501039Y101639D01*
X502205Y100861D01*
X502731Y100756D01*
Y44480D01*
X491732Y33481D01*
X491163Y33809D01*
X488868Y34424D01*
X486492D01*
X484197Y33809D01*
X482139Y32621D01*
X480459Y30941D01*
X479271Y28883D01*
X478656Y26588D01*
Y24212D01*
X479271Y21917D01*
X480459Y19859D01*
X482139Y18179D01*
X484197Y16991D01*
X486492Y16376D01*
X488868D01*
X491163Y16991D01*
X493221Y18179D01*
X494901Y19859D01*
X496089Y21917D01*
X496704Y24212D01*
Y26588D01*
X496089Y28883D01*
X495761Y29452D01*
X507594Y41286D01*
X507594Y41286D01*
X508212Y42210D01*
X508429Y43300D01*
Y100756D01*
X508955Y100861D01*
X510121Y101639D01*
X510900Y102805D01*
X511173Y104180D01*
Y109180D01*
X510900Y110555D01*
X510121Y111721D01*
X508955Y112500D01*
X507580Y112773D01*
D02*
G37*
G36*
X362002Y35440D02*
X361950D01*
Y26670D01*
X370720D01*
Y26722D01*
X370036Y29275D01*
X368714Y31565D01*
X366845Y33434D01*
X364555Y34756D01*
X362002Y35440D01*
D02*
G37*
G36*
X387402D02*
X387350D01*
Y26670D01*
X396120D01*
Y26722D01*
X395436Y29275D01*
X394114Y31565D01*
X392245Y33434D01*
X389955Y34756D01*
X387402Y35440D01*
D02*
G37*
G36*
X359410D02*
X359358D01*
X356805Y34756D01*
X354515Y33434D01*
X352646Y31565D01*
X351324Y29275D01*
X350640Y26722D01*
Y26670D01*
X359410D01*
Y35440D01*
D02*
G37*
G36*
X384810D02*
X384758D01*
X382205Y34756D01*
X379915Y33434D01*
X378046Y31565D01*
X376724Y29275D01*
X376040Y26722D01*
Y26670D01*
X384810D01*
Y35440D01*
D02*
G37*
G36*
X590468Y34424D02*
X588092D01*
X585797Y33809D01*
X583739Y32621D01*
X582059Y30941D01*
X580871Y28883D01*
X580256Y26588D01*
Y24212D01*
X580871Y21917D01*
X582059Y19859D01*
X583739Y18179D01*
X585797Y16991D01*
X588092Y16376D01*
X590468D01*
X592763Y16991D01*
X594821Y18179D01*
X596501Y19859D01*
X597689Y21917D01*
X598304Y24212D01*
Y26588D01*
X597689Y28883D01*
X596501Y30941D01*
X594821Y32621D01*
X592763Y33809D01*
X590468Y34424D01*
D02*
G37*
G36*
X565068D02*
X562692D01*
X560397Y33809D01*
X558339Y32621D01*
X556659Y30941D01*
X555471Y28883D01*
X554856Y26588D01*
Y24212D01*
X555471Y21917D01*
X556659Y19859D01*
X558339Y18179D01*
X560397Y16991D01*
X562692Y16376D01*
X565068D01*
X567363Y16991D01*
X569421Y18179D01*
X571101Y19859D01*
X572289Y21917D01*
X572904Y24212D01*
Y26588D01*
X572289Y28883D01*
X571101Y30941D01*
X569421Y32621D01*
X567363Y33809D01*
X565068Y34424D01*
D02*
G37*
G36*
X539668D02*
X537292D01*
X534997Y33809D01*
X532939Y32621D01*
X531259Y30941D01*
X530071Y28883D01*
X529456Y26588D01*
Y24212D01*
X530071Y21917D01*
X531259Y19859D01*
X532939Y18179D01*
X534997Y16991D01*
X537292Y16376D01*
X539668D01*
X541963Y16991D01*
X544021Y18179D01*
X545701Y19859D01*
X546889Y21917D01*
X547504Y24212D01*
Y26588D01*
X546889Y28883D01*
X545701Y30941D01*
X544021Y32621D01*
X541963Y33809D01*
X539668Y34424D01*
D02*
G37*
G36*
X456780Y112773D02*
X452780D01*
X451405Y112500D01*
X450239Y111721D01*
X449460Y110555D01*
X449187Y109180D01*
Y104180D01*
X449460Y102805D01*
X450239Y101639D01*
X451405Y100861D01*
X451931Y100756D01*
Y32900D01*
X451931Y32900D01*
X452148Y31810D01*
X452766Y30886D01*
X454199Y29452D01*
X453871Y28883D01*
X453256Y26588D01*
Y24212D01*
X453871Y21917D01*
X455059Y19859D01*
X456739Y18179D01*
X458797Y16991D01*
X461092Y16376D01*
X463468D01*
X465763Y16991D01*
X467821Y18179D01*
X469501Y19859D01*
X470689Y21917D01*
X471304Y24212D01*
Y26588D01*
X470689Y28883D01*
X469501Y30941D01*
X467821Y32621D01*
X465763Y33809D01*
X463468Y34424D01*
X461092D01*
X458797Y33809D01*
X458783Y33801D01*
X457629Y34601D01*
Y100756D01*
X458155Y100861D01*
X459321Y101639D01*
X460099Y102805D01*
X460373Y104180D01*
Y109180D01*
X460099Y110555D01*
X459321Y111721D01*
X458155Y112500D01*
X456780Y112773D01*
D02*
G37*
G36*
X412668Y34424D02*
X410292D01*
X407997Y33809D01*
X405939Y32621D01*
X404259Y30941D01*
X403071Y28883D01*
X402456Y26588D01*
Y24212D01*
X403071Y21917D01*
X404259Y19859D01*
X405939Y18179D01*
X407997Y16991D01*
X410292Y16376D01*
X412668D01*
X414963Y16991D01*
X417021Y18179D01*
X418701Y19859D01*
X419889Y21917D01*
X420504Y24212D01*
Y26588D01*
X419889Y28883D01*
X418701Y30941D01*
X417021Y32621D01*
X414963Y33809D01*
X412668Y34424D01*
D02*
G37*
G36*
X336468D02*
X334092D01*
X331797Y33809D01*
X329739Y32621D01*
X328059Y30941D01*
X326871Y28883D01*
X326256Y26588D01*
Y24212D01*
X326871Y21917D01*
X328059Y19859D01*
X329739Y18179D01*
X331797Y16991D01*
X334092Y16376D01*
X336468D01*
X338763Y16991D01*
X340821Y18179D01*
X342501Y19859D01*
X343689Y21917D01*
X344304Y24212D01*
Y26588D01*
X343689Y28883D01*
X342501Y30941D01*
X340821Y32621D01*
X338763Y33809D01*
X336468Y34424D01*
D02*
G37*
G36*
X285668D02*
X283292D01*
X280997Y33809D01*
X278939Y32621D01*
X277259Y30941D01*
X276071Y28883D01*
X275456Y26588D01*
Y24212D01*
X276071Y21917D01*
X277259Y19859D01*
X278939Y18179D01*
X280997Y16991D01*
X283292Y16376D01*
X285668D01*
X287963Y16991D01*
X290021Y18179D01*
X291701Y19859D01*
X292889Y21917D01*
X293504Y24212D01*
Y26588D01*
X292889Y28883D01*
X291701Y30941D01*
X290021Y32621D01*
X287963Y33809D01*
X285668Y34424D01*
D02*
G37*
G36*
X260268D02*
X257892D01*
X255597Y33809D01*
X253539Y32621D01*
X251859Y30941D01*
X250671Y28883D01*
X250056Y26588D01*
Y24212D01*
X250671Y21917D01*
X251859Y19859D01*
X253539Y18179D01*
X255597Y16991D01*
X257892Y16376D01*
X260268D01*
X262563Y16991D01*
X264621Y18179D01*
X266301Y19859D01*
X267489Y21917D01*
X268104Y24212D01*
Y26588D01*
X267489Y28883D01*
X266301Y30941D01*
X264621Y32621D01*
X262563Y33809D01*
X260268Y34424D01*
D02*
G37*
G36*
X234868D02*
X232492D01*
X230197Y33809D01*
X228139Y32621D01*
X226459Y30941D01*
X225271Y28883D01*
X224656Y26588D01*
Y24212D01*
X225271Y21917D01*
X226459Y19859D01*
X228139Y18179D01*
X230197Y16991D01*
X232492Y16376D01*
X234868D01*
X237163Y16991D01*
X239221Y18179D01*
X240901Y19859D01*
X242089Y21917D01*
X242704Y24212D01*
Y26588D01*
X242089Y28883D01*
X240901Y30941D01*
X239221Y32621D01*
X237163Y33809D01*
X234868Y34424D01*
D02*
G37*
G36*
X396120Y24130D02*
X387350D01*
Y15360D01*
X387402D01*
X389955Y16044D01*
X392245Y17366D01*
X394114Y19235D01*
X395436Y21525D01*
X396120Y24078D01*
Y24130D01*
D02*
G37*
G36*
X384810D02*
X376040D01*
Y24078D01*
X376724Y21525D01*
X378046Y19235D01*
X379915Y17366D01*
X382205Y16044D01*
X384758Y15360D01*
X384810D01*
Y24130D01*
D02*
G37*
G36*
X370720D02*
X361950D01*
Y15360D01*
X362002D01*
X364555Y16044D01*
X366845Y17366D01*
X368714Y19235D01*
X370036Y21525D01*
X370720Y24078D01*
Y24130D01*
D02*
G37*
G36*
X359410D02*
X350640D01*
Y24078D01*
X351324Y21525D01*
X352646Y19235D01*
X354515Y17366D01*
X356805Y16044D01*
X359358Y15360D01*
X359410D01*
Y24130D01*
D02*
G37*
%LPD*%
D30*
X601980Y533400D02*
X614680Y520700D01*
X81280Y533400D02*
X601980D01*
X68580Y520700D02*
X81280Y533400D01*
X68580Y12700D02*
Y520700D01*
Y12700D02*
X81280Y0D01*
X614680D01*
Y25400D01*
X640080Y50800D01*
Y368300D01*
X614680Y393700D02*
X640080Y368300D01*
X614680Y393700D02*
Y520700D01*
X195580Y287020D02*
X271780D01*
X182880Y274320D02*
X195580Y287020D01*
X167520Y246380D02*
X167580Y246440D01*
X340240Y246380D02*
X340300Y246440D01*
X421520Y246888D02*
X421580Y246948D01*
X370840Y246768D02*
Y403860D01*
X345440Y429260D02*
X370840Y403860D01*
X322580Y298668D02*
Y500282D01*
X305852Y281940D02*
X322580Y298668D01*
X320040Y508000D02*
X322424Y505616D01*
Y500438D02*
Y505616D01*
Y500438D02*
X322580Y500282D01*
X312420Y401320D02*
Y411480D01*
X269240Y454660D02*
X312420Y411480D01*
X302260Y388620D02*
Y409607D01*
X175260Y416560D02*
X200660Y391160D01*
X271780D01*
X208280Y375920D02*
X246380D01*
X251460Y381000D01*
X243840Y468027D02*
X302260Y409607D01*
X243840Y468027D02*
Y508000D01*
X269240Y454660D02*
Y508000D01*
X284480Y273268D02*
Y421640D01*
X279400Y426720D02*
X284480Y421640D01*
X169128Y426720D02*
X279400D01*
X167640Y428208D02*
Y508000D01*
Y428208D02*
X169128Y426720D01*
X182880Y68580D02*
Y274320D01*
X222468Y271780D02*
X282992D01*
X220980Y247868D02*
Y270292D01*
X282992Y271780D02*
X284480Y273268D01*
X220980Y270292D02*
X222468Y271780D01*
X219492Y246380D02*
X220980Y247868D01*
X215780Y246260D02*
X215900Y246380D01*
X219492D01*
X203200Y246260D02*
X215780D01*
X289560D02*
Y280452D01*
X291048Y281940D01*
X305852D01*
X371094Y97536D02*
Y162560D01*
X289814Y97028D02*
Y162052D01*
X203454Y97028D02*
Y162052D01*
X117094Y97028D02*
Y162052D01*
X439420Y53776D02*
Y147320D01*
X437932Y52288D02*
X439420Y53776D01*
X415072Y52288D02*
X437932D01*
X416306Y97536D02*
X416560Y97282D01*
X415072Y52288D02*
X416560Y53776D01*
X335026Y52288D02*
X415072D01*
X416560Y53776D02*
Y97282D01*
X333538Y50800D02*
X335026Y52288D01*
X314960Y50800D02*
X333538D01*
X335026Y52288D02*
Y97028D01*
X309880Y45720D02*
X314960Y50800D01*
X248920D02*
X304800D01*
X163794D02*
X248920D01*
X248666Y51054D02*
Y97028D01*
Y51054D02*
X248920Y50800D01*
X162306Y52288D02*
Y97028D01*
Y52288D02*
X163794Y50800D01*
X309880Y25400D02*
Y45720D01*
X304800Y50800D02*
X309880Y45720D01*
X416306Y97536D02*
Y162560D01*
X335026Y97028D02*
Y162052D01*
X248666Y97028D02*
Y162052D01*
X417313Y228101D02*
X418320Y229108D01*
X417313Y163567D02*
Y228101D01*
X416306Y162560D02*
X417313Y163567D01*
X335026Y162052D02*
X336033Y163059D01*
Y227593D02*
X337040Y228600D01*
X336033Y163059D02*
Y227593D01*
X249673Y163059D02*
Y227593D01*
X248666Y162052D02*
X249673Y163059D01*
Y227593D02*
X250680Y228600D01*
X163313Y163059D02*
Y227593D01*
X164320Y228600D01*
X162306Y162052D02*
X163313Y163059D01*
X345440Y429260D02*
Y508000D01*
X182880Y401320D02*
X208280Y375920D01*
X153980Y401320D02*
X182880D01*
X136108Y416560D02*
X175260D01*
X114300D02*
X142240Y444500D01*
Y508000D01*
X114300Y368300D02*
Y416560D01*
Y368300D02*
X127000Y355600D01*
X116840Y290837D02*
X127000Y300997D01*
X116840Y246260D02*
Y290837D01*
X127000Y300997D02*
Y355600D01*
X409720Y229108D02*
Y235004D01*
X406520Y238204D02*
X409720Y235004D01*
X406520Y238204D02*
Y246888D01*
X370967Y231641D02*
X372170Y230438D01*
X408390D01*
X409720Y229108D01*
X328440Y228813D02*
Y234496D01*
Y228600D02*
Y228813D01*
X325240Y237696D02*
Y246380D01*
Y237696D02*
X328440Y234496D01*
X325993Y231260D02*
X328440Y228813D01*
X289560Y231260D02*
X325993D01*
X242080Y228813D02*
Y234496D01*
Y228600D02*
Y228813D01*
X238880Y237696D02*
X242080Y234496D01*
X238880Y237696D02*
Y246380D01*
X239633Y231260D02*
X242080Y228813D01*
X203200Y231260D02*
X239633D01*
X155720Y228813D02*
Y234496D01*
Y228600D02*
Y228813D01*
X152520Y237696D02*
X155720Y234496D01*
X152520Y237696D02*
Y246380D01*
X153273Y231260D02*
X155720Y228813D01*
X116840Y231260D02*
X153273D01*
X370967Y162687D02*
X371094Y162560D01*
X370967Y162687D02*
Y231641D01*
X370840Y231768D02*
X370967Y231641D01*
X289687Y162179D02*
Y231133D01*
Y162179D02*
X289814Y162052D01*
X289560Y231260D02*
X289687Y231133D01*
X203327Y162179D02*
X203454Y162052D01*
X203327Y162179D02*
Y231133D01*
X203200Y231260D02*
X203327Y231133D01*
X116840Y231260D02*
X116967Y231133D01*
Y162179D02*
X117094Y162052D01*
X116967Y162179D02*
Y231133D01*
X411480Y426720D02*
Y508000D01*
Y426720D02*
X612140Y226060D01*
X133780Y401120D02*
Y414232D01*
X136108Y416560D01*
X153780Y401120D02*
X153980Y401320D01*
X532348Y91440D02*
X554772D01*
X556260Y106060D02*
X556380Y106180D01*
X556260Y92928D02*
Y106060D01*
X554772Y91440D02*
X556260Y92928D01*
X530860Y43180D02*
Y89952D01*
X532348Y91440D01*
X513080Y25400D02*
X530860Y43180D01*
X571440Y106740D02*
Y132140D01*
X571500Y132200D01*
X571380Y106680D02*
X571440Y106740D01*
X520580Y106680D02*
X520640Y106740D01*
Y132140D01*
X520700Y132200D01*
X469840Y106740D02*
Y132140D01*
X469900Y132200D01*
X469780Y106680D02*
X469840Y106740D01*
X556380Y106180D02*
Y106680D01*
X505580Y43300D02*
Y106680D01*
X487680Y25400D02*
X505580Y43300D01*
X454780Y32900D02*
Y106680D01*
Y32900D02*
X462280Y25400D01*
D31*
X411480Y508000D02*
D03*
X436880D02*
D03*
X462280D02*
D03*
X487680D02*
D03*
X513080D02*
D03*
X538480D02*
D03*
X563880D02*
D03*
X589280D02*
D03*
X370840D02*
D03*
X345440D02*
D03*
X294640D02*
D03*
X269240D02*
D03*
X243840D02*
D03*
X218440D02*
D03*
X193040D02*
D03*
X167640D02*
D03*
X142240D02*
D03*
X320040D02*
D03*
X589280Y25400D02*
D03*
X563880D02*
D03*
X538480D02*
D03*
X513080D02*
D03*
X487680D02*
D03*
X462280D02*
D03*
X233680D02*
D03*
X259080D02*
D03*
X284480D02*
D03*
X309880D02*
D03*
X335280D02*
D03*
X360680D02*
D03*
X386080D02*
D03*
X411480D02*
D03*
X612140Y276860D02*
D03*
Y251460D02*
D03*
Y226060D02*
D03*
Y200660D02*
D03*
Y175260D02*
D03*
Y149860D02*
D03*
Y124460D02*
D03*
D32*
X106680Y328420D02*
D03*
Y448820D02*
D03*
D33*
X133780Y376120D02*
D03*
Y401120D02*
D03*
X153780D02*
D03*
Y376120D02*
D03*
D34*
X248666Y162052D02*
D03*
X203454D02*
D03*
X248666Y97028D02*
D03*
X203454D02*
D03*
X416306Y162560D02*
D03*
X371094D02*
D03*
X416306Y97536D02*
D03*
X371094D02*
D03*
X162306Y162052D02*
D03*
X117094D02*
D03*
X162306Y97028D02*
D03*
X117094D02*
D03*
X335026Y162052D02*
D03*
X289814D02*
D03*
X335026Y97028D02*
D03*
X289814D02*
D03*
D35*
X612140Y302260D02*
D03*
D36*
X271780Y287020D02*
D03*
X312420Y401320D02*
D03*
X302260Y388620D02*
D03*
X271780Y391160D02*
D03*
X251460Y381000D02*
D03*
X182880Y68580D02*
D03*
X439420Y147320D02*
D03*
X571500Y132200D02*
D03*
X520700D02*
D03*
X469900D02*
D03*
D37*
X421520Y246888D02*
D03*
X406520D02*
D03*
X556380Y106680D02*
D03*
X571380D02*
D03*
X505580D02*
D03*
X520580D02*
D03*
X454780D02*
D03*
X469780D02*
D03*
X340240Y246380D02*
D03*
X325240D02*
D03*
X253880D02*
D03*
X238880D02*
D03*
X167520D02*
D03*
X152520D02*
D03*
D38*
X155720Y228600D02*
D03*
X164320D02*
D03*
X242080D02*
D03*
X250680D02*
D03*
X409720Y229108D02*
D03*
X418320D02*
D03*
X328440Y228600D02*
D03*
X337040D02*
D03*
D39*
X370840Y246768D02*
D03*
Y231768D02*
D03*
X289560Y246260D02*
D03*
Y231260D02*
D03*
X203200Y246260D02*
D03*
Y231260D02*
D03*
X116840Y246260D02*
D03*
Y231260D02*
D03*
M02*
