G04*
G04 #@! TF.GenerationSoftware,Altium Limited,Altium Designer,21.6.1 (37)*
G04*
G04 Layer_Physical_Order=1*
G04 Layer_Color=15238730*
%FSLAX44Y44*%
%MOMM*%
G71*
G04*
G04 #@! TF.SameCoordinates,45D27BC1-988F-4E8A-9F01-A3EFFFD16F67*
G04*
G04*
G04 #@! TF.FilePolarity,Positive*
G04*
G01*
G75*
G04:AMPARAMS|DCode=16|XSize=0.7mm|YSize=0.9mm|CornerRadius=0.175mm|HoleSize=0mm|Usage=FLASHONLY|Rotation=270.000|XOffset=0mm|YOffset=0mm|HoleType=Round|Shape=RoundedRectangle|*
%AMROUNDEDRECTD16*
21,1,0.7000,0.5500,0,0,270.0*
21,1,0.3500,0.9000,0,0,270.0*
1,1,0.3500,-0.2750,-0.1750*
1,1,0.3500,-0.2750,0.1750*
1,1,0.3500,0.2750,0.1750*
1,1,0.3500,0.2750,-0.1750*
%
%ADD16ROUNDEDRECTD16*%
%ADD17R,0.8000X0.8000*%
G04:AMPARAMS|DCode=18|XSize=5.6mm|YSize=2.1mm|CornerRadius=0.525mm|HoleSize=0mm|Usage=FLASHONLY|Rotation=0.000|XOffset=0mm|YOffset=0mm|HoleType=Round|Shape=RoundedRectangle|*
%AMROUNDEDRECTD18*
21,1,5.6000,1.0500,0,0,0.0*
21,1,4.5500,2.1000,0,0,0.0*
1,1,1.0500,2.2750,-0.5250*
1,1,1.0500,-2.2750,-0.5250*
1,1,1.0500,-2.2750,0.5250*
1,1,1.0500,2.2750,0.5250*
%
%ADD18ROUNDEDRECTD18*%
G04:AMPARAMS|DCode=19|XSize=1.31mm|YSize=0.62mm|CornerRadius=0.0775mm|HoleSize=0mm|Usage=FLASHONLY|Rotation=270.000|XOffset=0mm|YOffset=0mm|HoleType=Round|Shape=RoundedRectangle|*
%AMROUNDEDRECTD19*
21,1,1.3100,0.4650,0,0,270.0*
21,1,1.1550,0.6200,0,0,270.0*
1,1,0.1550,-0.2325,-0.5775*
1,1,0.1550,-0.2325,0.5775*
1,1,0.1550,0.2325,0.5775*
1,1,0.1550,0.2325,-0.5775*
%
%ADD19ROUNDEDRECTD19*%
%ADD30C,0.2540*%
%ADD31C,1.5000*%
%ADD32C,2.3000*%
%ADD33C,1.4280*%
%ADD34O,1.5240X3.0480*%
%ADD35R,1.5000X1.5000*%
%ADD36C,0.6000*%
G36*
X614680Y520700D02*
Y393700D01*
X640080Y368300D01*
Y50800D01*
X614680Y25400D01*
Y0D01*
X81280D01*
X68580Y12700D01*
Y520700D01*
X81280Y533400D01*
X601980D01*
X614680Y520700D01*
D02*
G37*
%LPC*%
G36*
X108244Y525525D02*
X105116D01*
X104960Y525460D01*
X104795Y525493D01*
X101728Y524883D01*
X101587Y524789D01*
X101418D01*
X98529Y523592D01*
X98410Y523473D01*
X98244Y523440D01*
X95644Y521702D01*
X95550Y521562D01*
X95394Y521497D01*
X93183Y519286D01*
X93118Y519130D01*
X92978Y519036D01*
X91240Y516436D01*
X91207Y516270D01*
X91088Y516151D01*
X89891Y513262D01*
Y513093D01*
X89797Y512952D01*
X89187Y509885D01*
X89220Y509720D01*
X89155Y509563D01*
Y506436D01*
X89220Y506280D01*
X89187Y506115D01*
X89797Y503048D01*
X89891Y502907D01*
Y502738D01*
X91088Y499849D01*
X91207Y499730D01*
X91240Y499564D01*
X92978Y496964D01*
X93118Y496870D01*
X93183Y496714D01*
X95394Y494503D01*
X95550Y494438D01*
X95644Y494297D01*
X98244Y492560D01*
X98410Y492527D01*
X98529Y492408D01*
X101418Y491211D01*
X101587D01*
X101728Y491117D01*
X104795Y490507D01*
X104960Y490540D01*
X105116Y490475D01*
X108244D01*
X108400Y490540D01*
X108565Y490507D01*
X111632Y491117D01*
X111773Y491211D01*
X111942D01*
X114831Y492408D01*
X114950Y492527D01*
X115116Y492560D01*
X117716Y494297D01*
X117810Y494438D01*
X117966Y494503D01*
X120177Y496714D01*
X120242Y496870D01*
X120382Y496964D01*
X122120Y499564D01*
X122153Y499730D01*
X122272Y499849D01*
X123469Y502738D01*
Y502907D01*
X123563Y503048D01*
X124173Y506115D01*
X124140Y506280D01*
X124205Y506436D01*
Y509563D01*
X124140Y509720D01*
X124173Y509885D01*
X123563Y512952D01*
X123469Y513093D01*
Y513262D01*
X122272Y516151D01*
X122153Y516270D01*
X122120Y516436D01*
X120382Y519036D01*
X120242Y519130D01*
X120177Y519286D01*
X117966Y521497D01*
X117810Y521562D01*
X117716Y521702D01*
X115116Y523440D01*
X114950Y523473D01*
X114831Y523592D01*
X111942Y524789D01*
X111773D01*
X111632Y524883D01*
X108565Y525493D01*
X108400Y525460D01*
X108244Y525525D01*
D02*
G37*
G36*
X219762Y518040D02*
X219710D01*
Y509270D01*
X228480D01*
Y509322D01*
X227796Y511875D01*
X226474Y514165D01*
X224605Y516034D01*
X222315Y517356D01*
X219762Y518040D01*
D02*
G37*
G36*
X217170D02*
X217118D01*
X214565Y517356D01*
X212275Y516034D01*
X210406Y514165D01*
X209084Y511875D01*
X208400Y509322D01*
Y509270D01*
X217170D01*
Y518040D01*
D02*
G37*
G36*
X590468Y517024D02*
X588092D01*
X585797Y516409D01*
X583739Y515221D01*
X582059Y513541D01*
X580871Y511483D01*
X580256Y509188D01*
Y506812D01*
X580871Y504517D01*
X582059Y502459D01*
X583739Y500779D01*
X585797Y499591D01*
X588092Y498976D01*
X590468D01*
X592763Y499591D01*
X594821Y500779D01*
X596501Y502459D01*
X597689Y504517D01*
X598304Y506812D01*
Y509188D01*
X597689Y511483D01*
X596501Y513541D01*
X594821Y515221D01*
X592763Y516409D01*
X590468Y517024D01*
D02*
G37*
G36*
X565068D02*
X562692D01*
X560397Y516409D01*
X558339Y515221D01*
X556659Y513541D01*
X555471Y511483D01*
X554856Y509188D01*
Y506812D01*
X555471Y504517D01*
X556659Y502459D01*
X558339Y500779D01*
X560397Y499591D01*
X562692Y498976D01*
X565068D01*
X567363Y499591D01*
X569421Y500779D01*
X571101Y502459D01*
X572289Y504517D01*
X572904Y506812D01*
Y509188D01*
X572289Y511483D01*
X571101Y513541D01*
X569421Y515221D01*
X567363Y516409D01*
X565068Y517024D01*
D02*
G37*
G36*
X539668D02*
X537292D01*
X534997Y516409D01*
X532939Y515221D01*
X531259Y513541D01*
X530071Y511483D01*
X529456Y509188D01*
Y506812D01*
X530071Y504517D01*
X531259Y502459D01*
X532939Y500779D01*
X534997Y499591D01*
X537292Y498976D01*
X539668D01*
X541963Y499591D01*
X544021Y500779D01*
X545701Y502459D01*
X546889Y504517D01*
X547504Y506812D01*
Y509188D01*
X546889Y511483D01*
X545701Y513541D01*
X544021Y515221D01*
X541963Y516409D01*
X539668Y517024D01*
D02*
G37*
G36*
X514268D02*
X511892D01*
X509597Y516409D01*
X507539Y515221D01*
X505859Y513541D01*
X504671Y511483D01*
X504056Y509188D01*
Y506812D01*
X504671Y504517D01*
X505859Y502459D01*
X507539Y500779D01*
X509597Y499591D01*
X511892Y498976D01*
X514268D01*
X516563Y499591D01*
X518621Y500779D01*
X520301Y502459D01*
X521489Y504517D01*
X522104Y506812D01*
Y509188D01*
X521489Y511483D01*
X520301Y513541D01*
X518621Y515221D01*
X516563Y516409D01*
X514268Y517024D01*
D02*
G37*
G36*
X488868D02*
X486492D01*
X484197Y516409D01*
X482139Y515221D01*
X480459Y513541D01*
X479271Y511483D01*
X478656Y509188D01*
Y506812D01*
X479271Y504517D01*
X480459Y502459D01*
X482139Y500779D01*
X484197Y499591D01*
X486492Y498976D01*
X488868D01*
X491163Y499591D01*
X493221Y500779D01*
X494901Y502459D01*
X496089Y504517D01*
X496704Y506812D01*
Y509188D01*
X496089Y511483D01*
X494901Y513541D01*
X493221Y515221D01*
X491163Y516409D01*
X488868Y517024D01*
D02*
G37*
G36*
X412668D02*
X410292D01*
X407997Y516409D01*
X405939Y515221D01*
X404259Y513541D01*
X403071Y511483D01*
X402456Y509188D01*
Y506812D01*
X403071Y504517D01*
X404259Y502459D01*
X405939Y500779D01*
X407997Y499591D01*
X410292Y498976D01*
X412668D01*
X414963Y499591D01*
X417021Y500779D01*
X418701Y502459D01*
X419889Y504517D01*
X420504Y506812D01*
Y509188D01*
X419889Y511483D01*
X418701Y513541D01*
X417021Y515221D01*
X414963Y516409D01*
X412668Y517024D01*
D02*
G37*
G36*
X346628D02*
X344252D01*
X341957Y516409D01*
X339899Y515221D01*
X338219Y513541D01*
X337031Y511483D01*
X336416Y509188D01*
Y506812D01*
X337031Y504517D01*
X338219Y502459D01*
X339899Y500779D01*
X341957Y499591D01*
X344252Y498976D01*
X346628D01*
X348923Y499591D01*
X350981Y500779D01*
X352661Y502459D01*
X353849Y504517D01*
X354464Y506812D01*
Y509188D01*
X353849Y511483D01*
X352661Y513541D01*
X350981Y515221D01*
X348923Y516409D01*
X346628Y517024D01*
D02*
G37*
G36*
X321228D02*
X318852D01*
X316557Y516409D01*
X314499Y515221D01*
X312819Y513541D01*
X311631Y511483D01*
X311016Y509188D01*
Y506812D01*
X311631Y504517D01*
X312819Y502459D01*
X314499Y500779D01*
X316557Y499591D01*
X318852Y498976D01*
X321228D01*
X323523Y499591D01*
X325581Y500779D01*
X327261Y502459D01*
X328449Y504517D01*
X329064Y506812D01*
Y509188D01*
X328449Y511483D01*
X327261Y513541D01*
X325581Y515221D01*
X323523Y516409D01*
X321228Y517024D01*
D02*
G37*
G36*
X295828D02*
X293452D01*
X291157Y516409D01*
X289099Y515221D01*
X287419Y513541D01*
X286231Y511483D01*
X285616Y509188D01*
Y506812D01*
X286231Y504517D01*
X287419Y502459D01*
X289099Y500779D01*
X291157Y499591D01*
X293452Y498976D01*
X295828D01*
X298123Y499591D01*
X300181Y500779D01*
X301861Y502459D01*
X303049Y504517D01*
X303664Y506812D01*
Y509188D01*
X303049Y511483D01*
X301861Y513541D01*
X300181Y515221D01*
X298123Y516409D01*
X295828Y517024D01*
D02*
G37*
G36*
X270428D02*
X268052D01*
X265757Y516409D01*
X263699Y515221D01*
X262019Y513541D01*
X260831Y511483D01*
X260216Y509188D01*
Y506812D01*
X260831Y504517D01*
X262019Y502459D01*
X263699Y500779D01*
X265757Y499591D01*
X268052Y498976D01*
X270428D01*
X272723Y499591D01*
X274781Y500779D01*
X276461Y502459D01*
X277649Y504517D01*
X278264Y506812D01*
Y509188D01*
X277649Y511483D01*
X276461Y513541D01*
X274781Y515221D01*
X272723Y516409D01*
X270428Y517024D01*
D02*
G37*
G36*
X245028D02*
X242652D01*
X240357Y516409D01*
X238299Y515221D01*
X236619Y513541D01*
X235431Y511483D01*
X234816Y509188D01*
Y506812D01*
X235431Y504517D01*
X236619Y502459D01*
X238299Y500779D01*
X240357Y499591D01*
X242652Y498976D01*
X245028D01*
X247323Y499591D01*
X249381Y500779D01*
X251061Y502459D01*
X252249Y504517D01*
X252864Y506812D01*
Y509188D01*
X252249Y511483D01*
X251061Y513541D01*
X249381Y515221D01*
X247323Y516409D01*
X245028Y517024D01*
D02*
G37*
G36*
X194228D02*
X191852D01*
X189557Y516409D01*
X187499Y515221D01*
X185819Y513541D01*
X184631Y511483D01*
X184016Y509188D01*
Y506812D01*
X184631Y504517D01*
X185819Y502459D01*
X187499Y500779D01*
X189557Y499591D01*
X191852Y498976D01*
X194228D01*
X196523Y499591D01*
X198581Y500779D01*
X200261Y502459D01*
X201449Y504517D01*
X202064Y506812D01*
Y509188D01*
X201449Y511483D01*
X200261Y513541D01*
X198581Y515221D01*
X196523Y516409D01*
X194228Y517024D01*
D02*
G37*
G36*
X168828D02*
X166452D01*
X164157Y516409D01*
X162099Y515221D01*
X160419Y513541D01*
X159231Y511483D01*
X158616Y509188D01*
Y506812D01*
X159231Y504517D01*
X160419Y502459D01*
X162099Y500779D01*
X164157Y499591D01*
X166452Y498976D01*
X168828D01*
X171123Y499591D01*
X173181Y500779D01*
X174861Y502459D01*
X176049Y504517D01*
X176664Y506812D01*
Y509188D01*
X176049Y511483D01*
X174861Y513541D01*
X173181Y515221D01*
X171123Y516409D01*
X168828Y517024D01*
D02*
G37*
G36*
X143428D02*
X141052D01*
X138757Y516409D01*
X136699Y515221D01*
X135019Y513541D01*
X133831Y511483D01*
X133216Y509188D01*
Y506812D01*
X133831Y504517D01*
X135019Y502459D01*
X136699Y500779D01*
X138757Y499591D01*
X141052Y498976D01*
X143428D01*
X145723Y499591D01*
X147781Y500779D01*
X149461Y502459D01*
X150649Y504517D01*
X151264Y506812D01*
Y509188D01*
X150649Y511483D01*
X149461Y513541D01*
X147781Y515221D01*
X145723Y516409D01*
X143428Y517024D01*
D02*
G37*
G36*
X228480Y506730D02*
X219710D01*
Y497960D01*
X219762D01*
X222315Y498644D01*
X224605Y499966D01*
X226474Y501835D01*
X227796Y504125D01*
X228480Y506678D01*
Y506730D01*
D02*
G37*
G36*
X217170D02*
X208400D01*
Y506678D01*
X209084Y504125D01*
X210406Y501835D01*
X212275Y499966D01*
X214565Y498644D01*
X217118Y497960D01*
X217170D01*
Y506730D01*
D02*
G37*
G36*
X249570Y469282D02*
X204070D01*
X202302Y469050D01*
X200654Y468367D01*
X199239Y467281D01*
X198153Y465866D01*
X197470Y464218D01*
X197238Y462450D01*
Y460049D01*
X190500D01*
X189410Y459832D01*
X188486Y459214D01*
X188486Y459214D01*
X185946Y456674D01*
X185328Y455750D01*
X185111Y454660D01*
X185111Y454660D01*
Y421640D01*
X185111Y421640D01*
X185328Y420550D01*
X185946Y419626D01*
X207686Y397886D01*
X207686Y397886D01*
X208610Y397268D01*
X209700Y397051D01*
X209700Y397051D01*
X214934D01*
X214970Y396873D01*
X215694Y395790D01*
X216777Y395066D01*
X217349Y394952D01*
X217955Y393876D01*
X218172Y392786D01*
X218790Y391862D01*
X223211Y387440D01*
Y370899D01*
X222465D01*
X221568Y370721D01*
X220807Y370213D01*
X220299Y369452D01*
X220121Y368555D01*
Y357005D01*
X220299Y356108D01*
X220807Y355348D01*
X221568Y354839D01*
X222465Y354661D01*
X227115D01*
X228012Y354839D01*
X228773Y355348D01*
X229281Y356108D01*
X229459Y357005D01*
Y368555D01*
X229281Y369452D01*
X228909Y370009D01*
Y388620D01*
X228692Y389710D01*
X228074Y390634D01*
X228074Y390634D01*
X224838Y393871D01*
X225196Y395309D01*
X225914Y395790D01*
X226638Y396873D01*
X226892Y398150D01*
Y401650D01*
X226638Y402927D01*
X225914Y404010D01*
X224831Y404734D01*
X223554Y404988D01*
X218054D01*
X216777Y404734D01*
X215694Y404010D01*
X214970Y402927D01*
X214934Y402749D01*
X210880D01*
X190809Y422820D01*
Y453480D01*
X191680Y454351D01*
X197238D01*
Y451950D01*
X197470Y450182D01*
X198153Y448534D01*
X199239Y447119D01*
X200654Y446033D01*
X202302Y445350D01*
X204070Y445118D01*
X249570D01*
X251338Y445350D01*
X252986Y446033D01*
X254401Y447119D01*
X255487Y448534D01*
X256170Y450182D01*
X256402Y451950D01*
Y462450D01*
X256170Y464218D01*
X255487Y465866D01*
X254401Y467281D01*
X252986Y468367D01*
X251338Y469050D01*
X249570Y469282D01*
D02*
G37*
G36*
X108395Y461844D02*
X104965D01*
X101653Y460956D01*
X98683Y459242D01*
X96258Y456817D01*
X94544Y453847D01*
X93656Y450535D01*
Y447105D01*
X94544Y443793D01*
X96258Y440823D01*
X98683Y438398D01*
X101653Y436684D01*
X104965Y435796D01*
X108395D01*
X111707Y436684D01*
X114677Y438398D01*
X117102Y440823D01*
X118816Y443793D01*
X119704Y447105D01*
Y450535D01*
X118816Y453847D01*
X117102Y456817D01*
X114677Y459242D01*
X111707Y460956D01*
X108395Y461844D01*
D02*
G37*
G36*
X243874Y419024D02*
X242394D01*
Y414170D01*
X248248D01*
Y414650D01*
X247915Y416324D01*
X246967Y417743D01*
X245548Y418691D01*
X243874Y419024D01*
D02*
G37*
G36*
X223554D02*
X222074D01*
Y414170D01*
X227928D01*
Y414650D01*
X227595Y416324D01*
X226647Y417743D01*
X225228Y418691D01*
X223554Y419024D01*
D02*
G37*
G36*
X239854D02*
X238374D01*
X236700Y418691D01*
X235281Y417743D01*
X234333Y416324D01*
X234000Y414650D01*
Y414170D01*
X239854D01*
Y419024D01*
D02*
G37*
G36*
X219534D02*
X218054D01*
X216380Y418691D01*
X214961Y417743D01*
X214013Y416324D01*
X213680Y414650D01*
Y414170D01*
X219534D01*
Y419024D01*
D02*
G37*
G36*
X248248Y411630D02*
X242394D01*
Y406776D01*
X243874D01*
X245548Y407109D01*
X246967Y408057D01*
X247915Y409476D01*
X248248Y411150D01*
Y411630D01*
D02*
G37*
G36*
X239854D02*
X234000D01*
Y411150D01*
X234333Y409476D01*
X235281Y408057D01*
X236700Y407109D01*
X238374Y406776D01*
X239854D01*
Y411630D01*
D02*
G37*
G36*
X227928D02*
X222074D01*
Y406776D01*
X223554D01*
X225228Y407109D01*
X226647Y408057D01*
X227595Y409476D01*
X227928Y411150D01*
Y411630D01*
D02*
G37*
G36*
X219534D02*
X213680D01*
Y411150D01*
X214013Y409476D01*
X214961Y408057D01*
X216380Y407109D01*
X218054Y406776D01*
X219534D01*
Y411630D01*
D02*
G37*
G36*
X344570Y469282D02*
X299070D01*
X297302Y469050D01*
X295654Y468367D01*
X294239Y467281D01*
X293153Y465866D01*
X292470Y464218D01*
X292238Y462450D01*
Y451950D01*
X292470Y450182D01*
X293153Y448534D01*
X294239Y447119D01*
X295654Y446033D01*
X297302Y445350D01*
X299070Y445118D01*
X344570D01*
X346338Y445350D01*
X347986Y446033D01*
X349401Y447119D01*
X350487Y448534D01*
X351170Y450182D01*
X351402Y451950D01*
Y454351D01*
X357831D01*
Y409963D01*
X292365D01*
X291274Y409746D01*
X290350Y409128D01*
X290350Y409128D01*
X283971Y402749D01*
X246994D01*
X246958Y402927D01*
X246234Y404010D01*
X245151Y404734D01*
X243874Y404988D01*
X238374D01*
X237097Y404734D01*
X236014Y404010D01*
X235290Y402927D01*
X235036Y401650D01*
Y398150D01*
X235290Y396873D01*
X236014Y395790D01*
X237097Y395066D01*
X238275Y394832D01*
Y392164D01*
X236746Y390634D01*
X236128Y389710D01*
X235911Y388620D01*
X235911Y388620D01*
Y370899D01*
X235165D01*
X234268Y370721D01*
X233507Y370213D01*
X232999Y369452D01*
X232821Y368555D01*
Y357005D01*
X232999Y356108D01*
X233507Y355348D01*
X234268Y354839D01*
X235165Y354661D01*
X239815D01*
X240712Y354839D01*
X241472Y355348D01*
X241981Y356108D01*
X242159Y357005D01*
Y368555D01*
X241981Y369452D01*
X241609Y370009D01*
Y387440D01*
X243138Y388970D01*
X243138Y388970D01*
X243756Y389894D01*
X243973Y390984D01*
X243973Y390984D01*
Y394832D01*
X245151Y395066D01*
X246234Y395790D01*
X246958Y396873D01*
X246994Y397051D01*
X285150D01*
X285151Y397051D01*
X285441Y396813D01*
Y370795D01*
X285068Y370721D01*
X284307Y370213D01*
X283799Y369452D01*
X283621Y368555D01*
Y357005D01*
X283799Y356108D01*
X284307Y355348D01*
X285068Y354839D01*
X285965Y354661D01*
X290615D01*
X291512Y354839D01*
X292272Y355348D01*
X292781Y356108D01*
X292959Y357005D01*
Y368555D01*
X292781Y369452D01*
X292272Y370213D01*
X291512Y370721D01*
X291139Y370795D01*
Y396112D01*
X293498Y398471D01*
X308871D01*
X309857Y397485D01*
X311520Y396796D01*
X313320D01*
X314983Y397485D01*
X316255Y398757D01*
X316944Y400420D01*
Y402220D01*
X316623Y402995D01*
X317471Y404265D01*
X359192D01*
X359192Y404265D01*
X360282Y404482D01*
X361207Y405100D01*
X362694Y406587D01*
X362694Y406587D01*
X363312Y407512D01*
X363529Y408602D01*
Y455712D01*
X363312Y456802D01*
X362694Y457727D01*
X362694Y457727D01*
X361207Y459214D01*
X360282Y459832D01*
X359192Y460049D01*
X359192Y460049D01*
X351402D01*
Y462450D01*
X351170Y464218D01*
X350487Y465866D01*
X349401Y467281D01*
X347986Y468367D01*
X346338Y469050D01*
X344570Y469282D01*
D02*
G37*
G36*
X154921Y409784D02*
X152639D01*
X150436Y409193D01*
X148460Y408053D01*
X146847Y406440D01*
X145707Y404464D01*
X145116Y402261D01*
Y399979D01*
X145707Y397776D01*
X146847Y395800D01*
X148460Y394187D01*
X150436Y393046D01*
X152639Y392456D01*
X154921D01*
X157124Y393046D01*
X159100Y394187D01*
X160713Y395800D01*
X161854Y397776D01*
X162444Y399979D01*
Y402261D01*
X161854Y404464D01*
X160713Y406440D01*
X159100Y408053D01*
X157124Y409193D01*
X154921Y409784D01*
D02*
G37*
G36*
X134921D02*
X132639D01*
X130436Y409193D01*
X128460Y408053D01*
X126847Y406440D01*
X125707Y404464D01*
X125116Y402261D01*
Y399979D01*
X125707Y397776D01*
X126847Y395800D01*
X128460Y394187D01*
X130436Y393046D01*
X132639Y392456D01*
X134921D01*
X137124Y393046D01*
X139100Y394187D01*
X140713Y395800D01*
X141854Y397776D01*
X142444Y399979D01*
Y402261D01*
X141854Y404464D01*
X140713Y406440D01*
X139100Y408053D01*
X137124Y409193D01*
X134921Y409784D01*
D02*
G37*
G36*
X135054Y385800D02*
X135050D01*
Y377390D01*
X143460D01*
Y377394D01*
X142800Y379856D01*
X141526Y382064D01*
X139724Y383866D01*
X137516Y385140D01*
X135054Y385800D01*
D02*
G37*
G36*
X132510D02*
X132506D01*
X130044Y385140D01*
X127836Y383866D01*
X126034Y382064D01*
X124760Y379856D01*
X124100Y377394D01*
Y377390D01*
X132510D01*
Y385800D01*
D02*
G37*
G36*
X616244Y373125D02*
X613116D01*
X612960Y373060D01*
X612795Y373093D01*
X609728Y372483D01*
X609587Y372389D01*
X609418D01*
X606529Y371192D01*
X606410Y371073D01*
X606244Y371040D01*
X603644Y369302D01*
X603550Y369162D01*
X603394Y369097D01*
X601183Y366886D01*
X601118Y366730D01*
X600978Y366636D01*
X599240Y364036D01*
X599207Y363870D01*
X599088Y363751D01*
X597891Y360862D01*
Y360693D01*
X597797Y360552D01*
X597187Y357485D01*
X597220Y357320D01*
X597155Y357164D01*
Y354036D01*
X597220Y353880D01*
X597187Y353715D01*
X597797Y350648D01*
X597891Y350507D01*
Y350338D01*
X599088Y347449D01*
X599207Y347330D01*
X599240Y347164D01*
X600978Y344564D01*
X601118Y344470D01*
X601183Y344314D01*
X603394Y342103D01*
X603550Y342038D01*
X603644Y341898D01*
X606244Y340160D01*
X606410Y340127D01*
X606529Y340008D01*
X609418Y338811D01*
X609587D01*
X609728Y338717D01*
X612795Y338107D01*
X612960Y338140D01*
X613116Y338075D01*
X616244D01*
X616400Y338140D01*
X616565Y338107D01*
X619632Y338717D01*
X619773Y338811D01*
X619942D01*
X622831Y340008D01*
X622950Y340127D01*
X623116Y340160D01*
X625716Y341898D01*
X625810Y342038D01*
X625966Y342103D01*
X628177Y344314D01*
X628242Y344470D01*
X628382Y344564D01*
X630120Y347164D01*
X630153Y347330D01*
X630272Y347449D01*
X631469Y350338D01*
Y350507D01*
X631563Y350648D01*
X632173Y353715D01*
X632140Y353880D01*
X632205Y354036D01*
Y357164D01*
X632140Y357320D01*
X632173Y357485D01*
X631563Y360552D01*
X631469Y360693D01*
Y360862D01*
X630272Y363751D01*
X630153Y363870D01*
X630120Y364036D01*
X628382Y366636D01*
X628242Y366730D01*
X628177Y366886D01*
X625966Y369097D01*
X625810Y369162D01*
X625716Y369302D01*
X623116Y371040D01*
X622950Y371073D01*
X622831Y371192D01*
X619942Y372389D01*
X619773D01*
X619632Y372483D01*
X616565Y373093D01*
X616400Y373060D01*
X616244Y373125D01*
D02*
G37*
G36*
X143460Y374850D02*
X135050D01*
Y366440D01*
X135054D01*
X137516Y367100D01*
X139724Y368374D01*
X141526Y370176D01*
X142800Y372384D01*
X143460Y374846D01*
Y374850D01*
D02*
G37*
G36*
X132510D02*
X124100D01*
Y374846D01*
X124760Y372384D01*
X126034Y370176D01*
X127836Y368374D01*
X130044Y367100D01*
X132506Y366440D01*
X132510D01*
Y374850D01*
D02*
G37*
G36*
X316015Y371935D02*
X314960D01*
Y364050D01*
X319395D01*
Y368555D01*
X319138Y369848D01*
X318405Y370945D01*
X317308Y371678D01*
X316015Y371935D01*
D02*
G37*
G36*
X312420D02*
X311365D01*
X310072Y371678D01*
X308975Y370945D01*
X308242Y369848D01*
X307985Y368555D01*
Y364050D01*
X312420D01*
Y371935D01*
D02*
G37*
G36*
X303160Y393144D02*
X301360D01*
X299697Y392455D01*
X298425Y391183D01*
X297736Y389520D01*
Y387720D01*
X298425Y386057D01*
X298776Y385706D01*
Y370899D01*
X298665D01*
X297768Y370721D01*
X297008Y370213D01*
X296499Y369452D01*
X296321Y368555D01*
Y357005D01*
X296499Y356108D01*
X297008Y355348D01*
X297768Y354839D01*
X298665Y354661D01*
X303315D01*
X304212Y354839D01*
X304972Y355348D01*
X305481Y356108D01*
X305659Y357005D01*
Y368555D01*
X305481Y369452D01*
X304972Y370213D01*
X304474Y370546D01*
Y384640D01*
X304823Y384785D01*
X306095Y386057D01*
X306784Y387720D01*
Y389520D01*
X306095Y391183D01*
X304823Y392455D01*
X303160Y393144D01*
D02*
G37*
G36*
X272680Y395684D02*
X270880D01*
X269217Y394995D01*
X267945Y393723D01*
X267256Y392060D01*
Y390665D01*
X260876Y384284D01*
X260258Y383360D01*
X260041Y382270D01*
X260041Y382270D01*
Y370795D01*
X259668Y370721D01*
X258908Y370213D01*
X258399Y369452D01*
X258221Y368555D01*
Y357005D01*
X258399Y356108D01*
X258908Y355348D01*
X259668Y354839D01*
X260565Y354661D01*
X265215D01*
X266112Y354839D01*
X266873Y355348D01*
X267381Y356108D01*
X267559Y357005D01*
Y368555D01*
X267381Y369452D01*
X266873Y370213D01*
X266112Y370721D01*
X265739Y370795D01*
Y381090D01*
X271285Y386636D01*
X272680D01*
X274343Y387325D01*
X275615Y388597D01*
X276304Y390260D01*
Y392060D01*
X275615Y393723D01*
X274343Y394995D01*
X272680Y395684D01*
D02*
G37*
G36*
X252360Y385524D02*
X250560D01*
X248897Y384835D01*
X247625Y383563D01*
X246936Y381900D01*
Y380100D01*
X247385Y379015D01*
X247341Y378794D01*
X247341Y378794D01*
Y370795D01*
X246968Y370721D01*
X246208Y370213D01*
X245699Y369452D01*
X245521Y368555D01*
Y357005D01*
X245699Y356108D01*
X246208Y355348D01*
X246968Y354839D01*
X247865Y354661D01*
X252515D01*
X253412Y354839D01*
X254172Y355348D01*
X254681Y356108D01*
X254859Y357005D01*
Y368555D01*
X254681Y369452D01*
X254172Y370213D01*
X253412Y370721D01*
X253039Y370795D01*
Y376757D01*
X254023Y377165D01*
X255295Y378437D01*
X255984Y380100D01*
Y381900D01*
X255295Y383563D01*
X254023Y384835D01*
X252360Y385524D01*
D02*
G37*
G36*
X319395Y361510D02*
X314960D01*
Y353625D01*
X316015D01*
X317308Y353882D01*
X318405Y354615D01*
X319138Y355712D01*
X319395Y357005D01*
Y361510D01*
D02*
G37*
G36*
X312420D02*
X307985D01*
Y357005D01*
X308242Y355712D01*
X308975Y354615D01*
X310072Y353882D01*
X311365Y353625D01*
X312420D01*
Y361510D01*
D02*
G37*
G36*
X355600Y350829D02*
X354510Y350612D01*
X354258Y350444D01*
X352850D01*
X351176Y350111D01*
X349757Y349163D01*
X348809Y347744D01*
X348476Y346070D01*
Y345590D01*
X355600D01*
X362724D01*
Y346070D01*
X362391Y347744D01*
X361443Y349163D01*
X360024Y350111D01*
X358350Y350444D01*
X356941D01*
X356690Y350612D01*
X355600Y350829D01*
D02*
G37*
G36*
X277915Y370899D02*
X273265D01*
X272368Y370721D01*
X271607Y370213D01*
X271099Y369452D01*
X270921Y368555D01*
Y357005D01*
X271099Y356108D01*
X271607Y355348D01*
X272368Y354839D01*
X272741Y354765D01*
Y349783D01*
X272741Y349783D01*
X272958Y348693D01*
X272959Y348691D01*
Y343028D01*
X272020Y342089D01*
X203990D01*
X203954Y342267D01*
X203230Y343350D01*
X202147Y344074D01*
X200870Y344328D01*
X195370D01*
X194093Y344074D01*
X193010Y343350D01*
X192286Y342267D01*
X192032Y340990D01*
Y337490D01*
X192286Y336213D01*
X193010Y335130D01*
X194093Y334406D01*
X195370Y334152D01*
X200870D01*
X202147Y334406D01*
X203230Y335130D01*
X203954Y336213D01*
X203990Y336391D01*
X273200D01*
X273200Y336391D01*
X274290Y336608D01*
X275214Y337226D01*
X277822Y339833D01*
X277822Y339833D01*
X278440Y340758D01*
X278657Y341848D01*
X278657Y341848D01*
Y349565D01*
X278657Y349565D01*
X278440Y350655D01*
X278439Y350657D01*
Y354765D01*
X278812Y354839D01*
X279573Y355348D01*
X280081Y356108D01*
X280259Y357005D01*
Y368555D01*
X280081Y369452D01*
X279573Y370213D01*
X278812Y370721D01*
X277915Y370899D01*
D02*
G37*
G36*
X362724Y343050D02*
X356870D01*
Y338196D01*
X358350D01*
X360024Y338529D01*
X361443Y339477D01*
X362391Y340896D01*
X362724Y342570D01*
Y343050D01*
D02*
G37*
G36*
X354330D02*
X348476D01*
Y342570D01*
X348809Y340896D01*
X349757Y339477D01*
X351176Y338529D01*
X352850Y338196D01*
X354330D01*
Y343050D01*
D02*
G37*
G36*
X200870Y332364D02*
X199390D01*
Y327510D01*
X205244D01*
Y327990D01*
X204911Y329664D01*
X203963Y331083D01*
X202544Y332031D01*
X200870Y332364D01*
D02*
G37*
G36*
X196850D02*
X195370D01*
X193696Y332031D01*
X192277Y331083D01*
X191329Y329664D01*
X190996Y327990D01*
Y327510D01*
X196850D01*
Y332364D01*
D02*
G37*
G36*
X205244Y324970D02*
X199390D01*
Y320116D01*
X200870D01*
X202544Y320449D01*
X203963Y321397D01*
X204911Y322816D01*
X205244Y324490D01*
Y324970D01*
D02*
G37*
G36*
X196850D02*
X190996D01*
Y324490D01*
X191329Y322816D01*
X192277Y321397D01*
X193696Y320449D01*
X195370Y320116D01*
X196850D01*
Y324970D01*
D02*
G37*
G36*
X108395Y341444D02*
X104965D01*
X101653Y340556D01*
X98683Y338842D01*
X96258Y336417D01*
X94544Y333447D01*
X93656Y330135D01*
Y326705D01*
X94544Y323393D01*
X96258Y320423D01*
X98683Y317998D01*
X101653Y316283D01*
X104965Y315396D01*
X108395D01*
X111707Y316283D01*
X114677Y317998D01*
X117102Y320423D01*
X118816Y323393D01*
X119704Y326705D01*
Y330135D01*
X118816Y333447D01*
X117102Y336417D01*
X114677Y338842D01*
X111707Y340556D01*
X108395Y341444D01*
D02*
G37*
G36*
X154921Y384784D02*
X152639D01*
X150436Y384193D01*
X148460Y383053D01*
X146847Y381440D01*
X145707Y379464D01*
X145116Y377261D01*
Y374979D01*
X145707Y372776D01*
X146847Y370800D01*
X148460Y369187D01*
X150436Y368046D01*
X150931Y367914D01*
Y278348D01*
X150931Y278348D01*
X151148Y277258D01*
X151766Y276334D01*
X153253Y274846D01*
X153253Y274846D01*
X154178Y274228D01*
X155268Y274011D01*
X310841D01*
Y214630D01*
X310841Y214630D01*
X311058Y213540D01*
X311676Y212616D01*
X347671Y176620D01*
Y80207D01*
X333266Y65801D01*
X332648Y64877D01*
X332431Y63787D01*
X332431Y63787D01*
Y33979D01*
X331797Y33809D01*
X329739Y32621D01*
X328059Y30941D01*
X326871Y28883D01*
X326256Y26588D01*
Y24212D01*
X326871Y21917D01*
X328059Y19859D01*
X329739Y18179D01*
X331797Y16991D01*
X334092Y16376D01*
X336468D01*
X338763Y16991D01*
X340821Y18179D01*
X342501Y19859D01*
X343689Y21917D01*
X344304Y24212D01*
Y26588D01*
X343689Y28883D01*
X342501Y30941D01*
X340821Y32621D01*
X338763Y33809D01*
X338129Y33979D01*
Y62607D01*
X352534Y77012D01*
X352534Y77012D01*
X353152Y77937D01*
X353369Y79027D01*
X353369Y79027D01*
Y177800D01*
X353369Y177800D01*
X353152Y178890D01*
X352534Y179814D01*
X352534Y179814D01*
X316539Y215810D01*
Y279400D01*
Y299765D01*
X316912Y299839D01*
X317673Y300347D01*
X318181Y301108D01*
X318359Y302005D01*
Y304491D01*
X330620D01*
X330620Y304491D01*
X331710Y304708D01*
X332634Y305326D01*
X353540Y326232D01*
X358350D01*
X359627Y326486D01*
X360710Y327210D01*
X361434Y328293D01*
X361688Y329570D01*
Y333070D01*
X361434Y334347D01*
X360710Y335430D01*
X359627Y336154D01*
X358350Y336408D01*
X352850D01*
X351572Y336154D01*
X350490Y335430D01*
X349766Y334347D01*
X349512Y333070D01*
Y330261D01*
X329440Y310189D01*
X318359D01*
Y313555D01*
X318181Y314452D01*
X317673Y315212D01*
X316912Y315721D01*
X316015Y315899D01*
X311365D01*
X310468Y315721D01*
X309708Y315212D01*
X309199Y314452D01*
X309021Y313555D01*
Y302005D01*
X309199Y301108D01*
X309708Y300347D01*
X310468Y299839D01*
X310841Y299765D01*
Y280580D01*
X309970Y279709D01*
X156629D01*
Y367914D01*
X157124Y368046D01*
X159100Y369187D01*
X160713Y370800D01*
X161854Y372776D01*
X162444Y374979D01*
Y377261D01*
X161854Y379464D01*
X160713Y381440D01*
X159100Y383053D01*
X157124Y384193D01*
X154921Y384784D01*
D02*
G37*
G36*
X303315Y315899D02*
X298665D01*
X297768Y315721D01*
X297008Y315212D01*
X296499Y314452D01*
X296321Y313555D01*
Y302005D01*
X296499Y301108D01*
X297008Y300347D01*
X297768Y299839D01*
X298665Y299661D01*
X303315D01*
X304212Y299839D01*
X304972Y300347D01*
X305481Y301108D01*
X305659Y302005D01*
Y313555D01*
X305481Y314452D01*
X304972Y315212D01*
X304212Y315721D01*
X303315Y315899D01*
D02*
G37*
G36*
X290615D02*
X285965D01*
X285068Y315721D01*
X284307Y315212D01*
X283799Y314452D01*
X283621Y313555D01*
Y302005D01*
X283799Y301108D01*
X284307Y300347D01*
X285068Y299839D01*
X285965Y299661D01*
X290615D01*
X291512Y299839D01*
X292272Y300347D01*
X292781Y301108D01*
X292959Y302005D01*
Y313555D01*
X292781Y314452D01*
X292272Y315212D01*
X291512Y315721D01*
X290615Y315899D01*
D02*
G37*
G36*
X265215D02*
X260565D01*
X259668Y315721D01*
X258908Y315212D01*
X258399Y314452D01*
X258221Y313555D01*
Y302005D01*
X258399Y301108D01*
X258908Y300347D01*
X259668Y299839D01*
X260565Y299661D01*
X265215D01*
X266112Y299839D01*
X266873Y300347D01*
X267381Y301108D01*
X267559Y302005D01*
Y313555D01*
X267381Y314452D01*
X266873Y315212D01*
X266112Y315721D01*
X265215Y315899D01*
D02*
G37*
G36*
X252515D02*
X247865D01*
X246968Y315721D01*
X246208Y315212D01*
X245699Y314452D01*
X245521Y313555D01*
Y302005D01*
X245699Y301108D01*
X246208Y300347D01*
X246968Y299839D01*
X247865Y299661D01*
X252515D01*
X253412Y299839D01*
X254172Y300347D01*
X254681Y301108D01*
X254859Y302005D01*
Y313555D01*
X254681Y314452D01*
X254172Y315212D01*
X253412Y315721D01*
X252515Y315899D01*
D02*
G37*
G36*
X239815D02*
X235165D01*
X234268Y315721D01*
X233507Y315212D01*
X232999Y314452D01*
X232821Y313555D01*
Y302005D01*
X232999Y301108D01*
X233507Y300347D01*
X234268Y299839D01*
X235165Y299661D01*
X239815D01*
X240712Y299839D01*
X241472Y300347D01*
X241981Y301108D01*
X242159Y302005D01*
Y313555D01*
X241981Y314452D01*
X241472Y315212D01*
X240712Y315721D01*
X239815Y315899D01*
D02*
G37*
G36*
X227115D02*
X222465D01*
X221568Y315721D01*
X220807Y315212D01*
X220299Y314452D01*
X220121Y313555D01*
Y302005D01*
X220299Y301108D01*
X220807Y300347D01*
X221568Y299839D01*
X222465Y299661D01*
X227115D01*
X228012Y299839D01*
X228773Y300347D01*
X229281Y301108D01*
X229459Y302005D01*
Y313555D01*
X229281Y314452D01*
X228773Y315212D01*
X228012Y315721D01*
X227115Y315899D01*
D02*
G37*
G36*
X463468Y517024D02*
X461092D01*
X458797Y516409D01*
X456739Y515221D01*
X455059Y513541D01*
X453871Y511483D01*
X453256Y509188D01*
Y506812D01*
X453871Y504517D01*
X455059Y502459D01*
X456739Y500779D01*
X458797Y499591D01*
X459431Y499421D01*
Y452120D01*
X459431Y452120D01*
X459648Y451030D01*
X460266Y450106D01*
X603116Y307255D01*
Y293236D01*
X621164D01*
Y311284D01*
X607145D01*
X465129Y453300D01*
Y499421D01*
X465763Y499591D01*
X467821Y500779D01*
X469501Y502459D01*
X470689Y504517D01*
X471304Y506812D01*
Y509188D01*
X470689Y511483D01*
X469501Y513541D01*
X467821Y515221D01*
X465763Y516409D01*
X463468Y517024D01*
D02*
G37*
G36*
X277915Y315899D02*
X273265D01*
X272368Y315721D01*
X271607Y315212D01*
X271099Y314452D01*
X270921Y313555D01*
Y302005D01*
X271099Y301108D01*
X271607Y300347D01*
X272368Y299839D01*
X272741Y299765D01*
Y292010D01*
X272275Y291544D01*
X270880D01*
X269217Y290855D01*
X267945Y289583D01*
X267256Y287920D01*
Y286120D01*
X267945Y284457D01*
X269217Y283185D01*
X270880Y282496D01*
X272680D01*
X274343Y283185D01*
X275615Y284457D01*
X276304Y286120D01*
Y287515D01*
X277604Y288816D01*
X278222Y289740D01*
X278439Y290830D01*
X278439Y290830D01*
Y299765D01*
X278812Y299839D01*
X279573Y300347D01*
X280081Y301108D01*
X280259Y302005D01*
Y313555D01*
X280081Y314452D01*
X279573Y315212D01*
X278812Y315721D01*
X277915Y315899D01*
D02*
G37*
G36*
X438068Y517024D02*
X435692D01*
X433397Y516409D01*
X431339Y515221D01*
X429659Y513541D01*
X428471Y511483D01*
X427856Y509188D01*
Y506812D01*
X428471Y504517D01*
X429659Y502459D01*
X431339Y500779D01*
X433397Y499591D01*
X434031Y499421D01*
Y452120D01*
X434031Y452120D01*
X434248Y451030D01*
X434866Y450106D01*
X604059Y280912D01*
X603731Y280343D01*
X603116Y278048D01*
Y275672D01*
X603731Y273377D01*
X604919Y271319D01*
X606599Y269639D01*
X608657Y268451D01*
X610952Y267836D01*
X613328D01*
X615623Y268451D01*
X617681Y269639D01*
X619361Y271319D01*
X620549Y273377D01*
X621164Y275672D01*
Y278048D01*
X620549Y280343D01*
X619361Y282401D01*
X617681Y284081D01*
X615623Y285269D01*
X613328Y285884D01*
X610952D01*
X608657Y285269D01*
X608088Y284941D01*
X439729Y453300D01*
Y499421D01*
X440363Y499591D01*
X442421Y500779D01*
X444101Y502459D01*
X445289Y504517D01*
X445904Y506812D01*
Y509188D01*
X445289Y511483D01*
X444101Y513541D01*
X442421Y515221D01*
X440363Y516409D01*
X438068Y517024D01*
D02*
G37*
G36*
X372028D02*
X369652D01*
X367357Y516409D01*
X365299Y515221D01*
X363619Y513541D01*
X362431Y511483D01*
X361816Y509188D01*
Y506812D01*
X362431Y504517D01*
X363619Y502459D01*
X365299Y500779D01*
X367357Y499591D01*
X367991Y499421D01*
Y492760D01*
X367991Y492760D01*
X368208Y491670D01*
X368826Y490746D01*
X604059Y255512D01*
X603731Y254943D01*
X603116Y252648D01*
Y250272D01*
X603731Y247977D01*
X604919Y245919D01*
X606599Y244239D01*
X608657Y243051D01*
X610952Y242436D01*
X613328D01*
X615623Y243051D01*
X617681Y244239D01*
X619361Y245919D01*
X620549Y247977D01*
X621164Y250272D01*
Y252648D01*
X620549Y254943D01*
X619361Y257001D01*
X617681Y258681D01*
X615623Y259869D01*
X613328Y260484D01*
X610952D01*
X608657Y259869D01*
X608088Y259541D01*
X373689Y493940D01*
Y499421D01*
X374323Y499591D01*
X376381Y500779D01*
X378061Y502459D01*
X379249Y504517D01*
X379864Y506812D01*
Y509188D01*
X379249Y511483D01*
X378061Y513541D01*
X376381Y515221D01*
X374323Y516409D01*
X372028Y517024D01*
D02*
G37*
G36*
X613328Y235084D02*
X610952D01*
X608657Y234469D01*
X606599Y233281D01*
X604919Y231601D01*
X603731Y229543D01*
X603116Y227248D01*
Y224872D01*
X603731Y222577D01*
X604919Y220519D01*
X606599Y218839D01*
X608657Y217651D01*
X610952Y217036D01*
X613328D01*
X615623Y217651D01*
X617681Y218839D01*
X619361Y220519D01*
X620549Y222577D01*
X621164Y224872D01*
Y227248D01*
X620549Y229543D01*
X619361Y231601D01*
X617681Y233281D01*
X615623Y234469D01*
X613328Y235084D01*
D02*
G37*
G36*
Y209684D02*
X610952D01*
X608657Y209069D01*
X606599Y207881D01*
X604919Y206201D01*
X603731Y204143D01*
X603116Y201848D01*
Y199472D01*
X603731Y197177D01*
X604919Y195119D01*
X606599Y193439D01*
X608657Y192251D01*
X610952Y191636D01*
X613328D01*
X615623Y192251D01*
X617681Y193439D01*
X619361Y195119D01*
X620549Y197177D01*
X621164Y199472D01*
Y201848D01*
X620549Y204143D01*
X619361Y206201D01*
X617681Y207881D01*
X615623Y209069D01*
X613328Y209684D01*
D02*
G37*
G36*
X613462Y185300D02*
X613410D01*
Y176530D01*
X622180D01*
Y176582D01*
X621496Y179135D01*
X620174Y181425D01*
X618305Y183294D01*
X616015Y184616D01*
X613462Y185300D01*
D02*
G37*
G36*
X610870D02*
X610818D01*
X608265Y184616D01*
X605975Y183294D01*
X604106Y181425D01*
X602784Y179135D01*
X602100Y176582D01*
Y176530D01*
X610870D01*
Y185300D01*
D02*
G37*
G36*
X622180Y173990D02*
X613410D01*
Y165220D01*
X613462D01*
X616015Y165904D01*
X618305Y167226D01*
X620174Y169095D01*
X621496Y171385D01*
X622180Y173938D01*
Y173990D01*
D02*
G37*
G36*
X610870D02*
X602100D01*
Y173938D01*
X602784Y171385D01*
X604106Y169095D01*
X605975Y167226D01*
X608265Y165904D01*
X610818Y165220D01*
X610870D01*
Y173990D01*
D02*
G37*
G36*
X613328Y158884D02*
X610952D01*
X608657Y158269D01*
X606599Y157081D01*
X604919Y155401D01*
X603731Y153343D01*
X603561Y152709D01*
X577024D01*
Y152724D01*
X565976D01*
Y150049D01*
X526224D01*
Y152724D01*
X515176D01*
Y150049D01*
X475424D01*
Y152724D01*
X464376D01*
Y150169D01*
X442969D01*
X441983Y151155D01*
X440320Y151844D01*
X438520D01*
X436857Y151155D01*
X435585Y149883D01*
X434896Y148220D01*
Y146420D01*
X435585Y144757D01*
X436857Y143485D01*
X438520Y142796D01*
X440320D01*
X441983Y143485D01*
X442969Y144471D01*
X464376D01*
Y141676D01*
X475424D01*
Y144351D01*
X515176D01*
Y141676D01*
X526224D01*
Y144351D01*
X565976D01*
Y141676D01*
X577024D01*
Y147011D01*
X603561D01*
X603731Y146377D01*
X604919Y144319D01*
X606599Y142639D01*
X608657Y141451D01*
X609291Y141281D01*
Y133039D01*
X608657Y132869D01*
X606599Y131681D01*
X604919Y130001D01*
X603731Y127943D01*
X603116Y125648D01*
Y123272D01*
X603731Y120977D01*
X604919Y118919D01*
X606599Y117239D01*
X608657Y116051D01*
X610952Y115436D01*
X613328D01*
X615623Y116051D01*
X617681Y117239D01*
X619361Y118919D01*
X620549Y120977D01*
X621164Y123272D01*
Y125648D01*
X620549Y127943D01*
X619361Y130001D01*
X617681Y131681D01*
X615623Y132869D01*
X614989Y133039D01*
Y141281D01*
X615623Y141451D01*
X617681Y142639D01*
X619361Y144319D01*
X620549Y146377D01*
X621164Y148672D01*
Y151048D01*
X620549Y153343D01*
X619361Y155401D01*
X617681Y157081D01*
X615623Y158269D01*
X613328Y158884D01*
D02*
G37*
G36*
X416306Y179403D02*
X413919Y179089D01*
X411695Y178167D01*
X409784Y176702D01*
X408319Y174791D01*
X407397Y172567D01*
X407083Y170180D01*
Y154940D01*
X407397Y152553D01*
X408319Y150329D01*
X409784Y148418D01*
X411695Y146953D01*
X413919Y146031D01*
X416306Y145717D01*
X418693Y146031D01*
X420917Y146953D01*
X422828Y148418D01*
X424293Y150329D01*
X425215Y152553D01*
X425529Y154940D01*
Y170180D01*
X425215Y172567D01*
X424293Y174791D01*
X422828Y176702D01*
X420917Y178167D01*
X418693Y179089D01*
X416306Y179403D01*
D02*
G37*
G36*
X371094D02*
X368707Y179089D01*
X366483Y178167D01*
X364572Y176702D01*
X363107Y174791D01*
X362185Y172567D01*
X361871Y170180D01*
Y154940D01*
X362185Y152553D01*
X363107Y150329D01*
X364572Y148418D01*
X366483Y146953D01*
X368707Y146031D01*
X371094Y145717D01*
X373481Y146031D01*
X375705Y146953D01*
X377616Y148418D01*
X379081Y150329D01*
X380003Y152553D01*
X380317Y154940D01*
Y170180D01*
X380003Y172567D01*
X379081Y174791D01*
X377616Y176702D01*
X375705Y178167D01*
X373481Y179089D01*
X371094Y179403D01*
D02*
G37*
G36*
X335026Y178895D02*
X332639Y178581D01*
X330415Y177659D01*
X328504Y176194D01*
X327039Y174283D01*
X326117Y172059D01*
X325803Y169672D01*
Y154432D01*
X326117Y152045D01*
X327039Y149821D01*
X328504Y147910D01*
X330415Y146445D01*
X332639Y145523D01*
X335026Y145209D01*
X337413Y145523D01*
X339637Y146445D01*
X341548Y147910D01*
X343013Y149821D01*
X343935Y152045D01*
X344249Y154432D01*
Y169672D01*
X343935Y172059D01*
X343013Y174283D01*
X341548Y176194D01*
X339637Y177659D01*
X337413Y178581D01*
X335026Y178895D01*
D02*
G37*
G36*
X289814D02*
X287427Y178581D01*
X285203Y177659D01*
X283292Y176194D01*
X281827Y174283D01*
X280905Y172059D01*
X280591Y169672D01*
Y154432D01*
X280905Y152045D01*
X281827Y149821D01*
X283292Y147910D01*
X285203Y146445D01*
X287427Y145523D01*
X289814Y145209D01*
X292201Y145523D01*
X294425Y146445D01*
X296336Y147910D01*
X297801Y149821D01*
X298723Y152045D01*
X299037Y154432D01*
Y169672D01*
X298723Y172059D01*
X297801Y174283D01*
X296336Y176194D01*
X294425Y177659D01*
X292201Y178581D01*
X289814Y178895D01*
D02*
G37*
G36*
X248666D02*
X246279Y178581D01*
X244055Y177659D01*
X242144Y176194D01*
X240679Y174283D01*
X239757Y172059D01*
X239443Y169672D01*
Y154432D01*
X239757Y152045D01*
X240679Y149821D01*
X242144Y147910D01*
X244055Y146445D01*
X246279Y145523D01*
X248666Y145209D01*
X251053Y145523D01*
X253277Y146445D01*
X255188Y147910D01*
X256653Y149821D01*
X257575Y152045D01*
X257889Y154432D01*
Y169672D01*
X257575Y172059D01*
X256653Y174283D01*
X255188Y176194D01*
X253277Y177659D01*
X251053Y178581D01*
X248666Y178895D01*
D02*
G37*
G36*
X203454D02*
X201067Y178581D01*
X198843Y177659D01*
X196932Y176194D01*
X195467Y174283D01*
X194545Y172059D01*
X194231Y169672D01*
Y154432D01*
X194545Y152045D01*
X195467Y149821D01*
X196932Y147910D01*
X198843Y146445D01*
X201067Y145523D01*
X203454Y145209D01*
X205841Y145523D01*
X208065Y146445D01*
X209976Y147910D01*
X211441Y149821D01*
X212363Y152045D01*
X212677Y154432D01*
Y169672D01*
X212363Y172059D01*
X211441Y174283D01*
X209976Y176194D01*
X208065Y177659D01*
X205841Y178581D01*
X203454Y178895D01*
D02*
G37*
G36*
X162306D02*
X159919Y178581D01*
X157695Y177659D01*
X155784Y176194D01*
X154319Y174283D01*
X153397Y172059D01*
X153083Y169672D01*
Y154432D01*
X153397Y152045D01*
X154319Y149821D01*
X155784Y147910D01*
X157695Y146445D01*
X159919Y145523D01*
X162306Y145209D01*
X164693Y145523D01*
X166917Y146445D01*
X168828Y147910D01*
X170293Y149821D01*
X171215Y152045D01*
X171529Y154432D01*
Y169672D01*
X171215Y172059D01*
X170293Y174283D01*
X168828Y176194D01*
X166917Y177659D01*
X164693Y178581D01*
X162306Y178895D01*
D02*
G37*
G36*
X117094D02*
X114707Y178581D01*
X112483Y177659D01*
X110572Y176194D01*
X109107Y174283D01*
X108185Y172059D01*
X107871Y169672D01*
Y154432D01*
X108185Y152045D01*
X109107Y149821D01*
X110572Y147910D01*
X112483Y146445D01*
X114707Y145523D01*
X117094Y145209D01*
X119481Y145523D01*
X121705Y146445D01*
X123616Y147910D01*
X125081Y149821D01*
X126003Y152045D01*
X126317Y154432D01*
Y169672D01*
X126003Y172059D01*
X125081Y174283D01*
X123616Y176194D01*
X121705Y177659D01*
X119481Y178581D01*
X117094Y178895D01*
D02*
G37*
G36*
X577024Y137724D02*
X565976D01*
Y126676D01*
X577024D01*
Y137724D01*
D02*
G37*
G36*
X526224D02*
X515176D01*
Y126676D01*
X526224D01*
Y137724D01*
D02*
G37*
G36*
X475424D02*
X464376D01*
Y126676D01*
X475424D01*
Y137724D01*
D02*
G37*
G36*
X616244Y93725D02*
X613116D01*
X612960Y93660D01*
X612795Y93693D01*
X609728Y93083D01*
X609587Y92989D01*
X609418D01*
X606529Y91792D01*
X606410Y91673D01*
X606244Y91640D01*
X603644Y89902D01*
X603550Y89762D01*
X603394Y89697D01*
X601183Y87486D01*
X601118Y87330D01*
X600978Y87236D01*
X599240Y84636D01*
X599207Y84470D01*
X599088Y84351D01*
X597891Y81462D01*
Y81293D01*
X597797Y81152D01*
X597187Y78085D01*
X597220Y77920D01*
X597155Y77764D01*
Y74636D01*
X597220Y74480D01*
X597187Y74315D01*
X597797Y71248D01*
X597891Y71107D01*
Y70938D01*
X599088Y68049D01*
X599207Y67930D01*
X599240Y67764D01*
X600978Y65164D01*
X601118Y65070D01*
X601183Y64914D01*
X603394Y62703D01*
X603550Y62638D01*
X603644Y62498D01*
X606244Y60760D01*
X606410Y60727D01*
X606529Y60608D01*
X609418Y59411D01*
X609587D01*
X609728Y59317D01*
X612795Y58707D01*
X612960Y58740D01*
X613116Y58675D01*
X616244D01*
X616400Y58740D01*
X616565Y58707D01*
X619632Y59317D01*
X619773Y59411D01*
X619942D01*
X622831Y60608D01*
X622950Y60727D01*
X623116Y60760D01*
X625716Y62498D01*
X625810Y62638D01*
X625966Y62703D01*
X628177Y64914D01*
X628242Y65070D01*
X628382Y65164D01*
X630120Y67764D01*
X630153Y67930D01*
X630272Y68049D01*
X631469Y70938D01*
Y71107D01*
X631563Y71248D01*
X632173Y74315D01*
X632140Y74480D01*
X632205Y74636D01*
Y77764D01*
X632140Y77920D01*
X632173Y78085D01*
X631563Y81152D01*
X631469Y81293D01*
Y81462D01*
X630272Y84351D01*
X630153Y84470D01*
X630120Y84636D01*
X628382Y87236D01*
X628242Y87330D01*
X628177Y87486D01*
X625966Y89697D01*
X625810Y89762D01*
X625716Y89902D01*
X623116Y91640D01*
X622950Y91673D01*
X622831Y91792D01*
X619942Y92989D01*
X619773D01*
X619632Y93083D01*
X616565Y93693D01*
X616400Y93660D01*
X616244Y93725D01*
D02*
G37*
G36*
X416306Y114379D02*
X413919Y114065D01*
X411695Y113143D01*
X409784Y111678D01*
X408319Y109767D01*
X407397Y107543D01*
X407083Y105156D01*
Y89916D01*
X407397Y87529D01*
X408319Y85305D01*
X409784Y83394D01*
X411695Y81929D01*
X413919Y81007D01*
X416306Y80693D01*
X418693Y81007D01*
X420917Y81929D01*
X422828Y83394D01*
X424293Y85305D01*
X425215Y87529D01*
X425529Y89916D01*
Y105156D01*
X425215Y107543D01*
X424293Y109767D01*
X422828Y111678D01*
X420917Y113143D01*
X418693Y114065D01*
X416306Y114379D01*
D02*
G37*
G36*
X371094D02*
X368707Y114065D01*
X366483Y113143D01*
X364572Y111678D01*
X363107Y109767D01*
X362185Y107543D01*
X361871Y105156D01*
Y89916D01*
X362185Y87529D01*
X363107Y85305D01*
X364572Y83394D01*
X366483Y81929D01*
X368707Y81007D01*
X371094Y80693D01*
X373481Y81007D01*
X375705Y81929D01*
X377616Y83394D01*
X379081Y85305D01*
X380003Y87529D01*
X380317Y89916D01*
Y105156D01*
X380003Y107543D01*
X379081Y109767D01*
X377616Y111678D01*
X375705Y113143D01*
X373481Y114065D01*
X371094Y114379D01*
D02*
G37*
G36*
X335026Y113871D02*
X332639Y113557D01*
X330415Y112635D01*
X328504Y111170D01*
X327039Y109259D01*
X326117Y107035D01*
X325803Y104648D01*
Y89408D01*
X326117Y87021D01*
X327039Y84797D01*
X328504Y82886D01*
X330415Y81421D01*
X332639Y80499D01*
X335026Y80185D01*
X337413Y80499D01*
X339637Y81421D01*
X341548Y82886D01*
X343013Y84797D01*
X343935Y87021D01*
X344249Y89408D01*
Y104648D01*
X343935Y107035D01*
X343013Y109259D01*
X341548Y111170D01*
X339637Y112635D01*
X337413Y113557D01*
X335026Y113871D01*
D02*
G37*
G36*
X289814D02*
X287427Y113557D01*
X285203Y112635D01*
X283292Y111170D01*
X281827Y109259D01*
X280905Y107035D01*
X280591Y104648D01*
Y89408D01*
X280905Y87021D01*
X281827Y84797D01*
X283292Y82886D01*
X285203Y81421D01*
X287427Y80499D01*
X289814Y80185D01*
X292201Y80499D01*
X294425Y81421D01*
X296336Y82886D01*
X297801Y84797D01*
X298723Y87021D01*
X299037Y89408D01*
Y104648D01*
X298723Y107035D01*
X297801Y109259D01*
X296336Y111170D01*
X294425Y112635D01*
X292201Y113557D01*
X289814Y113871D01*
D02*
G37*
G36*
X248666D02*
X246279Y113557D01*
X244055Y112635D01*
X242144Y111170D01*
X240679Y109259D01*
X239757Y107035D01*
X239443Y104648D01*
Y89408D01*
X239757Y87021D01*
X240679Y84797D01*
X242144Y82886D01*
X244055Y81421D01*
X246279Y80499D01*
X248666Y80185D01*
X251053Y80499D01*
X253277Y81421D01*
X255188Y82886D01*
X256653Y84797D01*
X257575Y87021D01*
X257889Y89408D01*
Y104648D01*
X257575Y107035D01*
X256653Y109259D01*
X255188Y111170D01*
X253277Y112635D01*
X251053Y113557D01*
X248666Y113871D01*
D02*
G37*
G36*
X203454D02*
X201067Y113557D01*
X198843Y112635D01*
X196932Y111170D01*
X195467Y109259D01*
X194545Y107035D01*
X194231Y104648D01*
Y89408D01*
X194545Y87021D01*
X195467Y84797D01*
X196932Y82886D01*
X198843Y81421D01*
X201067Y80499D01*
X203454Y80185D01*
X205841Y80499D01*
X208065Y81421D01*
X209976Y82886D01*
X211441Y84797D01*
X212363Y87021D01*
X212677Y89408D01*
Y104648D01*
X212363Y107035D01*
X211441Y109259D01*
X209976Y111170D01*
X208065Y112635D01*
X205841Y113557D01*
X203454Y113871D01*
D02*
G37*
G36*
X162306D02*
X159919Y113557D01*
X157695Y112635D01*
X155784Y111170D01*
X154319Y109259D01*
X153397Y107035D01*
X153083Y104648D01*
Y89408D01*
X153397Y87021D01*
X154319Y84797D01*
X155784Y82886D01*
X157695Y81421D01*
X159919Y80499D01*
X162306Y80185D01*
X164693Y80499D01*
X166917Y81421D01*
X168828Y82886D01*
X170293Y84797D01*
X171215Y87021D01*
X171529Y89408D01*
Y104648D01*
X171215Y107035D01*
X170293Y109259D01*
X168828Y111170D01*
X166917Y112635D01*
X164693Y113557D01*
X162306Y113871D01*
D02*
G37*
G36*
X117094D02*
X114707Y113557D01*
X112483Y112635D01*
X110572Y111170D01*
X109107Y109259D01*
X108185Y107035D01*
X107871Y104648D01*
Y89408D01*
X108185Y87021D01*
X109107Y84797D01*
X110572Y82886D01*
X112483Y81421D01*
X114707Y80499D01*
X117094Y80185D01*
X119481Y80499D01*
X121705Y81421D01*
X123616Y82886D01*
X125081Y84797D01*
X126003Y87021D01*
X126317Y89408D01*
Y104648D01*
X126003Y107035D01*
X125081Y109259D01*
X123616Y111170D01*
X121705Y112635D01*
X119481Y113557D01*
X117094Y113871D01*
D02*
G37*
G36*
X95543Y42925D02*
X92416D01*
X92260Y42860D01*
X92095Y42893D01*
X89028Y42283D01*
X88887Y42189D01*
X88718D01*
X85829Y40992D01*
X85710Y40873D01*
X85544Y40840D01*
X82944Y39102D01*
X82850Y38962D01*
X82694Y38897D01*
X80483Y36686D01*
X80418Y36530D01*
X80278Y36436D01*
X78540Y33836D01*
X78507Y33670D01*
X78388Y33551D01*
X77191Y30662D01*
Y30493D01*
X77097Y30352D01*
X76487Y27285D01*
X76520Y27120D01*
X76455Y26964D01*
Y23836D01*
X76520Y23680D01*
X76487Y23515D01*
X77097Y20448D01*
X77191Y20307D01*
Y20138D01*
X78388Y17249D01*
X78507Y17130D01*
X78540Y16964D01*
X80278Y14364D01*
X80418Y14270D01*
X80483Y14114D01*
X82694Y11903D01*
X82850Y11838D01*
X82944Y11697D01*
X85544Y9960D01*
X85710Y9927D01*
X85829Y9808D01*
X88718Y8611D01*
X88887D01*
X89028Y8517D01*
X92095Y7907D01*
X92260Y7940D01*
X92416Y7875D01*
X95543D01*
X95700Y7940D01*
X95865Y7907D01*
X98932Y8517D01*
X99073Y8611D01*
X99242D01*
X102131Y9808D01*
X102250Y9927D01*
X102416Y9960D01*
X105016Y11697D01*
X105110Y11838D01*
X105266Y11903D01*
X107477Y14114D01*
X107542Y14270D01*
X107683Y14364D01*
X109420Y16964D01*
X109453Y17130D01*
X109572Y17249D01*
X110769Y20138D01*
Y20307D01*
X110863Y20448D01*
X111473Y23515D01*
X111440Y23680D01*
X111505Y23836D01*
Y26964D01*
X111440Y27120D01*
X111473Y27285D01*
X110863Y30352D01*
X110769Y30493D01*
Y30662D01*
X109572Y33551D01*
X109453Y33670D01*
X109420Y33836D01*
X107683Y36436D01*
X107542Y36530D01*
X107477Y36686D01*
X105266Y38897D01*
X105110Y38962D01*
X105016Y39102D01*
X102416Y40840D01*
X102250Y40873D01*
X102131Y40992D01*
X99242Y42189D01*
X99073D01*
X98932Y42283D01*
X95865Y42893D01*
X95700Y42860D01*
X95543Y42925D01*
D02*
G37*
G36*
X362002Y35440D02*
X361950D01*
Y26670D01*
X370720D01*
Y26722D01*
X370036Y29275D01*
X368714Y31565D01*
X366845Y33434D01*
X364555Y34756D01*
X362002Y35440D01*
D02*
G37*
G36*
X387402D02*
X387350D01*
Y26670D01*
X396120D01*
Y26722D01*
X395436Y29275D01*
X394114Y31565D01*
X392245Y33434D01*
X389955Y34756D01*
X387402Y35440D01*
D02*
G37*
G36*
X359410D02*
X359358D01*
X356805Y34756D01*
X354515Y33434D01*
X352646Y31565D01*
X351324Y29275D01*
X350640Y26722D01*
Y26670D01*
X359410D01*
Y35440D01*
D02*
G37*
G36*
X384810D02*
X384758D01*
X382205Y34756D01*
X379915Y33434D01*
X378046Y31565D01*
X376724Y29275D01*
X376040Y26722D01*
Y26670D01*
X384810D01*
Y35440D01*
D02*
G37*
G36*
X590468Y34424D02*
X588092D01*
X585797Y33809D01*
X583739Y32621D01*
X582059Y30941D01*
X580871Y28883D01*
X580256Y26588D01*
Y24212D01*
X580871Y21917D01*
X582059Y19859D01*
X583739Y18179D01*
X585797Y16991D01*
X588092Y16376D01*
X590468D01*
X592763Y16991D01*
X594821Y18179D01*
X596501Y19859D01*
X597689Y21917D01*
X598304Y24212D01*
Y26588D01*
X597689Y28883D01*
X596501Y30941D01*
X594821Y32621D01*
X592763Y33809D01*
X590468Y34424D01*
D02*
G37*
G36*
X565068D02*
X562692D01*
X560397Y33809D01*
X558339Y32621D01*
X556659Y30941D01*
X555471Y28883D01*
X554856Y26588D01*
Y24212D01*
X555471Y21917D01*
X556659Y19859D01*
X558339Y18179D01*
X560397Y16991D01*
X562692Y16376D01*
X565068D01*
X567363Y16991D01*
X569421Y18179D01*
X571101Y19859D01*
X572289Y21917D01*
X572904Y24212D01*
Y26588D01*
X572289Y28883D01*
X571101Y30941D01*
X569421Y32621D01*
X567363Y33809D01*
X565068Y34424D01*
D02*
G37*
G36*
X539668D02*
X537292D01*
X534997Y33809D01*
X532939Y32621D01*
X531259Y30941D01*
X530071Y28883D01*
X529456Y26588D01*
Y24212D01*
X530071Y21917D01*
X531259Y19859D01*
X532939Y18179D01*
X534997Y16991D01*
X537292Y16376D01*
X539668D01*
X541963Y16991D01*
X544021Y18179D01*
X545701Y19859D01*
X546889Y21917D01*
X547504Y24212D01*
Y26588D01*
X546889Y28883D01*
X545701Y30941D01*
X544021Y32621D01*
X541963Y33809D01*
X539668Y34424D01*
D02*
G37*
G36*
X514268D02*
X511892D01*
X509597Y33809D01*
X507539Y32621D01*
X505859Y30941D01*
X504671Y28883D01*
X504056Y26588D01*
Y24212D01*
X504671Y21917D01*
X505859Y19859D01*
X507539Y18179D01*
X509597Y16991D01*
X511892Y16376D01*
X514268D01*
X516563Y16991D01*
X518621Y18179D01*
X520301Y19859D01*
X521489Y21917D01*
X522104Y24212D01*
Y26588D01*
X521489Y28883D01*
X520301Y30941D01*
X518621Y32621D01*
X516563Y33809D01*
X514268Y34424D01*
D02*
G37*
G36*
X488868D02*
X486492D01*
X484197Y33809D01*
X482139Y32621D01*
X480459Y30941D01*
X479271Y28883D01*
X478656Y26588D01*
Y24212D01*
X479271Y21917D01*
X480459Y19859D01*
X482139Y18179D01*
X484197Y16991D01*
X486492Y16376D01*
X488868D01*
X491163Y16991D01*
X493221Y18179D01*
X494901Y19859D01*
X496089Y21917D01*
X496704Y24212D01*
Y26588D01*
X496089Y28883D01*
X494901Y30941D01*
X493221Y32621D01*
X491163Y33809D01*
X488868Y34424D01*
D02*
G37*
G36*
X463468D02*
X461092D01*
X458797Y33809D01*
X456739Y32621D01*
X455059Y30941D01*
X453871Y28883D01*
X453256Y26588D01*
Y24212D01*
X453871Y21917D01*
X455059Y19859D01*
X456739Y18179D01*
X458797Y16991D01*
X461092Y16376D01*
X463468D01*
X465763Y16991D01*
X467821Y18179D01*
X469501Y19859D01*
X470689Y21917D01*
X471304Y24212D01*
Y26588D01*
X470689Y28883D01*
X469501Y30941D01*
X467821Y32621D01*
X465763Y33809D01*
X463468Y34424D01*
D02*
G37*
G36*
X412668D02*
X410292D01*
X407997Y33809D01*
X405939Y32621D01*
X404259Y30941D01*
X403071Y28883D01*
X402456Y26588D01*
Y24212D01*
X403071Y21917D01*
X404259Y19859D01*
X405939Y18179D01*
X407997Y16991D01*
X410292Y16376D01*
X412668D01*
X414963Y16991D01*
X417021Y18179D01*
X418701Y19859D01*
X419889Y21917D01*
X420504Y24212D01*
Y26588D01*
X419889Y28883D01*
X418701Y30941D01*
X417021Y32621D01*
X414963Y33809D01*
X412668Y34424D01*
D02*
G37*
G36*
X311068D02*
X308692D01*
X306397Y33809D01*
X304339Y32621D01*
X302659Y30941D01*
X301471Y28883D01*
X300856Y26588D01*
Y24212D01*
X301471Y21917D01*
X302659Y19859D01*
X304339Y18179D01*
X306397Y16991D01*
X308692Y16376D01*
X311068D01*
X313363Y16991D01*
X315421Y18179D01*
X317101Y19859D01*
X318289Y21917D01*
X318904Y24212D01*
Y26588D01*
X318289Y28883D01*
X317101Y30941D01*
X315421Y32621D01*
X313363Y33809D01*
X311068Y34424D01*
D02*
G37*
G36*
X183780Y73104D02*
X181980D01*
X180317Y72415D01*
X179045Y71143D01*
X178356Y69480D01*
Y67680D01*
X179045Y66017D01*
X180317Y64745D01*
X181980Y64056D01*
X183780D01*
X185443Y64745D01*
X186429Y65731D01*
X281631D01*
Y33979D01*
X280997Y33809D01*
X278939Y32621D01*
X277259Y30941D01*
X276071Y28883D01*
X275456Y26588D01*
Y24212D01*
X276071Y21917D01*
X277259Y19859D01*
X278939Y18179D01*
X280997Y16991D01*
X283292Y16376D01*
X285668D01*
X287963Y16991D01*
X290021Y18179D01*
X291701Y19859D01*
X292889Y21917D01*
X293504Y24212D01*
Y26588D01*
X292889Y28883D01*
X291701Y30941D01*
X290021Y32621D01*
X287963Y33809D01*
X287329Y33979D01*
Y67092D01*
X287112Y68182D01*
X286494Y69106D01*
X286494Y69106D01*
X285007Y70594D01*
X284082Y71212D01*
X282992Y71429D01*
X282992Y71429D01*
X186429D01*
X185443Y72415D01*
X183780Y73104D01*
D02*
G37*
G36*
X260268Y34424D02*
X257892D01*
X255597Y33809D01*
X253539Y32621D01*
X251859Y30941D01*
X250671Y28883D01*
X250056Y26588D01*
Y24212D01*
X250671Y21917D01*
X251859Y19859D01*
X253539Y18179D01*
X255597Y16991D01*
X257892Y16376D01*
X260268D01*
X262563Y16991D01*
X264621Y18179D01*
X266301Y19859D01*
X267489Y21917D01*
X268104Y24212D01*
Y26588D01*
X267489Y28883D01*
X266301Y30941D01*
X264621Y32621D01*
X262563Y33809D01*
X260268Y34424D01*
D02*
G37*
G36*
X234868D02*
X232492D01*
X230197Y33809D01*
X228139Y32621D01*
X226459Y30941D01*
X225271Y28883D01*
X224656Y26588D01*
Y24212D01*
X225271Y21917D01*
X226459Y19859D01*
X228139Y18179D01*
X230197Y16991D01*
X232492Y16376D01*
X234868D01*
X237163Y16991D01*
X239221Y18179D01*
X240901Y19859D01*
X242089Y21917D01*
X242704Y24212D01*
Y26588D01*
X242089Y28883D01*
X240901Y30941D01*
X239221Y32621D01*
X237163Y33809D01*
X234868Y34424D01*
D02*
G37*
G36*
X396120Y24130D02*
X387350D01*
Y15360D01*
X387402D01*
X389955Y16044D01*
X392245Y17366D01*
X394114Y19235D01*
X395436Y21525D01*
X396120Y24078D01*
Y24130D01*
D02*
G37*
G36*
X384810D02*
X376040D01*
Y24078D01*
X376724Y21525D01*
X378046Y19235D01*
X379915Y17366D01*
X382205Y16044D01*
X384758Y15360D01*
X384810D01*
Y24130D01*
D02*
G37*
G36*
X370720D02*
X361950D01*
Y15360D01*
X362002D01*
X364555Y16044D01*
X366845Y17366D01*
X368714Y19235D01*
X370036Y21525D01*
X370720Y24078D01*
Y24130D01*
D02*
G37*
G36*
X359410D02*
X350640D01*
Y24078D01*
X351324Y21525D01*
X352646Y19235D01*
X354515Y17366D01*
X356805Y16044D01*
X359358Y15360D01*
X359410D01*
Y24130D01*
D02*
G37*
%LPD*%
D16*
X220804Y399900D02*
D03*
Y412900D02*
D03*
X241124Y399900D02*
D03*
Y412900D02*
D03*
X355600Y331320D02*
D03*
Y344320D02*
D03*
X198120Y339240D02*
D03*
Y326240D02*
D03*
D17*
X571500Y147200D02*
D03*
Y132200D02*
D03*
X520700Y147200D02*
D03*
Y132200D02*
D03*
X469900Y147200D02*
D03*
Y132200D02*
D03*
D18*
X226820Y457200D02*
D03*
X321820D02*
D03*
D19*
X313690Y307780D02*
D03*
X300990D02*
D03*
X224790Y362780D02*
D03*
X237490Y307780D02*
D03*
Y362780D02*
D03*
X262890D02*
D03*
X224790Y307780D02*
D03*
X250190Y362780D02*
D03*
Y307780D02*
D03*
X262890D02*
D03*
X288290D02*
D03*
X275590Y362780D02*
D03*
X288290D02*
D03*
X313690D02*
D03*
X275590Y307780D02*
D03*
X300990Y362780D02*
D03*
D30*
X153780Y278348D02*
X155268Y276860D01*
X311150D01*
X313690Y279400D01*
X284480Y25400D02*
Y67092D01*
X182880Y68580D02*
X282992D01*
X284480Y67092D01*
X271780Y287020D02*
X275590Y290830D01*
Y307780D01*
X153780Y278348D02*
Y376120D01*
X355600Y344320D02*
X356600D01*
X285151Y399900D02*
X292365Y407114D01*
X359192D02*
X360680Y408602D01*
X288290Y397292D02*
X292318Y401320D01*
X360680Y408602D02*
Y455712D01*
X292365Y407114D02*
X359192D01*
X292318Y401320D02*
X312420D01*
X288290Y362780D02*
Y397292D01*
X241124Y399900D02*
X285151D01*
X301625Y363415D02*
Y387985D01*
X302260Y388620D01*
X262890Y382270D02*
X271780Y391160D01*
X262890Y362780D02*
Y382270D01*
X251460Y380064D02*
Y381000D01*
X250190Y362780D02*
Y378794D01*
X251460Y380064D01*
X300990Y362780D02*
X301625Y363415D01*
X355600Y344320D02*
Y347980D01*
X350520Y79027D02*
Y177800D01*
X335280Y63787D02*
X350520Y79027D01*
X313690Y214630D02*
X350520Y177800D01*
X313690Y214630D02*
Y279400D01*
Y307780D01*
X314130Y307340D01*
X330620D02*
X354600Y331320D01*
X355600D01*
X314130Y307340D02*
X330620D01*
X335280Y25400D02*
Y63787D01*
X612140Y124460D02*
Y149860D01*
X574160D02*
X612140D01*
X571500Y147200D02*
X574160Y149860D01*
X520700Y147200D02*
X571500D01*
X469900D02*
X520700D01*
X439420Y147320D02*
X469780D01*
X469900Y147200D01*
X370840Y492760D02*
X612140Y251460D01*
X370840Y492760D02*
Y508000D01*
X436880Y452120D02*
X612140Y276860D01*
X436880Y452120D02*
Y508000D01*
X462280Y452120D02*
X612140Y302260D01*
X462280Y452120D02*
Y508000D01*
X275590Y349783D02*
Y362780D01*
X275808Y341848D02*
Y349565D01*
X273200Y339240D02*
X275808Y341848D01*
X275590Y349783D02*
X275808Y349565D01*
X198120Y339240D02*
X273200D01*
X190500Y457200D02*
X226820D01*
X187960Y454660D02*
X190500Y457200D01*
X187960Y421640D02*
Y454660D01*
X209700Y399900D02*
X220804D01*
X187960Y421640D02*
X209700Y399900D01*
X359192Y457200D02*
X360680Y455712D01*
X321820Y457200D02*
X359192D01*
X238760Y364050D02*
Y388620D01*
X237490Y362780D02*
X238760Y364050D01*
Y388620D02*
X241124Y390984D01*
Y399900D01*
X226060Y364050D02*
Y388620D01*
X224790Y362780D02*
X226060Y364050D01*
X220804Y393876D02*
Y399900D01*
Y393876D02*
X226060Y388620D01*
D31*
X411480Y508000D02*
D03*
X436880D02*
D03*
X462280D02*
D03*
X487680D02*
D03*
X513080D02*
D03*
X538480D02*
D03*
X563880D02*
D03*
X589280D02*
D03*
X370840D02*
D03*
X345440D02*
D03*
X294640D02*
D03*
X269240D02*
D03*
X243840D02*
D03*
X218440D02*
D03*
X193040D02*
D03*
X167640D02*
D03*
X142240D02*
D03*
X320040D02*
D03*
X589280Y25400D02*
D03*
X563880D02*
D03*
X538480D02*
D03*
X513080D02*
D03*
X487680D02*
D03*
X462280D02*
D03*
X233680D02*
D03*
X259080D02*
D03*
X284480D02*
D03*
X309880D02*
D03*
X335280D02*
D03*
X360680D02*
D03*
X386080D02*
D03*
X411480D02*
D03*
X612140Y276860D02*
D03*
Y251460D02*
D03*
Y226060D02*
D03*
Y200660D02*
D03*
Y175260D02*
D03*
Y149860D02*
D03*
Y124460D02*
D03*
D32*
X106680Y328420D02*
D03*
Y448820D02*
D03*
D33*
X133780Y376120D02*
D03*
Y401120D02*
D03*
X153780D02*
D03*
Y376120D02*
D03*
D34*
X248666Y162052D02*
D03*
X203454D02*
D03*
X248666Y97028D02*
D03*
X203454D02*
D03*
X416306Y162560D02*
D03*
X371094D02*
D03*
X416306Y97536D02*
D03*
X371094D02*
D03*
X162306Y162052D02*
D03*
X117094D02*
D03*
X162306Y97028D02*
D03*
X117094D02*
D03*
X335026Y162052D02*
D03*
X289814D02*
D03*
X335026Y97028D02*
D03*
X289814D02*
D03*
D35*
X612140Y302260D02*
D03*
D36*
X271780Y287020D02*
D03*
X312420Y401320D02*
D03*
X302260Y388620D02*
D03*
X271780Y391160D02*
D03*
X251460Y381000D02*
D03*
X182880Y68580D02*
D03*
X439420Y147320D02*
D03*
X571500Y132200D02*
D03*
X520700D02*
D03*
X469900D02*
D03*
M02*
