G04*
G04 #@! TF.GenerationSoftware,Altium Limited,Altium Designer,21.6.1 (37)*
G04*
G04 Layer_Color=2752767*
%FSLAX44Y44*%
%MOMM*%
G71*
G04*
G04 #@! TF.SameCoordinates,45D27BC1-988F-4E8A-9F01-A3EFFFD16F67*
G04*
G04*
G04 #@! TF.FilePolarity,Positive*
G04*
G01*
G75*
%ADD15C,0.0508*%
%ADD47C,0.0677*%
D15*
X409448Y505968D02*
Y510032D01*
X413512D01*
Y505968D01*
X409448D01*
X434848D02*
Y510032D01*
X438912D01*
Y505968D01*
X434848D01*
X460248D02*
Y510032D01*
X464312D01*
Y505968D01*
X460248D01*
X485648D02*
Y510032D01*
X489712D01*
Y505968D01*
X485648D01*
X511048D02*
Y510032D01*
X515112D01*
Y505968D01*
X511048D01*
X536448D02*
Y510032D01*
X540512D01*
Y505968D01*
X536448D01*
X561848D02*
Y510032D01*
X565912D01*
Y505968D01*
X561848D01*
X587248D02*
Y510032D01*
X591312D01*
Y505968D01*
X587248D01*
X133780Y374088D02*
X131748Y378152D01*
X135812D01*
X133780Y374088D01*
Y399088D02*
X131748Y403152D01*
X135812D01*
X133780Y399088D01*
X153780D02*
X151748Y403152D01*
X155812D01*
X153780Y399088D01*
Y374088D02*
X151748Y378152D01*
X155812D01*
X153780Y374088D01*
X368808Y505968D02*
Y510032D01*
X372872D01*
Y505968D01*
X368808D01*
X343408D02*
Y510032D01*
X347472D01*
Y505968D01*
X343408D01*
X292608D02*
Y510032D01*
X296672D01*
Y505968D01*
X292608D01*
X267208D02*
Y510032D01*
X271272D01*
Y505968D01*
X267208D01*
X241808D02*
Y510032D01*
X245872D01*
Y505968D01*
X241808D01*
X216408D02*
Y510032D01*
X220472D01*
Y505968D01*
X216408D01*
X191008D02*
Y510032D01*
X195072D01*
Y505968D01*
X191008D01*
X165608D02*
Y510032D01*
X169672D01*
Y505968D01*
X165608D01*
X140208D02*
Y510032D01*
X144272D01*
Y505968D01*
X140208D01*
X318008D02*
Y510032D01*
X322072D01*
Y505968D01*
X318008D01*
X587248Y23368D02*
Y27432D01*
X591312D01*
Y23368D01*
X587248D01*
X561848D02*
Y27432D01*
X565912D01*
Y23368D01*
X561848D01*
X536448D02*
Y27432D01*
X540512D01*
Y23368D01*
X536448D01*
X511048D02*
Y27432D01*
X515112D01*
Y23368D01*
X511048D01*
X485648D02*
Y27432D01*
X489712D01*
Y23368D01*
X485648D01*
X460248D02*
Y27432D01*
X464312D01*
Y23368D01*
X460248D01*
X231648D02*
Y27432D01*
X235712D01*
Y23368D01*
X231648D01*
X257048D02*
Y27432D01*
X261112D01*
Y23368D01*
X257048D01*
X282448D02*
Y27432D01*
X286512D01*
Y23368D01*
X282448D01*
X307848D02*
Y27432D01*
X311912D01*
Y23368D01*
X307848D01*
X333248D02*
Y27432D01*
X337312D01*
Y23368D01*
X333248D01*
X358648D02*
Y27432D01*
X362712D01*
Y23368D01*
X358648D01*
X384048D02*
Y27432D01*
X388112D01*
Y23368D01*
X384048D01*
X409448D02*
Y27432D01*
X413512D01*
Y23368D01*
X409448D01*
X248666Y160020D02*
X249682Y161036D01*
X250698D01*
X249682Y162052D01*
X250698Y163068D01*
X249682D01*
X248666Y164084D01*
X247650Y163068D01*
X246634D01*
X247650Y162052D01*
X246634Y161036D01*
X247650D01*
X248666Y160020D01*
X203454D02*
X204470Y161036D01*
X205486D01*
X204470Y162052D01*
X205486Y163068D01*
X204470D01*
X203454Y164084D01*
X202438Y163068D01*
X201422D01*
X202438Y162052D01*
X201422Y161036D01*
X202438D01*
X203454Y160020D01*
X248666Y94996D02*
X249682Y96012D01*
X250698D01*
X249682Y97028D01*
X250698Y98044D01*
X249682D01*
X248666Y99060D01*
X247650Y98044D01*
X246634D01*
X247650Y97028D01*
X246634Y96012D01*
X247650D01*
X248666Y94996D01*
X203454D02*
X204470Y96012D01*
X205486D01*
X204470Y97028D01*
X205486Y98044D01*
X204470D01*
X203454Y99060D01*
X202438Y98044D01*
X201422D01*
X202438Y97028D01*
X201422Y96012D01*
X202438D01*
X203454Y94996D01*
X416306Y160528D02*
X417322Y161544D01*
X418338D01*
X417322Y162560D01*
X418338Y163576D01*
X417322D01*
X416306Y164592D01*
X415290Y163576D01*
X414274D01*
X415290Y162560D01*
X414274Y161544D01*
X415290D01*
X416306Y160528D01*
X371094D02*
X372110Y161544D01*
X373126D01*
X372110Y162560D01*
X373126Y163576D01*
X372110D01*
X371094Y164592D01*
X370078Y163576D01*
X369062D01*
X370078Y162560D01*
X369062Y161544D01*
X370078D01*
X371094Y160528D01*
X416306Y95504D02*
X417322Y96520D01*
X418338D01*
X417322Y97536D01*
X418338Y98552D01*
X417322D01*
X416306Y99568D01*
X415290Y98552D01*
X414274D01*
X415290Y97536D01*
X414274Y96520D01*
X415290D01*
X416306Y95504D01*
X371094D02*
X372110Y96520D01*
X373126D01*
X372110Y97536D01*
X373126Y98552D01*
X372110D01*
X371094Y99568D01*
X370078Y98552D01*
X369062D01*
X370078Y97536D01*
X369062Y96520D01*
X370078D01*
X371094Y95504D01*
X162306Y160020D02*
X163322Y161036D01*
X164338D01*
X163322Y162052D01*
X164338Y163068D01*
X163322D01*
X162306Y164084D01*
X161290Y163068D01*
X160274D01*
X161290Y162052D01*
X160274Y161036D01*
X161290D01*
X162306Y160020D01*
X117094D02*
X118110Y161036D01*
X119126D01*
X118110Y162052D01*
X119126Y163068D01*
X118110D01*
X117094Y164084D01*
X116078Y163068D01*
X115062D01*
X116078Y162052D01*
X115062Y161036D01*
X116078D01*
X117094Y160020D01*
X162306Y94996D02*
X163322Y96012D01*
X164338D01*
X163322Y97028D01*
X164338Y98044D01*
X163322D01*
X162306Y99060D01*
X161290Y98044D01*
X160274D01*
X161290Y97028D01*
X160274Y96012D01*
X161290D01*
X162306Y94996D01*
X117094D02*
X118110Y96012D01*
X119126D01*
X118110Y97028D01*
X119126Y98044D01*
X118110D01*
X117094Y99060D01*
X116078Y98044D01*
X115062D01*
X116078Y97028D01*
X115062Y96012D01*
X116078D01*
X117094Y94996D01*
X335026Y160020D02*
X336042Y161036D01*
X337058D01*
X336042Y162052D01*
X337058Y163068D01*
X336042D01*
X335026Y164084D01*
X334010Y163068D01*
X332994D01*
X334010Y162052D01*
X332994Y161036D01*
X334010D01*
X335026Y160020D01*
X289814D02*
X290830Y161036D01*
X291846D01*
X290830Y162052D01*
X291846Y163068D01*
X290830D01*
X289814Y164084D01*
X288798Y163068D01*
X287782D01*
X288798Y162052D01*
X287782Y161036D01*
X288798D01*
X289814Y160020D01*
X335026Y94996D02*
X336042Y96012D01*
X337058D01*
X336042Y97028D01*
X337058Y98044D01*
X336042D01*
X335026Y99060D01*
X334010Y98044D01*
X332994D01*
X334010Y97028D01*
X332994Y96012D01*
X334010D01*
X335026Y94996D01*
X289814D02*
X290830Y96012D01*
X291846D01*
X290830Y97028D01*
X291846Y98044D01*
X290830D01*
X289814Y99060D01*
X288798Y98044D01*
X287782D01*
X288798Y97028D01*
X287782Y96012D01*
X288798D01*
X289814Y94996D01*
X610108Y300228D02*
Y304292D01*
X614172D01*
Y300228D01*
X610108D01*
Y274828D02*
Y278892D01*
X614172D01*
Y274828D01*
X610108D01*
Y249428D02*
Y253492D01*
X614172D01*
Y249428D01*
X610108D01*
Y224028D02*
Y228092D01*
X614172D01*
Y224028D01*
X610108D01*
Y198628D02*
Y202692D01*
X614172D01*
Y198628D01*
X610108D01*
Y173228D02*
Y177292D01*
X614172D01*
Y173228D01*
X610108D01*
Y147828D02*
Y151892D01*
X614172D01*
Y147828D01*
X610108D01*
Y122428D02*
Y126492D01*
X614172D01*
Y122428D01*
X610108D01*
X269748Y284988D02*
X270764Y287020D01*
X269748Y289052D01*
X271780Y288036D01*
X273812Y289052D01*
X272796Y287020D01*
X273812Y284988D01*
X271780Y286004D01*
X269748Y284988D01*
X310388Y399288D02*
X311404Y401320D01*
X310388Y403352D01*
X312420Y402336D01*
X314452Y403352D01*
X313436Y401320D01*
X314452Y399288D01*
X312420Y400304D01*
X310388Y399288D01*
X300228Y386588D02*
X301244Y388620D01*
X300228Y390652D01*
X302260Y389636D01*
X304292Y390652D01*
X303276Y388620D01*
X304292Y386588D01*
X302260Y387604D01*
X300228Y386588D01*
X269748Y389128D02*
X270764Y391160D01*
X269748Y393192D01*
X271780Y392176D01*
X273812Y393192D01*
X272796Y391160D01*
X273812Y389128D01*
X271780Y390144D01*
X269748Y389128D01*
X249428Y378968D02*
X250444Y381000D01*
X249428Y383032D01*
X251460Y382016D01*
X253492Y383032D01*
X252476Y381000D01*
X253492Y378968D01*
X251460Y379984D01*
X249428Y378968D01*
X180848Y66548D02*
X181864Y68580D01*
X180848Y70612D01*
X182880Y69596D01*
X184912Y70612D01*
X183896Y68580D01*
X184912Y66548D01*
X182880Y67564D01*
X180848Y66548D01*
X437388Y145288D02*
X438404Y147320D01*
X437388Y149352D01*
X439420Y148336D01*
X441452Y149352D01*
X440436Y147320D01*
X441452Y145288D01*
X439420Y146304D01*
X437388Y145288D01*
X569468Y130168D02*
X570484Y132200D01*
X569468Y134232D01*
X571500Y133216D01*
X573532Y134232D01*
X572516Y132200D01*
X573532Y130168D01*
X571500Y131184D01*
X569468Y130168D01*
X518668D02*
X519684Y132200D01*
X518668Y134232D01*
X520700Y133216D01*
X522732Y134232D01*
X521716Y132200D01*
X522732Y130168D01*
X520700Y131184D01*
X518668Y130168D01*
X467868D02*
X468884Y132200D01*
X467868Y134232D01*
X469900Y133216D01*
X471932Y134232D01*
X470916Y132200D01*
X471932Y130168D01*
X469900Y131184D01*
X467868Y130168D01*
D47*
X108712Y328420D02*
G03*
X108712Y328420I-2032J0D01*
G01*
Y448820D02*
G03*
X108712Y448820I-2032J0D01*
G01*
M02*
