M48
;Layer_Color=9474304
;FILE_FORMAT=4:4
METRIC,LZ
;TYPE=PLATED
T1F00S00C0.3000
T2F00S00C0.9000
T3F00S00C0.9200
T4F00S00C1.0160
;TYPE=NON_PLATED
T5F00S00C2.3000
%
T01
X0018288Y0006858
X004699Y001322
X005207
X005715
X0043942Y0014732
X0027178Y0028702
Y0039116
X0025146Y00381
X0030226Y0038862
X0031242Y0040132
T02
X0023368Y000254
X0025908
X0028448
X0030988
X0033528
X0036068
X0038608
X0041148
X0046228
X0048768
X0051308
X0053848
X0056388
X0058928
X0061214Y0012446
Y0014986
Y0017526
Y0020066
Y0022606
Y0025146
Y0027686
Y0030226
X0058928Y00508
X0056388
X0053848
X0051308
X0048768
X0046228
X0043688
X0041148
X0037084
X0034544
X0032004
X0029464
X0026924
X0024384
X0021844
X0019304
X0016764
X0014224
T03
X0013378Y0037612
X0015378
Y0040112
X0013378
T04
X00117094Y00097028
X00162306
X00203454
X00248666
X00289814
X00335026
X00371094Y00097536
X00416306
Y0016256
X00371094
X00335026Y00162052
X00289814
X00248666
X00203454
X00162306
X00117094
T05
X0010668Y0032842
Y0044882
M30
